<svg width="24" height="24" viewBox="0 0 24 24" fill="none" xmlns="http://www.w3.org/2000/svg">
<path d="M14.3968 5.03685C14.3968 6.19989 13.8875 7.24384 13.08 7.95736C12.3226 8.55513 10.2673 11.2024 9.57983 14.3791C8.89233 17.5558 9.14035 20.203 12.1029 20.203C15.0654 20.203 15.9427 17.0263 12.8509 12.7566C11.9265 11.48 15.7939 12.8782 16.0923 13.0811C17.8976 14.3083 18.6855 15.6088 18.6855 17.5558C18.6855 21.7914 14.8287 23.3797 12.5267 23.3797C8.31285 23.3797 6.06409 20.7837 5.73995 17.2142C5.4158 13.6447 8.23804 8.60637 7.93416 7.95736C7.12663 7.24384 6.61731 6.19989 6.61731 5.03685C6.61731 2.88624 8.35881 1.14282 10.5071 1.14282C12.6553 1.14282 14.3968 2.88624 14.3968 5.03685Z" fill="#262626"/>
<path d="M12.3487 4.84893C12.3487 5.87235 11.5191 6.702 10.4957 6.702C9.47223 6.702 8.64258 5.87235 8.64258 4.84893C8.64258 3.8255 9.47223 2.99585 10.4957 2.99585C11.5191 2.99585 12.3487 3.8255 12.3487 4.84893Z" fill="white"/>
</svg>
