<svg width="85" height="210" viewBox="0 0 85 210" fill="none" xmlns="http://www.w3.org/2000/svg">
<path d="M0 42.3432C0 65.435 18.8413 102.29 42.0832 102.29C65.3251 102.29 84.1664 65.435 84.1664 42.3432C84.1664 31.2541 79.7326 20.6192 71.8405 12.778C63.9484 4.93686 53.2444 0.531738 42.0832 0.531738C30.922 0.531738 20.218 4.93686 12.3259 12.778C4.43375 20.6192 0 31.2541 0 42.3432Z" fill="#F0F0F0"/>
<path d="M40.5245 103.776C45.8131 105.585 47.0791 112.75 45.2601 118.005C43.441 123.26 39.5884 127.619 37.6498 132.832C36.7653 135.461 36.1304 138.166 35.7533 140.913C34.6459 147.452 33.5354 154.106 34.3887 160.683C35.1981 166.922 37.7422 172.803 40.5804 178.426C46.0772 189.313 52.7634 199.566 60.5181 209" stroke="#262626" stroke-width="2"/>
<path d="M38.0271 106.32C40.7312 104.596 43.4354 104.596 46.1395 106.32V98.2598H38.0271V106.32Z" fill="#8C8C8C"/>
<path d="M46.1181 102.119C44.8576 102.753 43.4635 103.081 42.0506 103.075C40.6378 103.069 39.2465 102.73 37.9912 102.086" stroke="#262626" stroke-width="2"/>
<path opacity="0.4" d="M24.5902 35.2901C29.4906 35.2901 33.4632 30.5538 33.4632 24.7113C33.4632 18.8688 29.4906 14.1325 24.5902 14.1325C19.6898 14.1325 15.7173 18.8688 15.7173 24.7113C15.7173 30.5538 19.6898 35.2901 24.5902 35.2901Z" fill="white"/>
</svg>
