<svg width="85" height="200" viewBox="0 0 85 200" fill="none" xmlns="http://www.w3.org/2000/svg">
<path d="M85 39.8345C85 61.8345 66.1806 96.9467 42.9656 96.9467C19.7506 96.9467 0.931183 61.8345 0.931183 39.8345C0.931183 29.2698 5.35979 19.1377 13.2428 11.6673C21.1258 4.19685 31.8174 0 42.9656 0C54.1138 0 64.8054 4.19685 72.6884 11.6673C80.5714 19.1377 85 29.2698 85 39.8345Z" fill="#FFA940"/>
<path d="M44.5225 98.364C39.2401 100.088 37.9755 106.914 39.7924 111.921C41.6094 116.927 45.4576 121.08 47.3939 126.046C48.2773 128.551 48.9115 131.128 49.2882 133.745C50.3943 139.975 51.5035 146.314 50.6512 152.58C49.8427 158.524 47.3016 164.128 44.4667 169.485C38.9763 179.857 32.2978 189.625 24.5521 198.613" stroke="#612500" stroke-width="2"/>
<path d="M47.0173 100.786C44.3163 99.1432 41.6153 99.1432 38.9143 100.786V93.1069H47.0173V100.786Z" fill="#D46B08"/>
<path d="M38.9352 96.7845C40.1943 97.3886 41.5868 97.7007 42.998 97.6952C44.4092 97.6898 45.7989 97.3668 47.0527 96.7529" stroke="#612500" stroke-width="2"/>
<path opacity="0.4" d="M60.4383 33.1158C55.5436 33.1158 51.5757 28.6034 51.5757 23.0372C51.5757 17.4709 55.5436 12.9586 60.4383 12.9586C65.3331 12.9586 69.301 17.4709 69.301 23.0372C69.301 28.6034 65.3331 33.1158 60.4383 33.1158Z" fill="white"/>
</svg>
