<svg width="295" height="200" viewBox="0 0 295 200" fill="none" xmlns="http://www.w3.org/2000/svg">
<g clip-path="url(#clip0_179553_172580)">
<path d="M261.076 93.9225H38.1387V199.368H261.076V93.9225Z" fill="#D9D9D9"/>
<path d="M254.702 102.965H44.5137V190.941H254.702V102.965Z" fill="white"/>
<path d="M219.551 119.34H214.109V124.765H219.551V119.34Z" fill="#FFC069"/>
<path d="M74.3742 119.34H68.9314V124.765H74.3742V119.34Z" fill="#FFA940"/>
<path d="M86.9169 134.88H68.7739V152.964H86.9169V134.88Z" fill="#F0F0F0"/>
<path d="M260.981 87.8303H38.0437V97.2707H260.981V87.8303Z" fill="#FFA940"/>
<path d="M45.0818 96.3945C46.0513 96.3945 46.8373 95.6111 46.8373 94.6448C46.8373 93.6784 46.0513 92.895 45.0818 92.895C44.1123 92.895 43.3264 93.6784 43.3264 94.6448C43.3264 95.6111 44.1123 96.3945 45.0818 96.3945Z" fill="white"/>
<path d="M51.7447 96.3945C52.7142 96.3945 53.5001 95.6111 53.5001 94.6448C53.5001 93.6784 52.7142 92.895 51.7447 92.895C50.7752 92.895 49.9893 93.6784 49.9893 94.6448C49.9893 95.6111 50.7752 96.3945 51.7447 96.3945Z" fill="white"/>
<path d="M58.408 96.3945C59.3775 96.3945 60.1634 95.6111 60.1634 94.6448C60.1634 93.6784 59.3775 92.895 58.408 92.895C57.4385 92.895 56.6526 93.6784 56.6526 94.6448C56.6526 95.6111 57.4385 96.3945 58.408 96.3945Z" fill="white"/>
<path d="M295 199.368H0V200H295V199.368Z" fill="#BFBFBF"/>
<path d="M150.184 136.689H105.734V139.232H150.184V136.689Z" fill="#F0F0F0"/>
<path d="M174.374 145.966H105.734V148.51H174.374V145.966Z" fill="#FFA940"/>
<path d="M161.674 154.706H105.734V157.25H161.674V154.706Z" fill="#F0F0F0"/>
<path d="M138.391 163.414H105.734V165.958H138.391V163.414Z" fill="#F0F0F0"/>
<path d="M155.022 172.122H105.734V174.665H155.022V172.122Z" fill="#F0F0F0"/>
<path d="M228.925 119.34H223.483V124.765H228.925V119.34Z" fill="#FFC069"/>
<path d="M238.299 119.34H232.856V124.765H238.299V119.34Z" fill="#F0F0F0"/>
<path opacity="0.997" d="M227.245 165.957C233.35 165.957 238.299 161.024 238.299 154.94C238.299 148.855 233.35 143.922 227.245 143.922C221.141 143.922 216.192 148.855 216.192 154.94C216.192 161.024 221.141 165.957 227.245 165.957Z" fill="#FFA940"/>
<path d="M59.7252 29.8331C66.5979 29.8331 72.1694 24.2797 72.1694 17.4292C72.1694 10.5787 66.5979 5.02527 59.7252 5.02527C52.8525 5.02527 47.281 10.5787 47.281 17.4292C47.281 24.2797 52.8525 29.8331 59.7252 29.8331Z" fill="#434343"/>
<path d="M28.7564 123.559H23.3064L20.7141 102.611H28.7558L28.7564 123.559Z" fill="#FFD8BF"/>
<path d="M19.4157 122.007H29.9239V128.602H12.7993C12.7993 126.853 13.4964 125.175 14.7372 123.938C15.978 122.702 17.661 122.007 19.4157 122.007Z" fill="#595959"/>
<path d="M20.2507 120.528L15.0522 118.902L18.8711 98.1399L26.5436 100.54L20.2507 120.528Z" fill="#FFD8BF"/>
<path d="M11.802 116.26L21.8283 119.396L19.8472 125.689L3.5083 120.578C3.76846 119.752 4.18937 118.984 4.74698 118.32C5.30459 117.656 5.98799 117.108 6.75816 116.707C7.52833 116.306 8.37018 116.06 9.23566 115.984C10.1011 115.907 10.9733 116.001 11.8023 116.26L11.802 116.26Z" fill="#595959"/>
<path d="M22.0236 112.168C21.7855 112.168 21.5494 112.126 21.3265 112.042L17.3166 110.544C16.8666 110.374 16.4927 110.049 16.2632 109.628C16.0336 109.206 15.9636 108.716 16.0659 108.248C17.0751 103.725 20.5147 88.3255 22.3981 80.066C24.6317 70.269 57.2167 68.4485 58.6027 68.3759L58.7167 68.3699L62.3822 72.9593C63.7067 77.2029 63.2869 80.5129 61.1344 82.7977C54.8532 89.4635 36.1003 85.3272 33.8642 84.8039L23.8972 110.885C23.752 111.263 23.4952 111.587 23.1609 111.817C22.8265 112.046 22.4303 112.168 22.0246 112.168H22.0236Z" fill="#434343"/>
<path d="M27.8012 115.27C27.5631 115.27 27.327 115.227 27.1041 115.143L23.0955 113.645C22.6454 113.475 22.2715 113.15 22.0419 112.729C21.8124 112.307 21.7424 111.817 21.8448 111.349C22.854 106.825 26.2936 91.4264 28.177 83.167C30.4106 73.37 62.9956 71.5495 64.3815 71.4768L64.4956 71.4708L68.1598 76.0616C69.4843 80.3052 69.0645 83.6152 66.912 85.8999C60.6311 92.5641 41.8779 88.4295 39.6418 87.9058L29.6735 113.986C29.5283 114.363 29.2715 114.688 28.9372 114.918C28.6029 115.147 28.2067 115.269 27.8009 115.269L27.8012 115.27Z" fill="#434343"/>
<path d="M16.2037 51.4675C16.3509 51.6639 16.4824 51.8715 16.5969 52.0884L38.5169 54.3903L41.6729 50.0778L48.8242 53.9737L42.6266 64.438L15.7436 57.6058C15.0653 58.2649 14.2018 58.7026 13.2679 58.8607C12.334 59.0187 11.374 58.8896 10.5155 58.4905C9.657 58.0915 8.94073 57.4413 8.46196 56.6266C7.98319 55.8119 7.7646 54.8712 7.83527 53.9296C7.90593 52.988 8.26251 52.0902 8.85757 51.3556C9.45262 50.6209 10.258 50.0843 11.1665 49.8169C12.075 49.5496 13.0436 49.5643 13.9435 49.8591C14.8434 50.1539 15.632 50.7148 16.2043 51.4672L16.2037 51.4675Z" fill="#FFD8BF"/>
<path d="M67.1425 77.8189C66.8255 77.8181 66.5133 77.7424 66.2315 77.5978C61.8483 75.3762 53.3133 71.5289 45.3987 70.7239C45.1278 70.6974 44.8655 70.6148 44.6286 70.4813C44.3916 70.3478 44.1853 70.1665 44.0229 69.9488C43.8573 69.7289 43.7389 69.4772 43.6752 69.2097C43.6114 68.9421 43.6037 68.6643 43.6524 68.3936C44.3667 64.4529 46.0048 54.4181 45.7938 46.3759C45.7317 43.9031 46.5155 41.4828 48.0163 39.5129C49.5172 37.543 51.6458 36.1408 54.0522 35.5366C55.5006 35.1557 56.9716 34.8666 58.4566 34.6709C60.1639 34.4554 61.8981 34.6414 63.5203 35.2141C65.1425 35.7868 66.6076 36.7302 67.7982 37.9688C68.9889 39.2073 69.8719 40.7066 70.3767 42.3466C70.8815 43.9865 70.9939 45.7214 70.705 47.4125C69.2937 55.7468 67.8706 67.3874 69.1074 75.5132C69.1642 75.8775 69.1187 76.2502 68.976 76.5903C68.8334 76.9303 68.599 77.2244 68.299 77.4399C67.9634 77.6848 67.5585 77.8175 67.1425 77.8189Z" fill="#D9D9D9"/>
<path d="M46.1998 56.6203C45.9265 56.6199 45.6563 56.5637 45.4057 56.4552L39.6955 53.9916C39.2091 53.7811 38.8264 53.3869 38.6312 52.8954C38.4361 52.404 38.4445 51.8554 38.6546 51.3702L43.0685 41.2068C43.3307 40.5909 43.712 40.0326 44.1907 39.5636C44.6694 39.0946 45.236 38.7242 45.8583 38.4736C46.4806 38.2229 47.1464 38.0968 47.8175 38.1026C48.4887 38.1084 49.1521 38.2459 49.77 38.5072C50.3879 38.7685 50.948 39.1486 51.4185 39.6258C51.889 40.1029 52.2606 40.6677 52.5121 41.288C52.7636 41.9083 52.89 42.5718 52.8843 43.2408C52.8785 43.9098 52.7405 44.5711 52.4783 45.187C52.4688 45.2094 52.4591 45.2317 52.4493 45.2539L48.0353 55.4176C47.88 55.7744 47.6235 56.0782 47.2975 56.2918C46.9714 56.5055 46.5899 56.6196 46.1998 56.6203Z" fill="#D9D9D9"/>
<path d="M59.2707 31.2134C65.2994 31.2134 70.1866 26.342 70.1866 20.3328C70.1866 14.3236 65.2994 9.45215 59.2707 9.45215C53.242 9.45215 48.3547 14.3236 48.3547 20.3328C48.3547 26.342 53.242 31.2134 59.2707 31.2134Z" fill="#FFD8BF"/>
<path d="M48.1582 14.9859C53.3287 18.132 59.1578 20.0465 65.1918 20.5803L63.3962 18.4361C64.7035 18.9179 66.0792 19.1902 67.472 19.2428C68.1694 19.2629 68.8618 19.1198 69.4937 18.825C70.1256 18.5302 70.6793 18.0919 71.1105 17.5451C71.4626 16.9777 71.6717 16.3337 71.72 15.6683C71.7684 15.0029 71.6547 14.3356 71.3884 13.7235C70.8413 12.5021 69.9897 11.4406 68.9147 10.64C67.0091 9.1374 64.7601 8.1281 62.3683 7.70201C59.9764 7.27592 57.516 7.44628 55.2062 8.19789C53.6217 8.66985 52.2027 9.57716 51.1117 10.8159C50.0768 12.0884 48.0847 13.2223 48.6145 14.7727L48.1582 14.9859Z" fill="#434343"/>
<path d="M60.2466 5.81997C62.4224 3.62014 65.0555 1.92245 67.9606 0.846461C69.8045 0.0732716 71.8269 -0.176923 73.8045 0.123506C75.7542 0.514514 77.5977 1.85872 78.1418 3.76544C78.5854 5.32442 78.1272 7.0031 77.4371 8.47143C76.7469 9.93977 75.8255 11.3001 75.2672 12.8224C74.6976 14.3758 74.5263 16.0464 74.7688 17.6825C75.0113 19.3186 75.6599 20.8684 76.6558 22.1912C77.6516 23.5141 78.9632 24.5681 80.4714 25.2575C81.9796 25.9469 83.6366 26.25 85.2921 26.1391C83.3767 26.3953 81.6111 27.2926 79.7388 27.7698C77.8664 28.247 75.6566 28.2151 74.2653 26.8779C72.7931 25.4632 72.7636 23.1633 72.8349 21.1265L73.1518 12.0423C73.2057 10.4982 73.2519 8.90445 72.693 7.46265C72.134 6.02084 70.8064 4.75907 69.2563 4.77234C68.0813 4.78213 67.0417 5.49182 66.0994 6.1914C65.157 6.89098 64.1598 7.63731 62.9897 7.74153C61.8195 7.84576 60.4833 6.98352 60.5707 5.81492" fill="#434343"/>
<path d="M40.9182 75.0237C40.1949 75.0228 39.4809 74.862 38.8274 74.553C38.174 74.2439 37.5975 73.7942 37.1394 73.2363C36.6813 72.6784 36.3531 72.0262 36.1783 71.3266C36.0036 70.627 35.9867 69.8975 36.1288 69.1907C36.271 68.4838 36.5686 67.8172 37.0004 67.2388C37.4321 66.6604 37.9872 66.1846 38.6256 65.8458C39.264 65.5069 39.9698 65.3134 40.6923 65.2793C41.4147 65.2451 42.1358 65.371 42.8035 65.648C43.0044 65.7326 43.1991 65.8309 43.3863 65.9424L63.271 57.0449L63.8297 51.6693L72.4011 51.4407L72.3444 60.39C72.334 61.4268 71.9885 62.4326 71.359 63.2582C70.7296 64.0837 69.8498 64.6849 68.8504 64.9725L45.5973 71.5687C45.5525 71.7218 45.4996 71.8725 45.4389 72.0201C45.0658 72.9083 44.4381 73.6671 43.6343 74.2013C42.8305 74.7356 41.8865 75.0215 40.9204 75.0234L40.9182 75.0237Z" fill="#FFD8BF"/>
<path d="M71.6751 55.8258C71.4313 55.9487 71.1648 56.0205 70.8921 56.0368L64.6816 56.4173C64.1523 56.4492 63.632 56.2704 63.2348 55.9204C62.8376 55.5703 62.5959 55.0775 62.5627 54.5501L61.8811 43.4958C61.7995 42.148 62.2579 40.8231 63.1556 39.8121C64.0534 38.801 65.3171 38.1865 66.6691 38.1036C68.0211 38.0207 69.3509 38.4761 70.3662 39.3699C71.3816 40.2636 71.9994 41.5225 72.0841 42.8701L72.766 53.9244C72.7897 54.3127 72.6991 54.6995 72.5055 55.0372C72.3118 55.375 72.0234 55.649 71.6757 55.8258H71.6751Z" fill="#D9D9D9"/>
<path d="M59.1695 73.0402H22.0746C21.7635 73.0402 21.5112 73.2916 21.5112 73.6017V75.5795C21.5112 75.8896 21.7635 76.1411 22.0746 76.1411H59.1695C59.4807 76.1411 59.7329 75.8896 59.7329 75.5795V73.6017C59.7329 73.2916 59.4807 73.0402 59.1695 73.0402Z" fill="#434343"/>
<path d="M7.25781 73.2619V51.5547C7.25873 50.7913 7.56339 50.0594 8.10495 49.5196C8.64652 48.9798 9.38077 48.6761 10.1467 48.6752H49.7017C50.4676 48.676 51.2019 48.9796 51.7435 49.5195C52.2851 50.0593 52.5897 50.7912 52.5905 51.5547V73.2619C52.5897 74.0254 52.2851 74.7573 51.7435 75.2971C51.2019 75.837 50.4676 76.1406 49.7017 76.1414H10.1467C9.38077 76.1405 8.64652 75.8368 8.10495 75.297C7.56339 74.7572 7.25873 74.0253 7.25781 73.2619Z" fill="#595959"/>
<path d="M30.3999 65.0674C31.8727 65.0674 33.0666 63.8773 33.0666 62.4093C33.0666 60.9413 31.8727 59.7512 30.3999 59.7512C28.9271 59.7512 27.7332 60.9413 27.7332 62.4093C27.7332 63.8773 28.9271 65.0674 30.3999 65.0674Z" fill="white"/>
</g>
<defs>
<clipPath id="clip0_179553_172580">
<rect width="295" height="200" fill="white"/>
</clipPath>
</defs>
</svg>
