<svg width="56" height="56" viewBox="0 0 56 56" fill="none" xmlns="http://www.w3.org/2000/svg">
<g clip-path="url(#clip0_179765_186143)">
<circle cx="28" cy="28" r="24" fill="#262626"/>
<path d="M28 0C12.5375 0 0 12.5375 0 28C0 43.4625 12.5375 56 28 56C43.4625 56 56 43.4625 56 28C56 12.5375 43.4625 0 28 0ZM28 51.25C15.1625 51.25 4.75 40.8375 4.75 28C4.75 15.1625 15.1625 4.75 28 4.75C40.8375 4.75 51.25 15.1625 51.25 28C51.25 40.8375 40.8375 51.25 28 51.25Z" fill="#262626"/>
<path d="M39.6873 18.0605H36.7561C36.1186 18.0605 35.5123 18.3668 35.1373 18.8918L25.3123 32.5168L20.8623 26.3418C20.4873 25.823 19.8873 25.5105 19.2436 25.5105H16.3123C15.9061 25.5105 15.6686 25.973 15.9061 26.3043L23.6936 37.1043C23.8775 37.3611 24.1201 37.5703 24.401 37.7146C24.682 37.859 24.9933 37.9343 25.3092 37.9343C25.6251 37.9343 25.9364 37.859 26.2174 37.7146C26.4983 37.5703 26.7408 37.3611 26.9248 37.1043L40.0873 18.8543C40.3311 18.523 40.0936 18.0605 39.6873 18.0605Z" fill="white"/>
</g>
<defs>
<clipPath id="clip0_179765_186143">
<rect width="56" height="56" fill="white"/>
</clipPath>
</defs>
</svg>
