<svg width="295" height="156" viewBox="0 0 295 156" fill="none" xmlns="http://www.w3.org/2000/svg">
<g clip-path="url(#clip0_179553_172467)">
<path d="M13.7981 155.551L13.8593 155.231C13.8728 155.16 15.2654 148.149 20.4857 144.08C25.7061 140.011 32.9012 140.329 32.9731 140.333L33.3012 140.35L33.24 140.67C33.2264 140.74 31.8338 147.752 26.6136 151.821C21.3932 155.89 14.1981 155.571 14.1262 155.567L13.7981 155.551ZM20.8397 144.527C16.4259 147.967 14.8367 153.592 14.4966 155.006C15.9624 155.012 21.8502 154.81 26.2596 151.373C30.6686 147.937 32.2614 142.309 32.6027 140.894C31.1361 140.888 25.2489 141.09 20.8397 144.527Z" fill="#F5F5F5"/>
<path d="M22.9157 146.087C20.5243 152.199 14.2289 155.476 14.2289 155.476C14.2289 155.476 11.8108 148.843 14.2022 142.731C16.5936 136.619 22.889 133.342 22.889 133.342C22.889 133.342 25.3071 139.975 22.9157 146.087Z" fill="#F5F5F5"/>
<path d="M286.341 155.567C286.269 155.571 279.074 155.89 273.853 151.821C268.633 147.752 267.24 140.74 267.227 140.67L267.166 140.35L267.494 140.333C267.566 140.329 274.761 140.011 279.981 144.08C285.201 148.149 286.594 155.16 286.607 155.231L286.669 155.551L286.341 155.567ZM267.864 140.894C268.205 142.309 269.798 147.937 274.207 151.373C278.617 154.81 284.504 155.012 285.97 155.006C285.63 153.592 284.041 147.967 279.627 144.527C275.218 141.09 269.331 140.888 267.864 140.894Z" fill="#F5F5F5"/>
<path d="M277.551 146.087C279.942 152.199 286.238 155.476 286.238 155.476C286.238 155.476 288.656 148.843 286.265 142.731C283.873 136.619 277.578 133.342 277.578 133.342C277.578 133.342 275.16 139.975 277.551 146.087Z" fill="#F5F5F5"/>
<path d="M169.08 154.089L164.899 152.342L162.03 131.545H123.835L120.726 152.257L116.985 154.113C116.806 154.202 116.663 154.348 116.578 154.528C116.493 154.708 116.472 154.911 116.518 155.104C116.564 155.297 116.674 155.47 116.831 155.593C116.988 155.716 117.182 155.783 117.382 155.783H168.735C168.94 155.783 169.139 155.713 169.298 155.584C169.457 155.455 169.565 155.276 169.606 155.076C169.647 154.877 169.616 154.669 169.52 154.49C169.425 154.31 169.269 154.168 169.08 154.089Z" fill="#BFBFBF"/>
<path d="M236.956 134.312H49.3283C48.3439 134.31 47.4005 133.92 46.7052 133.228C46.0099 132.537 45.6194 131.6 45.6194 130.623V104.37H240.665V130.623C240.665 131.6 240.275 132.537 239.579 133.228C238.884 133.92 237.941 134.31 236.956 134.312Z" fill="#D9D9D9"/>
<path d="M240.861 116.778H45.4482V4.44636C45.4496 3.26751 45.9222 2.13732 46.7623 1.30376C47.6024 0.470194 48.7414 0.00132134 49.9295 0H236.38C237.568 0.00132056 238.707 0.470191 239.547 1.30375C240.387 2.13732 240.86 3.2675 240.861 4.44636V116.778Z" fill="#434343"/>
<path d="M229.19 108.625H57.1195C56.2036 108.624 55.3255 108.262 54.6778 107.62C54.0301 106.977 53.6658 106.106 53.6648 105.197V11.5809C53.6658 10.672 54.0301 9.80071 54.6778 9.15805C55.3254 8.51538 56.2035 8.15388 57.1195 8.15283H229.19C230.106 8.15388 230.984 8.51538 231.632 9.15805C232.279 9.80071 232.644 10.672 232.645 11.5809V105.197C232.644 106.106 232.279 106.977 231.632 107.62C230.984 108.262 230.106 108.624 229.19 108.625Z" fill="white"/>
<path d="M294.563 156H0.454982C0.355937 156.002 0.258978 155.972 0.179213 155.913C0.0994471 155.855 0.0413544 155.772 0.0139868 155.678C-0.00309904 155.613 -0.00508773 155.546 0.00817196 155.481C0.0214317 155.416 0.0495853 155.354 0.09047 155.302C0.131355 155.249 0.183879 155.206 0.244 155.177C0.304122 155.147 0.370239 155.132 0.437262 155.132H294.527C294.631 155.128 294.734 155.16 294.818 155.222C294.902 155.283 294.963 155.371 294.99 155.471C295.004 155.535 295.004 155.601 294.989 155.664C294.974 155.727 294.945 155.787 294.904 155.837C294.863 155.888 294.811 155.929 294.752 155.957C294.693 155.985 294.628 156 294.563 156Z" fill="#BFBFBF"/>
<path d="M91.2277 43.5571H62.9167V46.1953H91.2277V43.5571Z" fill="#F0F0F0"/>
<path d="M91.2277 49.9551H62.9167V52.5932H91.2277V49.9551Z" fill="#F0F0F0"/>
<path d="M91.2277 56.4941H62.9167V59.1323H91.2277V56.4941Z" fill="#F0F0F0"/>
<path d="M91.2277 63.0334H62.9167V65.6716H91.2277V63.0334Z" fill="#F0F0F0"/>
<path d="M84.5218 71.3428H69.6223V73.6322H84.5218V71.3428Z" fill="#FA8C16"/>
<path d="M135.28 59.9197H135.01V60.7255H135.28V59.9197Z" fill="#F0F0F0"/>
<path d="M135.28 77.8952H135.01V76.1782H135.28V77.8952ZM135.28 74.4612H135.01V72.7442H135.28V74.4612ZM135.28 71.0272H135.01V69.3103H135.28V71.0272ZM135.28 67.5933H135.01V65.8763H135.28V67.5933ZM135.28 64.1594H135.01V62.4424H135.28V64.1594Z" fill="#F0F0F0"/>
<path d="M135.28 79.6121H135.01V80.4179H135.28V79.6121Z" fill="#F0F0F0"/>
<path d="M164.923 59.9197H164.653V60.7255H164.923V59.9197Z" fill="#F0F0F0"/>
<path d="M164.923 77.8952H164.653V76.1782H164.923V77.8952ZM164.923 74.4612H164.653V72.7442H164.923V74.4612ZM164.923 71.0272H164.653V69.3103H164.923V71.0272ZM164.923 67.5933H164.653V65.8763H164.923V67.5933ZM164.923 64.1594H164.653V62.4424H164.923V64.1594Z" fill="#F0F0F0"/>
<path d="M164.923 79.6121H164.653V80.4179H164.923V79.6121Z" fill="#F0F0F0"/>
<path d="M179.875 44.1553H179.605V44.9611H179.875V44.1553Z" fill="#F0F0F0"/>
<path d="M179.875 77.9621H179.605V76.312H179.875V77.9621ZM179.875 74.662H179.605V73.0119H179.875V74.662ZM179.875 71.3618H179.605V69.7118H179.875V71.3618ZM179.875 68.0618H179.605V66.4117H179.875V68.0618ZM179.875 64.7617H179.605V63.1116H179.875V64.7617ZM179.875 61.4615H179.605V59.8115H179.875V61.4615ZM179.875 58.1614H179.605V56.5114H179.875V58.1614ZM179.875 54.8614H179.605V53.2113H179.875V54.8614ZM179.875 51.5612H179.605V49.9112H179.875V51.5612ZM179.875 48.2611H179.605V46.6111H179.875V48.2611Z" fill="#F0F0F0"/>
<path d="M179.875 79.6121H179.605V80.4179H179.875V79.6121Z" fill="#F0F0F0"/>
<path d="M194.679 37.7085H194.409V38.5143H194.679V37.7085Z" fill="#F0F0F0"/>
<path d="M194.679 77.9682H194.409V76.3242H194.679V77.9682ZM194.679 74.6803H194.409V73.0364H194.679V74.6803ZM194.679 71.3925H194.409V69.7486H194.679V71.3925ZM194.679 68.1047H194.409V66.4608H194.679V68.1047ZM194.679 64.8169H194.409V63.1729H194.679V64.8169ZM194.679 61.5291H194.409V59.8851H194.679V61.5291ZM194.679 58.2412H194.409V56.5973H194.679V58.2412ZM194.679 54.9534H194.409V53.3095H194.679V54.9534ZM194.679 51.6656H194.409V50.0217H194.679V51.6656ZM194.679 48.3778H194.409V46.7338H194.679V48.3778ZM194.679 45.09H194.409V43.446H194.679V45.09ZM194.679 41.8021H194.409V40.1582H194.679V41.8021Z" fill="#F0F0F0"/>
<path d="M194.679 79.6121H194.409V80.4179H194.679V79.6121Z" fill="#F0F0F0"/>
<path d="M150.169 49.1245H149.899V49.9304H150.169V49.1245Z" fill="#F0F0F0"/>
<path d="M150.169 78.05H149.899V76.4879H150.169V78.05ZM150.169 74.9256H149.899V73.3634H150.169V74.9256ZM150.169 71.8012H149.899V70.2391H150.169V71.8012ZM150.169 68.6768H149.899V67.1147H150.169V68.6768ZM150.169 65.5524H149.899V63.9903H150.169V65.5524ZM150.169 62.428H149.899V60.8659H150.169V62.428ZM150.169 59.3036H149.899V57.7415H150.169V59.3036ZM150.169 56.1792H149.899V54.6171H150.169V56.1792ZM150.169 53.0549H149.899V51.4927H150.169V53.0549Z" fill="#F0F0F0"/>
<path d="M150.169 79.6121H149.899V80.4179H150.169V79.6121Z" fill="#F0F0F0"/>
<path d="M209.694 80.7922H120.073C119.999 80.7922 119.928 80.7628 119.875 80.7107C119.823 80.6585 119.793 80.5877 119.793 80.5139V37.8911C119.793 37.8173 119.823 37.7465 119.875 37.6943C119.928 37.6421 119.999 37.6128 120.073 37.6128C120.148 37.6128 120.219 37.6421 120.272 37.6943C120.324 37.7465 120.354 37.8173 120.354 37.8911V80.2356H209.694C209.769 80.2356 209.84 80.2649 209.893 80.3171C209.945 80.3693 209.975 80.44 209.975 80.5139C209.975 80.5877 209.945 80.6585 209.893 80.7107C209.84 80.7628 209.769 80.7922 209.694 80.7922Z" fill="#434343"/>
<path d="M164.912 60.2936L150.011 49.2194L135.314 60.1424L134.978 59.6969L150.011 48.524L164.84 59.5456L179.577 43.5437L179.636 43.5199L194.501 37.5769L194.711 38.0935L179.905 44.0126L164.912 60.2936Z" fill="#434343"/>
<path d="M135.146 61.5894C136.075 61.5894 136.829 60.8418 136.829 59.9196C136.829 58.9974 136.075 58.2498 135.146 58.2498C134.216 58.2498 133.463 58.9974 133.463 59.9196C133.463 60.8418 134.216 61.5894 135.146 61.5894Z" fill="#FA8C16"/>
<path d="M150.011 50.7356C150.94 50.7356 151.694 49.988 151.694 49.0658C151.694 48.1436 150.94 47.396 150.011 47.396C149.081 47.396 148.328 48.1436 148.328 49.0658C148.328 49.988 149.081 50.7356 150.011 50.7356Z" fill="#FA8C16"/>
<path d="M164.876 61.5894C165.805 61.5894 166.559 60.8418 166.559 59.9196C166.559 58.9974 165.805 58.2498 164.876 58.2498C163.947 58.2498 163.193 58.9974 163.193 59.9196C163.193 60.8418 163.947 61.5894 164.876 61.5894Z" fill="#FA8C16"/>
<path d="M179.741 45.4478C180.67 45.4478 181.424 44.7002 181.424 43.778C181.424 42.8558 180.67 42.1082 179.741 42.1082C178.812 42.1082 178.058 42.8558 178.058 43.778C178.058 44.7002 178.812 45.4478 179.741 45.4478Z" fill="#FA8C16"/>
<path d="M194.606 39.3252C195.535 39.3252 196.289 38.5776 196.289 37.6554C196.289 36.7332 195.535 35.9856 194.606 35.9856C193.677 35.9856 192.923 36.7332 192.923 37.6554C192.923 38.5776 193.677 39.3252 194.606 39.3252Z" fill="#FA8C16"/>
<path d="M100.076 8.15283H99.5029V108.625H100.076V8.15283Z" fill="#F0F0F0"/>
<path d="M235.175 107.597C235.373 107.363 235.516 107.089 235.596 106.794C235.676 106.499 235.689 106.191 235.636 105.89C235.582 105.589 235.463 105.304 235.286 105.054C235.109 104.804 234.879 104.596 234.613 104.443L236.012 97.1528L232.424 98.6364L231.646 105.332C231.418 105.794 231.368 106.322 231.506 106.818C231.645 107.313 231.961 107.741 232.396 108.02C232.831 108.299 233.354 108.41 233.867 108.332C234.379 108.254 234.844 107.993 235.175 107.597Z" fill="#FFD8BF"/>
<path d="M253.063 152.333H250.025L248.58 140.706L253.063 140.707L253.063 152.333Z" fill="#FFD8BF"/>
<path d="M253.837 155.255L244.042 155.255V155.132C244.042 154.128 244.444 153.166 245.159 152.457C245.874 151.747 246.844 151.349 247.855 151.349L253.838 151.349L253.837 155.255Z" fill="#262626"/>
<path d="M236.461 152.333H233.424L231.978 140.706L236.462 140.707L236.461 152.333Z" fill="#FFD8BF"/>
<path d="M236.493 155.255L226.698 155.255V155.132C226.698 154.128 227.099 153.166 227.814 152.457C228.529 151.747 229.499 151.349 230.51 151.349L236.493 151.349L236.493 155.255Z" fill="#262626"/>
<path d="M236.212 103.229L233.239 110.026L230.786 149.094L236.981 148.848L238.673 130.224L243.892 113.636L246.892 132.129L248.131 148.356L253.257 148.576L255.299 103.229H236.212Z" fill="#262626"/>
<path d="M251.075 69.6885L242.457 69.9024L237.398 72.4797L237.12 91.4943L233.965 104.622C233.965 104.622 253.681 105.969 256.407 104.002L253.185 89.004L257.506 72.7957L251.075 69.6885Z" fill="#FA8C16"/>
<path d="M238.318 72.7767L237.398 72.4795C237.398 72.4795 234.478 74.3391 234.756 78.8349C234.756 78.8349 234.646 81.1613 234.751 82.7096C234.871 84.4855 231.282 102.133 231.282 102.133H236.485L238.715 86.1517L238.318 72.7767Z" fill="#FA8C16"/>
<path d="M257.371 107.843C257.173 107.609 257.029 107.335 256.949 107.04C256.87 106.745 256.856 106.436 256.91 106.136C256.963 105.835 257.083 105.55 257.26 105.3C257.436 105.05 257.666 104.841 257.933 104.689L256.534 97.3987L260.122 98.8822L260.9 105.578C261.128 106.04 261.178 106.568 261.039 107.063C260.901 107.559 260.584 107.987 260.149 108.266C259.714 108.545 259.191 108.656 258.679 108.578C258.167 108.5 257.702 108.238 257.371 107.843Z" fill="#FFD8BF"/>
<path d="M256.209 73.0228L257.13 72.7256C257.13 72.7256 260.05 74.5851 259.772 79.081C259.772 79.081 259.881 81.4074 259.777 82.9557C259.657 84.7316 261.264 102.379 261.264 102.379H256.06L253.83 86.3978L256.209 73.0228Z" fill="#FA8C16"/>
<path d="M253.191 61.711C253.191 62.8834 252.84 64.0295 252.184 65.0044C251.528 65.9792 250.595 66.739 249.503 67.1876C248.411 67.6363 247.21 67.7537 246.051 67.525C244.892 67.2962 243.828 66.7317 242.992 65.9026C242.157 65.0736 241.588 64.0174 241.357 62.8675C241.127 61.7176 241.245 60.5257 241.697 59.4426C242.15 58.3594 242.915 57.4336 243.898 56.7822C244.88 56.1309 246.035 55.7832 247.217 55.7832C247.999 55.7813 248.775 55.9323 249.498 56.2277C250.222 56.523 250.88 56.957 251.435 57.5047C251.99 58.0524 252.43 58.7031 252.732 59.4198C253.033 60.1365 253.189 60.905 253.191 61.6815C253.191 61.6913 253.191 61.7012 253.191 61.711Z" fill="#FFD8BF"/>
<path d="M241.263 53.7488C241.963 52.2556 243.317 52.5508 244.501 53.057C246.001 52.7268 247.428 51.7385 249.044 52.323C250.636 54.6204 255.98 53.9445 254.843 57.6846C254.842 58.5809 256.543 58.0592 256.246 59.527C257.147 62.3518 252.993 67.7015 250.609 66.575C251.198 65.5025 252.546 63.0666 250.502 62.825C246.107 66.8831 250.049 55.0973 244.526 58.5248C242.697 60.1853 240.194 55.4097 241.263 53.7488Z" fill="#262626"/>
</g>
<defs>
<clipPath id="clip0_179553_172467">
<rect width="295" height="156" fill="white"/>
</clipPath>
</defs>
</svg>
