<svg width="456" height="273" viewBox="0 0 456 273" fill="none" xmlns="http://www.w3.org/2000/svg">
<path d="M12.5397 0.0328716C11.9449 0.0761298 11.356 0.161802 10.7766 0.288286L10.8833 0.776781C10.3257 0.898499 9.77717 1.05962 9.2411 1.25864L9.06707 0.789904C8.51168 0.996104 7.96935 1.24133 7.44364 1.52399L7.68042 1.96437C7.17997 2.23345 6.69493 2.53794 6.22864 2.87642L5.93492 2.47179C5.45804 2.81796 5.00029 3.19819 4.56496 3.61101L4.909 3.97382C4.70222 4.16991 4.50062 4.37369 4.30459 4.58499C4.1 4.80552 3.9029 5.03272 3.71348 5.26613L3.32524 4.95106C2.93245 5.43507 2.5717 5.9446 2.24449 6.47578L2.6702 6.73802C2.355 7.24971 2.07188 7.78242 1.82234 8.33249L1.367 8.12591C1.11025 8.69186 0.887964 9.27532 0.701599 9.8725L1.1789 10.0215C0.999997 10.5947 0.855275 11.1812 0.74614 11.7773L0.254314 11.6873C0.142633 12.2973 0.0670393 12.9169 0.0289121 13.5427L0.527987 13.5731C0.509696 13.8732 0.500312 14.1749 0.5 14.4775V15.4775H0V17.4778H0.5V19.4782H0V21.4786H0.5V23.4789H0V25.4793H0.5V27.4797H0V29.4801H0.5V31.4804H0V33.4808H0.5V35.4812H0V37.4816H0.5V39.4819H0V41.4823H0.5V43.4827H0V45.483H0.5V47.4834H0V49.4838H0.5V51.4842H0V53.4845H0.5V55.4849H0V57.4853H0.5V59.4857H0V61.486H0.5V63.4864H0V65.4868H0.5V67.4872H0V69.4875H0.5V71.4879H0V73.4883H0.5V75.4886H0V77.489H0.5V79.4894H0V81.4898H0.5V83.4901H0V85.4905H0.5V87.4909H0V89.4913H0.5V91.4916H0V93.492H0.5V95.4924H0V97.4928H0.5V99.4931H0V101.494H0.5V103.494H0V105.494H0.5V107.495H0V109.495H0.5V111.495H0V113.496H0.5V115.496H0V117.496H0.5V119.497H0V121.497H0.5V123.498H0V125.498H0.5V127.498H0V129.499H0.5V131.499H0V133.499H0.5V135.5H0V137.5H0.5V139.501H0V141.501H0.5V143.501H0V145.502H0.5V147.502H0V149.502H0.5V151.503H0V153.503H0.5V155.504H0V157.504H0.5V159.504H0V161.505H0.5V163.505H0V165.505H0.5V167.506H0V169.506H0.5V171.506H0V173.507H0.5V175.507H0V177.508H0.5V179.508H0V181.508H0.5V183.509H0V185.509H0.5V187.509H0V189.51H0.5V191.51H0V193.51H0.5V195.511H0V197.511H0.5V199.512H0V201.512H0.5V203.512H0V205.513H0.5V207.513H0V209.513H0.5V211.514H0V213.514H0.5V215.515H0V217.515H0.5V219.515H0V221.516H0.5V223.516H0V225.516H0.5V227.517H0V229.517H0.5V231.517H0V233.518H0.5V235.518H0V237.519H0.5V239.519H0V241.519H0.5V243.52H0V245.52H0.5V247.52H0V249.521H0.5V251.521H0V253.521H0.5V255.522H0V257.522H0.5V258.522C0.500312 258.825 0.509696 259.127 0.527986 259.427L0.028912 259.457C0.0670389 260.083 0.142632 260.703 0.254312 261.313L0.746139 261.223C0.855274 261.819 0.999996 262.405 1.1789 262.979L0.701598 263.128C0.887962 263.725 1.11025 264.308 1.367 264.874L1.82234 264.667C2.07188 265.218 2.355 265.75 2.67021 266.262L2.2445 266.524C2.5717 267.055 2.93245 267.565 3.32524 268.049L3.71348 267.734C3.9029 267.967 4.1 268.194 4.30459 268.415C4.50062 268.626 4.70222 268.83 4.909 269.026L4.56496 269.389C5.00029 269.802 5.45804 270.182 5.93491 270.528L6.22864 270.124C6.69493 270.462 7.17997 270.767 7.68042 271.036L7.44364 271.476C7.96935 271.759 8.51168 272.004 9.06707 272.21L9.2411 271.741C9.77717 271.94 10.3257 272.102 10.8833 272.223L10.7766 272.712C11.356 272.838 11.9449 272.924 12.5397 272.967L12.576 272.468C12.8598 272.489 13.145 272.5 13.4312 272.5H14.4332V273H16.4386V272.5H18.4439V273H20.4492V272.5H22.4545V273H24.4598V272.5H26.4652V273H28.4705V272.5H30.4758V273H32.4811V272.5H34.4865V273H36.4918V272.5H38.4971V273H40.5024V272.5H42.5077V273H44.5131V272.5H46.5184V273H48.5237V272.5H50.529V273H52.5343V272.5H54.5397V273H56.545V272.5H58.5503V273H60.5556V272.5H62.561V273H64.5663V272.5H66.5716V273H68.5769V272.5H70.5822V273H72.5876V272.5H74.5929V273H76.5982V272.5H78.6035V273H80.6088V272.5H82.6142V273H84.6195V272.5H86.6248V273H88.6301V272.5H90.6355V273H92.6408V272.5H94.6461V273H96.6514V272.5H98.6568V273H100.662V272.5H102.667V273H104.673V272.5H106.678V273H108.683V272.5H110.689V273H112.694V272.5H114.699V273H116.705V272.5H118.71V273H120.715V272.5H122.721V273H124.726V272.5H126.731V273H128.737V272.5H130.742V273H132.747V272.5H134.753V273H136.758V272.5H138.763V273H140.769V272.5H142.774V273H144.779V272.5H146.785V273H148.79V272.5H150.795V273H152.801V272.5H154.806V273H156.811V272.5H158.817V273H160.822V272.5H162.827V273H164.833V272.5H166.838V273H168.843V272.5H170.848V273H172.854V272.5H174.859V273H176.864V272.5H178.87V273H180.875V272.5H182.88V273H184.886V272.5H186.891V273H188.896V272.5H190.902V273H192.907V272.5H194.912V273H196.918V272.5H198.923V273H200.928V272.5H202.934V273H204.939V272.5H206.944V273H208.95V272.5H210.955V273H212.96V272.5H214.966V273H216.971V272.5H218.976V273H220.982V272.5H222.987V273H224.992V272.5H226.998V273H229.003V272.5H231.008V273H233.014V272.5H235.019V273H237.024V272.5H239.03V273H241.035V272.5H243.04V273H245.046V272.5H247.051V273H249.056V272.5H251.061V273H253.067V272.5H255.072V273H257.077V272.5H259.083V273H261.088V272.5H263.093V273H265.099V272.5H267.104V273H269.109V272.5H271.115V273H273.12V272.5H275.125V273H277.131V272.5H279.136V273H281.141V272.5H283.147V273H285.152V272.5H287.157V273H289.163V272.5H291.168V273H293.173V272.5H295.178V273H297.184V272.5H299.189V273H301.194V272.5H303.2V273H305.205V272.5H307.21V273H309.216V272.5H311.221V273H313.226V272.5H315.232V273H317.237V272.5H319.242V273H321.247V272.5H323.253V273H325.258V272.5H327.263V273H329.269V272.5H331.274V273H333.279V272.5H335.285V273H337.29V272.5H339.295V273H341.301V272.5H343.306V273H345.311V272.5H347.317V273H349.322V272.5H351.327V273H353.332V272.5H355.338V273H357.343V272.5H359.348V273H361.354V272.5H363.359V273H365.364V272.5H367.37V273H369.375V272.5H371.38V273H373.386V272.5H375.391V273H377.396V272.5H379.401V273H381.407V272.5H383.412V273H385.417V272.5H387.423V273H389.428V272.5H391.433V273H393.439V272.5H395.444V273H397.449V272.5H399.455V273H401.46V272.5H403.465V273H405.471V272.5H407.476V273H409.481V272.5H411.486V273H413.492V272.5H415.497V273H417.502V272.5H419.508V273H421.513V272.5H423.518V273H425.524V272.5H427.529V273H429.534V272.5H431.54V273H433.545V272.5H435.55V273H437.556V272.5H439.561V273H441.566V272.5H442.569C442.855 272.5 443.14 272.489 443.424 272.468L443.46 272.967C444.055 272.924 444.644 272.838 445.223 272.712L445.117 272.223C445.674 272.102 446.223 271.94 446.759 271.741L446.933 272.21C447.488 272.004 448.031 271.759 448.556 271.476L448.32 271.036C448.82 270.767 449.305 270.462 449.771 270.124L450.065 270.528C450.542 270.182 451 269.802 451.435 269.389L451.091 269.026C451.298 268.83 451.499 268.626 451.695 268.415C451.9 268.194 452.097 267.967 452.287 267.734L452.675 268.049C453.068 267.565 453.428 267.055 453.755 266.524L453.33 266.262C453.645 265.75 453.928 265.218 454.178 264.667L454.633 264.874C454.89 264.308 455.112 263.725 455.298 263.128L454.821 262.979C455 262.405 455.145 261.819 455.254 261.223L455.746 261.313C455.857 260.703 455.933 260.083 455.971 259.457L455.472 259.427C455.49 259.127 455.5 258.825 455.5 258.522V257.523H456V255.522H455.5V253.522H456V251.521H455.5V249.521H456V247.521H455.5V245.52H456V243.52H455.5V241.52H456V239.519H455.5V237.519H456V235.518H455.5V233.518H456V231.518H455.5V229.517H456V227.517H455.5V225.517H456V223.516H455.5V221.516H456V219.515H455.5V217.515H456V215.515H455.5V213.514H456V211.514H455.5V209.514H456V207.513H455.5V205.513H456V203.512H455.5V201.512H456V199.512H455.5V197.511H456V195.511H455.5V193.511H456V191.51H455.5V189.51H456V187.509H455.5V185.509H456V183.509H455.5V181.508H456V179.508H455.5V177.508H456V175.507H455.5V173.507H456V171.506H455.5V169.506H456V167.506H455.5V165.505H456V163.505H455.5V161.505H456V159.504H455.5V157.504H456V155.503H455.5V153.503H456V151.503H455.5V149.502H456V147.502H455.5V145.502H456V143.501H455.5V141.501H456V139.501H455.5V137.5H456V135.5H455.5V133.499H456V131.499H455.5V129.499H456V127.498H455.5V125.498H456V123.498H455.5V121.497H456V119.497H455.5V117.496H456V115.496H455.5V113.496H456V111.495H455.5V109.495H456V107.495H455.5V105.494H456V103.494H455.5V101.494H456V99.4931H455.5V97.4928H456V95.4924H455.5V93.4921H456V91.4917H455.5V89.4913H456V87.491H455.5V85.4906H456V83.4902H455.5V81.4899H456V79.4895H455.5V77.4891H456V75.4888H455.5V73.4884H456V71.488H455.5V69.4877H456V67.4873H455.5V65.4869H456V63.4866H455.5V61.4862H456V59.4858H455.5V57.4855H456V55.4851H455.5V53.4847H456V51.4844H455.5V49.484H456V47.4836H455.5V45.4833H456V43.4829H455.5V41.4825H456V39.4822H455.5V37.4818H456V35.4814H455.5V33.4811H456V31.4807H455.5V29.4803H456V27.48H455.5V25.4796H456V23.4792H455.5V21.4789H456V19.4785H455.5V17.4781H456V15.4778H455.5V14.4778C455.5 14.175 455.49 13.8733 455.472 13.5731L455.971 13.5427C455.933 12.9169 455.857 12.2973 455.746 11.6873L455.254 11.7773C455.145 11.1812 455 10.5947 454.821 10.0215L455.298 9.8725C455.112 9.27532 454.89 8.69186 454.633 8.12591L454.178 8.33249C453.928 7.78242 453.645 7.24971 453.33 6.73802L453.755 6.47578C453.428 5.94461 453.068 5.43508 452.675 4.95107L452.287 5.26613C452.097 5.03272 451.9 4.80552 451.695 4.58499C451.499 4.37368 451.298 4.16991 451.091 3.97382L451.435 3.61101C451 3.19819 450.542 2.81796 450.065 2.47179L449.771 2.87642C449.305 2.53794 448.82 2.23345 448.32 1.96437L448.556 1.52399C448.031 1.24133 447.488 0.996101 446.933 0.789902L446.759 1.25864C446.223 1.05962 445.674 0.8985 445.117 0.776781L445.223 0.288286C444.644 0.161802 444.055 0.0761307 443.46 0.0328723L443.424 0.531555C443.14 0.510926 442.855 0.500344 442.569 0.5H441.567V0H439.561V0.5H437.556V0H435.551V0.5H433.545V0H431.54V0.5H429.535V0H427.529V0.5H425.524V0H423.519V0.5H421.514V0H419.508V0.5H417.503V0H415.498V0.5H413.492V0H411.487V0.5H409.482V0H407.476V0.5H405.471V0H403.466V0.5H401.46V0H399.455V0.5H397.45V0H395.444V0.5H393.439V0H391.434V0.5H389.428V0H387.423V0.5H385.418V0H383.412V0.5H381.407V0H379.402V0.5H377.396V0H375.391V0.5H373.386V0H371.38V0.5H369.375V0H367.37V0.5H365.365V0H363.359V0.5H361.354V0H359.349V0.5H357.343V0H355.338V0.5H353.333V0H351.327V0.5H349.322V0H347.317V0.5H345.311V0H343.306V0.5H341.301V0H339.295V0.5H337.29V0H335.285V0.5H333.279V0H331.274V0.5H329.269V0H327.263V0.5H325.258V0H323.253V0.5H321.247V0H319.242V0.5H317.237V0H315.231V0.5H313.226V0H311.221V0.5H309.215V0H307.21V0.5H305.205V0H303.199V0.5H301.194V0H299.189V0.5H297.183V0H295.178V0.5H293.173V0H291.167V0.5H289.162V0H287.157V0.5H285.151V0H283.146V0.5H281.141V0H279.136V0.5H277.13V0H275.125V0.5H273.12V0H271.114V0.5H269.109V0H267.104V0.5H265.098V0H263.093V0.5H261.088V0H259.082V0.5H257.077V0H255.072V0.5H253.066V0H251.061V0.5H249.056V0H247.05V0.5H245.045V0H243.04V0.5H241.034V0H239.029V0.5H237.024V0H235.018V0.5H233.013V0H231.008V0.5H229.002V0H226.997V0.5H224.992V0H222.986V0.5H220.981V0H218.976V0.5H216.97V0H214.965V0.5H212.96V0H210.954V0.5H208.949V0H206.944V0.5H204.938V0H202.933V0.5H200.928V0H198.922V0.5H196.917V0H194.912V0.5H192.907V0H190.901V0.5H188.896V0H186.891V0.5H184.885V0H182.88V0.5H180.875V0H178.869V0.5H176.864V0H174.859V0.5H172.853V0H170.848V0.5H168.843V0H166.837V0.5H164.832V0H162.827V0.5H160.822V0H158.816V0.5H156.811V0H154.806V0.5H152.8V0H150.795V0.5H148.79V0H146.784V0.5H144.779V0H142.774V0.5H140.768V0H138.763V0.5H136.758V0H134.752V0.5H132.747V0H130.742V0.5H128.737V0H126.731V0.5H124.726V0H122.721V0.5H120.715V0H118.71V0.5H116.705V0H114.699V0.5H112.694V0H110.689V0.5H108.683V0H106.678V0.5H104.673V0H102.668V0.5H100.662V0H98.6569V0.5H96.6516V0H94.6463V0.5H92.641V0H90.6357V0.5H88.6303V0H86.625V0.5H84.6197V0H82.6144V0.5H80.6091V0H78.6038V0.5H76.5985V0H74.5932V0.5H72.5879V0H70.5826V0.5H68.5772V0H66.5719V0.5H64.5666V0H62.5613V0.5H60.556V0H58.5507V0.5H56.5454V0H54.5401V0.5H52.5348V0H50.5295V0.5H48.5241V0H46.5188V0.5H44.5135V0H42.5082V0.5H40.5029V0H38.4976V0.5H36.4923V0H34.487V0.5H32.4817V0H30.4764V0.5H28.471V0H26.4657V0.5H24.4604V0H22.4551V0.5H20.4498V0H18.4445V0.5H16.4392V0H14.4339V0.5H13.4309C13.1448 0.500344 12.8597 0.510925 12.576 0.531555L12.5397 0.0328716ZM0.779102 258.523L0.779103 258.523C0.779348 258.816 0.78838 259.108 0.806041 259.399L1.30512 259.368C1.33953 259.935 1.40784 260.495 1.50882 261.047L1.01698 261.137C1.12258 261.714 1.26269 262.283 1.43602 262.838L1.91333 262.689C2.0819 263.23 2.28297 263.758 2.51525 264.27L2.0599 264.476C2.30204 265.01 2.57698 265.527 2.8834 266.025L3.30911 265.763C3.60515 266.243 3.93155 266.704 4.28695 267.142L3.89871 267.457C4.08323 267.685 4.27534 267.906 4.47485 268.121C4.76229 268.431 5.06229 268.725 5.37359 269.001L5.7057 268.628C6.31635 269.17 6.9717 269.645 7.66146 270.046L7.40989 270.478C8.14117 270.904 8.91008 271.251 9.70534 271.515L9.86284 271.041C10.6282 271.295 11.4186 271.468 12.2229 271.555L12.169 272.052C12.5862 272.098 13.0071 272.121 13.4301 272.121H13.4306H14.4339V271.621H16.4392V272.121H18.4445V271.621H20.4498V272.121H22.4551V271.621H24.4604V272.121H26.4657V271.621H28.471V272.121H30.4764V271.621H32.4817V272.121H34.487V271.621H36.4923V272.121H38.4976V271.621H40.5029V272.121H42.5082V271.621H44.5135V272.121H46.5188V271.621H48.5241V272.121H50.5295V271.621H52.5348V272.121H54.5401V271.621H56.5454V272.121H58.5507V271.621H60.556V272.121H62.5613V271.621H64.5666V272.121H66.5719V271.621H68.5772V272.121H70.5826V271.621H72.5879V272.121H74.5932V271.621H76.5985V272.121H78.6038V271.621H80.6091V272.121H82.6144V271.621H84.6197V272.121H86.625V271.621H88.6303V272.121H90.6357V271.621H92.641V272.121H94.6463V271.621H96.6516V272.121H98.6569V271.621H100.662V272.121H102.668V271.621H104.673V272.121H106.678V271.621H108.683V272.121H110.689V271.621H112.694V272.121H114.699V271.621H116.705V272.121H118.71V271.621H120.715V272.121H122.721V271.621H124.726V272.121H126.731V271.621H128.737V272.121H130.742V271.621H132.747V272.121H134.752V271.621H136.758V272.121H138.763V271.621H140.768V272.121H142.774V271.621H144.779V272.121H146.784V271.621H148.79V272.121H150.795V271.621H152.8V272.121H154.806V271.621H156.811V272.121H158.816V271.621H160.822V272.121H162.827V271.621H164.832V272.121H166.837V271.621H168.843V272.121H170.848V271.621H172.853V272.121H174.859V271.621H176.864V272.121H178.869V271.621H180.875V272.121H182.88V271.621H184.885V272.121H186.891V271.621H188.896V272.121H190.901V271.621H192.907V272.121H194.912V271.621H196.917V272.121H198.922V271.621H200.928V272.121H202.933V271.621H204.938V272.121H206.944V271.621H208.949V272.121H210.954V271.621H212.96V272.121H214.965V271.621H216.97V272.121H218.976V271.621H220.981V272.121H222.986V271.621H224.992V272.121H226.997V271.621H229.002V272.121H231.008V271.621H233.013V272.121H235.018V271.621H237.024V272.121H239.029V271.621H241.034V272.121H243.04V271.621H245.045V272.121H247.05V271.621H249.056V272.121H251.061V271.621H253.066V272.121H255.072V271.621H257.077V272.121H259.082V271.621H261.088V272.121H263.093V271.621H265.098V272.121H267.104V271.621H269.109V272.121H271.114V271.621H273.12V272.121H275.125V271.621H277.13V272.121H279.136V271.621H281.141V272.121H283.146V271.621H285.151V272.121H287.157V271.621H289.162V272.121H291.167V271.621H293.173V272.121H295.178V271.621H297.183V272.121H299.189V271.621H301.194V272.121H303.199V271.621H305.205V272.121H307.21V271.621H309.215V272.121H311.221V271.621H313.226V272.121H315.231V271.621H317.237V272.121H319.242V271.621H321.247V272.121H323.253V271.621H325.258V272.121H327.263V271.621H329.269V272.121H331.274V271.621H333.279V272.121H335.285V271.621H337.29V272.121H339.295V271.621H341.301V272.121H343.306V271.621H345.311V272.121H347.317V271.621H349.322V272.121H351.327V271.621H353.333V272.121H355.338V271.621H357.343V272.121H359.349V271.621H361.354V272.121H363.359V271.621H365.365V272.121H367.37V271.621H369.375V272.121H371.38V271.621H373.386V272.121H375.391V271.621H377.396V272.121H379.402V271.621H381.407V272.121H383.412V271.621H385.418V272.121H387.423V271.621H389.428V272.121H391.434V271.621H393.439V272.121H395.444V271.621H397.45V272.121H399.455V271.621H401.46V272.121H403.466V271.621H405.471V272.121H407.476V271.621H409.482V272.121H411.487V271.621H413.492V272.121H415.498V271.621H417.503V272.121H419.508V271.621H421.514V272.121H423.519V271.621H425.524V272.121H427.529V271.621H429.535V272.121H431.54V271.621H433.545V272.121H435.551V271.621H437.556V272.121H439.561V271.621H441.567V272.121H442.569H442.57C442.993 272.121 443.414 272.098 443.831 272.052L443.777 271.555C444.581 271.468 445.372 271.295 446.137 271.041L446.295 271.515C447.09 271.251 447.859 270.904 448.59 270.478L448.339 270.046C449.028 269.645 449.684 269.17 450.294 268.628L450.626 269.001C450.938 268.725 451.238 268.431 451.525 268.121C451.725 267.906 451.917 267.685 452.101 267.457L451.713 267.142C452.068 266.704 452.395 266.243 452.691 265.763L453.117 266.025C453.423 265.527 453.698 265.01 453.94 264.476L453.485 264.27C453.717 263.758 453.918 263.23 454.087 262.689L454.564 262.838C454.737 262.283 454.877 261.714 454.983 261.137L454.491 261.047C454.592 260.495 454.66 259.935 454.695 259.368L455.194 259.399C455.212 259.108 455.221 258.816 455.221 258.523V257.522H454.721V255.522H455.221V253.521H454.721V251.521H455.221V249.521H454.721V247.52H455.221V245.52H454.721V243.52H455.221V241.519H454.721V239.519H455.221V237.519H454.721V235.518H455.221V233.518H454.721V231.517H455.221V229.517H454.721V227.517H455.221V225.516H454.721V223.516H455.221V221.516H454.721V219.515H455.221V217.515H454.721V215.515H455.221V213.514H454.721V211.514H455.221V209.513H454.721V207.513H455.221V205.513H454.721V203.512H455.221V201.512H454.721V199.512H455.221V197.511H454.721V195.511H455.221V193.51H454.721V191.51H455.221V189.51H454.721V187.509H455.221V185.509H454.721V183.509H455.221V181.508H454.721V179.508H455.221V177.508H454.721V175.507H455.221V173.507H454.721V171.506H455.221V169.506H454.721V167.506H455.221V165.505H454.721V163.505H455.221V161.505H454.721V159.504H455.221V157.504H454.721V155.504H455.221V153.503H454.721V151.503H455.221V149.502H454.721V147.502H455.221V145.502H454.721V143.501H455.221V141.501H454.721V139.501H455.221V137.5H454.721V135.5H455.221V133.499H454.721V131.499H455.221V129.499H454.721V127.498H455.221V125.498H454.721V123.498H455.221V121.497H454.721V119.497H455.221V117.496H454.721V115.496H455.221V113.496H454.721V111.495H455.221V109.495H454.721V107.495H455.221V105.494H454.721V103.494H455.221V101.494H454.721V99.4931H455.221V97.4928H454.721V95.4924H455.221V93.492H454.721V91.4916H455.221V89.4913H454.721V87.4909H455.221V85.4905H454.721V83.4901H455.221V81.4898H454.721V79.4894H455.221V77.489H454.721V75.4886H455.221V73.4883H454.721V71.4879H455.221V69.4875H454.721V67.4872H455.221V65.4868H454.721V63.4864H455.221V61.486H454.721V59.4857H455.221V57.4853H454.721V55.4849H455.221V53.4845H454.721V51.4842H455.221V49.4838H454.721V47.4834H455.221V45.483H454.721V43.4827H455.221V41.4823H454.721V39.4819H455.221V37.4816H454.721V35.4812H455.221V33.4808H454.721V31.4804H455.221V29.4801H454.721V27.4797H455.221V25.4793H454.721V23.4789H455.221V21.4786H454.721V19.4782H455.221V17.4778H454.721V15.4775H455.221V14.4773C455.221 14.1839 455.212 13.8919 455.194 13.6013L454.695 13.6316C454.66 13.0655 454.592 12.5048 454.491 11.9528L454.983 11.8628C454.877 11.2856 454.737 10.7174 454.564 10.1618L454.087 10.3107C453.918 9.77039 453.717 9.24245 453.485 8.73036L453.94 8.52382C453.698 7.98998 453.423 7.47251 453.117 6.97502L452.691 7.23724C452.395 6.75662 452.068 6.29558 451.713 5.85764L452.101 5.54257C451.917 5.31518 451.725 5.09372 451.525 4.87866C451.238 4.56882 450.938 4.27529 450.626 3.99868L450.294 4.37245C449.684 3.82985 449.028 3.35547 448.339 2.9539L448.59 2.5218C447.859 2.09605 447.09 1.74856 446.295 1.48461L446.137 1.95916C445.372 1.70512 444.581 1.532 443.777 1.44472L443.831 0.947639C443.414 0.902361 442.993 0.879201 442.57 0.878788H442.569H441.566V1.37879H439.561V0.878788H437.556V1.37879H435.55V0.878788H433.545V1.37879H431.54V0.878788H429.534V1.37879H427.529V0.878788H425.524V1.37879H423.518V0.878788H421.513V1.37879H419.508V0.878788H417.502V1.37879H415.497V0.878788H413.492V1.37879H411.486V0.878788H409.481V1.37879H407.476V0.878788H405.471V1.37879H403.465V0.878788H401.46V1.37879H399.455V0.878788H397.449V1.37879H395.444V0.878788H393.439V1.37879H391.433V0.878788H389.428V1.37879H387.423V0.878788H385.417V1.37879H383.412V0.878788H381.407V1.37879H379.401V0.878788H377.396V1.37879H375.391V0.878788H373.386V1.37879H371.38V0.878788H369.375V1.37879H367.37V0.878788H365.364V1.37879H363.359V0.878788H361.354V1.37879H359.348V0.878788H357.343V1.37879H355.338V0.878788H353.332V1.37879H351.327V0.878788H349.322V1.37879H347.317V0.878788H345.311V1.37879H343.306V0.878788H341.301V1.37879H339.295V0.878788H337.29V1.37879H335.285V0.878788H333.279V1.37879H331.274V0.878788H329.269V1.37879H327.263V0.878788H325.258V1.37879H323.253V0.878788H321.247V1.37879H319.242V0.878788H317.237V1.37879H315.232V0.878788H313.226V1.37879H311.221V0.878788H309.216V1.37879H307.21V0.878788H305.205V1.37879H303.2V0.878788H301.194V1.37879H299.189V0.878788H297.184V1.37879H295.178V0.878788H293.173V1.37879H291.168V0.878788H289.163V1.37879H287.157V0.878788H285.152V1.37879H283.147V0.878788H281.141V1.37879H279.136V0.878788H277.131V1.37879H275.125V0.878788H273.12V1.37879H271.115V0.878788H269.109V1.37879H267.104V0.878788H265.099V1.37879H263.093V0.878788H261.088V1.37879H259.083V0.878788H257.077V1.37879H255.072V0.878788H253.067V1.37879H251.061V0.878788H249.056V1.37879H247.051V0.878788H245.046V1.37879H243.04V0.878788H241.035V1.37879H239.03V0.878788H237.024V1.37879H235.019V0.878788H233.014V1.37879H231.008V0.878788H229.003V1.37879H226.998V0.878788H224.992V1.37879H222.987V0.878788H220.982V1.37879H218.976V0.878788H216.971V1.37879H214.966V0.878788H212.96V1.37879H210.955V0.878788H208.95V1.37879H206.944V0.878788H204.939V1.37879H202.934V0.878788H200.928V1.37879H198.923V0.878788H196.918V1.37879H194.912V0.878788H192.907V1.37879H190.902V0.878788H188.896V1.37879H186.891V0.878788H184.886V1.37879H182.88V0.878788H180.875V1.37879H178.87V0.878788H176.864V1.37879H174.859V0.878788H172.854V1.37879H170.848V0.878788H168.843V1.37879H166.838V0.878788H164.833V1.37879H162.827V0.878788H160.822V1.37879H158.817V0.878788H156.811V1.37879H154.806V0.878788H152.801V1.37879H150.795V0.878788H148.79V1.37879H146.785V0.878788H144.779V1.37879H142.774V0.878788H140.769V1.37879H138.763V0.878788H136.758V1.37879H134.753V0.878788H132.747V1.37879H130.742V0.878788H128.737V1.37879H126.731V0.878788H124.726V1.37879H122.721V0.878788H120.715V1.37879H118.71V0.878788H116.705V1.37879H114.699V0.878788H112.694V1.37879H110.689V0.878788H108.683V1.37879H106.678V0.878788H104.673V1.37879H102.667V0.878788H100.662V1.37879H98.6568V0.878788H96.6514V1.37879H94.6461V0.878788H92.6408V1.37879H90.6355V0.878788H88.6301V1.37879H86.6248V0.878788H84.6195V1.37879H82.6142V0.878788H80.6088V1.37879H78.6035V0.878788H76.5982V1.37879H74.5929V0.878788H72.5876V1.37879H70.5822V0.878788H68.5769V1.37879H66.5716V0.878788H64.5663V1.37879H62.561V0.878788H60.5556V1.37879H58.5503V0.878788H56.545V1.37879H54.5397V0.878788H52.5343V1.37879H50.529V0.878788H48.5237V1.37879H46.5184V0.878788H44.5131V1.37879H42.5077V0.878788H40.5024V1.37879H38.4971V0.878788H36.4918V1.37879H34.4865V0.878788H32.4811V1.37879H30.4758V0.878788H28.4705V1.37879H26.4652V0.878788H24.4598V1.37879H22.4545V0.878788H20.4492V1.37879H18.4439V0.878788H16.4386V1.37879H14.4332V0.878788L13.4306 0.878788L13.4301 0.878788C13.0071 0.879201 12.5862 0.902361 12.169 0.947639L12.2229 1.44472C11.4186 1.532 10.6282 1.70512 9.86284 1.95915L9.70534 1.48461C8.91008 1.74856 8.14117 2.09605 7.40989 2.5218L7.66145 2.9539C6.9717 3.35547 6.31635 3.82986 5.7057 4.37245L5.37359 3.99869C5.06229 4.27529 4.76229 4.56882 4.47485 4.87866C4.27534 5.09372 4.08323 5.31518 3.89871 5.54257L4.28695 5.85763C3.93155 6.29558 3.60516 6.75662 3.30912 7.23724L2.8834 6.97502C2.57698 7.47251 2.30204 7.98998 2.0599 8.52382L2.51525 8.73036C2.28298 9.24245 2.0819 9.77038 1.91333 10.3107L1.43602 10.1618C1.26269 10.7174 1.12258 11.2856 1.01698 11.8628L1.50882 11.9528C1.40784 12.5048 1.33953 13.0655 1.30512 13.6316L0.806041 13.6013C0.78838 13.8919 0.779348 14.1839 0.779102 14.4769V14.4773V15.4778H1.2791V17.4781H0.779102V19.4785H1.2791V21.4789H0.779102V23.4792H1.2791V25.4796H0.779102V27.48H1.2791V29.4803H0.779102V31.4807H1.2791V33.4811H0.779102V35.4814H1.2791V37.4818H0.779102V39.4822H1.2791V41.4825H0.779102V43.4829H1.2791V45.4833H0.779102V47.4836H1.2791V49.484H0.779102V51.4844H1.2791V53.4847H0.779102V55.4851H1.2791V57.4855H0.779102V59.4858H1.2791V61.4862H0.779102V63.4866H1.2791V65.4869H0.779102V67.4873H1.2791V69.4877H0.779102V71.488H1.2791V73.4884H0.779102V75.4888H1.2791V77.4891H0.779102V79.4895H1.2791V81.4899H0.779102V83.4902H1.2791V85.4906H0.779102V87.491H1.2791V89.4913H0.779102V91.4917H1.2791V93.4921H0.779102V95.4924H1.2791V97.4928H0.779102V99.4931H1.2791V101.494H0.779102V103.494H1.2791V105.494H0.779102V107.495H1.2791V109.495H0.779102V111.495H1.2791V113.496H0.779102V115.496H1.2791V117.496H0.779102V119.497H1.2791V121.497H0.779102V123.498H1.2791V125.498H0.779102V127.498H1.2791V129.499H0.779102V131.499H1.2791V133.499H0.779102V135.5H1.2791V137.5H0.779102V139.501H1.2791V141.501H0.779102V143.501H1.2791V145.502H0.779102V147.502H1.2791V149.502H0.779102V151.503H1.2791V153.503H0.779102V155.503H1.2791V157.504H0.779102V159.504H1.2791V161.505H0.779102V163.505H1.2791V165.505H0.779102V167.506H1.2791V169.506H0.779102V171.506H1.2791V173.507H0.779102V175.507H1.2791V177.508H0.779102V179.508H1.2791V181.508H0.779102V183.509H1.2791V185.509H0.779102V187.509H1.2791V189.51H0.779102V191.51H1.2791V193.511H0.779102V195.511H1.2791V197.511H0.779102V199.512H1.2791V201.512H0.779102V203.512H1.2791V205.513H0.779102V207.513H1.2791V209.514H0.779102V211.514H1.2791V213.514H0.779102V215.515H1.2791V217.515H0.779102V219.515H1.2791V221.516H0.779102V223.516H1.2791V225.517H0.779102V227.517H1.2791V229.517H0.779102V231.518H1.2791V233.518H0.779102V235.518H1.2791V237.519H0.779102V239.519H1.2791V241.52H0.779102V243.52H1.2791V245.52H0.779102V247.521H1.2791V249.521H0.779102V251.521H1.2791V253.522H0.779102V255.522H1.2791V257.523H0.779102L0.779102 258.523Z" stroke="#D9D9D9" stroke-dasharray="2 2"/>
<path d="M433.311 41H16.6886C16.506 41 16.3308 40.8947 16.2017 40.7071C16.0726 40.5196 16 40.2652 16 40C16 39.7348 16.0726 39.4804 16.2017 39.2929C16.3308 39.1054 16.506 39 16.6886 39H433.311C433.494 39 433.669 39.1054 433.798 39.2929C433.927 39.4804 434 39.7348 434 40C434 40.2652 433.927 40.5196 433.798 40.7071C433.669 40.8947 433.494 41 433.311 41Z" fill="#DBDBDB"/>
<path d="M120 259C119.735 259 119.48 258.922 119.293 258.784C119.105 258.646 119 258.458 119 258.263V15.7372C119 15.5417 119.105 15.3542 119.293 15.2159C119.48 15.0777 119.735 15 120 15C120.265 15 120.52 15.0777 120.707 15.2159C120.895 15.3542 121 15.5417 121 15.7372V258.263C121 258.458 120.895 258.646 120.707 258.784C120.52 258.922 120.265 259 120 259Z" fill="#DFDFDF"/>
<path d="M233 259C232.735 259 232.48 258.922 232.293 258.784C232.105 258.646 232 258.458 232 258.263V15.7372C232 15.5417 232.105 15.3542 232.293 15.2159C232.48 15.0777 232.735 15 233 15C233.265 15 233.52 15.0777 233.707 15.2159C233.895 15.3542 234 15.5417 234 15.7372V258.263C234 258.458 233.895 258.646 233.707 258.784C233.52 258.922 233.265 259 233 259Z" fill="#DFDFDF"/>
<path d="M343 259C342.735 259 342.48 258.922 342.293 258.784C342.105 258.646 342 258.458 342 258.263V15.7372C342 15.5417 342.105 15.3542 342.293 15.2159C342.48 15.0777 342.735 15 343 15C343.265 15 343.52 15.0777 343.707 15.2159C343.895 15.3542 344 15.5417 344 15.7372V258.263C344 258.458 343.895 258.646 343.707 258.784C343.52 258.922 343.265 259 343 259Z" fill="#DFDFDF"/>
<path d="M40.2031 106.454H39.7031V104.326H40.2031V102.198H39.7031V100.07H40.2031V97.9425H39.7031V95.8148H40.2031V93.687H39.7031V91.5593H40.2031V89.4315H39.7031V87.3038H40.2031V85.176H39.7031V83.0483H40.2031V80.9205H39.7031V78.7927H40.2031V77.7292C40.2033 77.5571 40.2205 77.3868 40.2536 77.2206L39.7632 77.1229C39.8429 76.7228 40.0003 76.3421 40.2264 76.0029L40.6424 76.2801C40.7365 76.139 40.8447 76.0065 40.9661 75.8847C41.0874 75.7631 41.2193 75.6547 41.3597 75.5605L41.0812 75.1453C41.4195 74.9184 41.7991 74.7605 42.1981 74.6805L42.2964 75.1707C42.462 75.1375 42.6317 75.1203 42.8032 75.1201H43.8516V74.6201H45.9491V75.1201H48.0466V74.6201H50.1442V75.1201H52.2417V74.6201H54.3392V75.1201H56.4367V74.6201H58.5342V75.1201H60.6317V74.6201H62.7292V75.1201H64.8267V74.6201H66.9242V75.1201H67.9727C68.1441 75.1203 68.3138 75.1375 68.4795 75.1707L68.5777 74.6805C68.9768 74.7605 69.3564 74.9184 69.6946 75.1453L69.4161 75.5605C69.5565 75.6547 69.6885 75.7631 69.8097 75.8847C69.9312 76.0065 70.0394 76.139 70.1334 76.2801L70.5495 76.0029C70.7756 76.3421 70.933 76.7228 71.0127 77.1229L70.5223 77.2206C70.5554 77.3869 70.5725 77.5573 70.5727 77.7294V78.7928H71.0727V80.9205H70.5727V83.0483H71.0727V85.176H70.5727V87.3038H71.0727V89.4315H70.5727V91.5593H71.0727V93.687H70.5727V95.8148H71.0727V97.9425H70.5727V100.07H71.0727V102.198H70.5727V104.326H71.0727V106.454H70.5727V107.517C70.5725 107.689 70.5554 107.859 70.5223 108.026L71.0127 108.123C70.933 108.524 70.7756 108.904 70.5495 109.243L70.1334 108.966C70.0394 109.107 69.9312 109.24 69.8097 109.362C69.6885 109.483 69.5565 109.592 69.4161 109.686L69.6946 110.101C69.3564 110.328 68.9768 110.486 68.5777 110.566L68.4795 110.076C68.3137 110.109 68.144 110.126 67.9724 110.126H66.9242V110.626H64.8267V110.126H62.7292V110.626H60.6317V110.126H58.5342V110.626H56.4367V110.126H54.3392V110.626H52.2417V110.126H50.1442V110.626H48.0467V110.126H45.9491V110.626H43.8516V110.126H42.8034C42.6319 110.126 42.4621 110.109 42.2964 110.076L42.1981 110.566C41.7991 110.486 41.4195 110.328 41.0812 110.101L41.3597 109.686C41.2193 109.592 41.0874 109.483 40.9661 109.362C40.8447 109.24 40.7365 109.107 40.6424 108.966L40.2264 109.243C40.0003 108.904 39.8429 108.523 39.7632 108.123L40.2536 108.026C40.2205 107.859 40.2033 107.689 40.2031 107.517V106.454Z" stroke="#FFA940" stroke-dasharray="2 2"/>
<path d="M76.0226 191.426H75.5226V189.298H76.0226V187.171H75.5226V185.043H76.0226V182.915H75.5226V180.787H76.0226V178.66H75.5226V176.532H76.0226V174.404H75.5226V172.276H76.0226V170.149H75.5226V168.021H76.0226V165.893H75.5226V163.765H76.0226V162.702C76.0228 162.53 76.0399 162.359 76.073 162.193L75.5826 162.096C75.6623 161.695 75.8197 161.315 76.0458 160.976L76.4619 161.253C76.5559 161.112 76.6641 160.979 76.7856 160.857C76.9068 160.736 77.0388 160.627 77.1792 160.533L76.9007 160.118C77.2389 159.891 77.6185 159.733 78.0176 159.653L78.1158 160.143C78.2815 160.11 78.4512 160.093 78.6226 160.093H79.6711V159.593H81.7686V160.093H83.8661V159.593H85.9636V160.093H88.0611V159.593H90.1586V160.093H92.2561V159.593H94.3536V160.093H96.4511V159.593H98.5486V160.093H100.646V159.593H102.744V160.093H103.792C103.964 160.093 104.133 160.11 104.299 160.143L104.397 159.653C104.796 159.733 105.176 159.891 105.514 160.118L105.236 160.533C105.376 160.627 105.508 160.736 105.629 160.857C105.751 160.979 105.859 161.112 105.953 161.253L106.369 160.976C106.595 161.315 106.752 161.695 106.832 162.096L106.342 162.193C106.375 162.36 106.392 162.53 106.392 162.702V163.765H106.892V165.893H106.392V168.021H106.892V170.149H106.392V172.276H106.892V174.404H106.392V176.532H106.892V178.66H106.392V180.787H106.892V182.915H106.392V185.043H106.892V187.171H106.392V189.298H106.892V191.426H106.392V192.49C106.392 192.662 106.375 192.832 106.342 192.998L106.832 193.096C106.752 193.496 106.595 193.877 106.369 194.216L105.953 193.939C105.859 194.08 105.751 194.212 105.629 194.334C105.508 194.456 105.376 194.564 105.236 194.658L105.514 195.074C105.176 195.3 104.796 195.458 104.397 195.538L104.299 195.048C104.133 195.081 103.963 195.099 103.792 195.099H102.744V195.599H100.646V195.099H98.5486V195.599H96.4511V195.099H94.3536V195.599H92.2561V195.099H90.1586V195.599H88.0611V195.099H85.9636V195.599H83.8661V195.099H81.7686V195.599H79.6711V195.099H78.6229C78.4513 195.099 78.2816 195.081 78.1158 195.048L78.0176 195.538C77.6185 195.458 77.2389 195.3 76.9007 195.074L77.1792 194.658C77.0388 194.564 76.9068 194.456 76.7856 194.334C76.6641 194.212 76.5559 194.08 76.4619 193.939L76.0458 194.216C75.8197 193.877 75.6623 193.496 75.5826 193.096L76.073 192.998C76.0399 192.832 76.0228 192.662 76.0226 192.49V191.426Z" stroke="#FFA940" stroke-dasharray="2 2"/>
<path d="M185.075 128.588H159.905C159.083 128.587 158.295 128.259 157.714 127.676C157.133 127.093 156.806 126.303 156.805 125.479V95.6905C156.806 94.8663 157.133 94.0761 157.714 93.4933C158.295 92.9105 159.083 92.5827 159.905 92.5818H185.075C185.897 92.5827 186.685 92.9105 187.266 93.4933C187.847 94.0761 188.174 94.8663 188.175 95.6905V125.479C188.174 126.303 187.847 127.093 187.266 127.676C186.685 128.259 185.897 128.587 185.075 128.588Z" fill="#FFA940"/>
<path d="M262.697 91.946H262.197V89.8182H262.697V87.6905H262.197V85.5627H262.697V83.4349H262.197V81.3072H262.697V79.1794H262.197V77.0517H262.697V74.9239H262.197V72.7962H262.697V70.6684H262.197V68.5407H262.697V66.4129H262.197V64.2852H262.697V63.2216C262.697 63.0495 262.715 62.8792 262.748 62.713L262.257 62.6153C262.337 62.2152 262.494 61.8345 262.72 61.4953L263.137 61.7726C263.231 61.6315 263.339 61.4989 263.46 61.3771C263.581 61.2555 263.713 61.1472 263.854 61.053L263.575 60.6377C263.914 60.4109 264.293 60.2529 264.692 60.1729L264.791 60.6632C264.956 60.6299 265.126 60.6128 265.297 60.6125H266.346V60.1125H268.443V60.6125H270.541V60.1125H272.638V60.6125H274.736V60.1125H276.833V60.6125H278.931V60.1125H281.028V60.6125H283.126V60.1125H285.223V60.6125H287.321V60.1125H289.418V60.6125H290.467C290.638 60.6128 290.808 60.6299 290.974 60.6632L291.072 60.1729C291.471 60.2529 291.85 60.4109 292.189 60.6377L291.91 61.053C292.051 61.1472 292.183 61.2555 292.304 61.3771C292.425 61.4989 292.533 61.6315 292.628 61.7726L293.044 61.4953C293.27 61.8345 293.427 62.2152 293.507 62.6153L293.016 62.713C293.05 62.8793 293.067 63.0497 293.067 63.2219V64.2852H293.567V66.4129H293.067V68.5407H293.567V70.6684H293.067V72.7962H293.567V74.924H293.067V77.0517H293.567V79.1795H293.067V81.3072H293.567V83.435H293.067V85.5627H293.567V87.6905H293.067V89.8182H293.567V91.946H293.067V93.0093C293.067 93.1815 293.05 93.3518 293.016 93.5182L293.507 93.6158C293.427 94.0159 293.27 94.3966 293.044 94.7358L292.628 94.4585C292.533 94.5997 292.425 94.7322 292.304 94.854C292.183 94.9756 292.051 95.084 291.91 95.1781L292.189 95.5934C291.85 95.8202 291.471 95.9782 291.072 96.0582L290.974 95.568C290.808 95.6012 290.638 95.6184 290.467 95.6186H289.418V96.1186H287.321V95.6186H285.223V96.1186H283.126V95.6186H281.028V96.1186H278.931V95.6186H276.833V96.1186H274.736V95.6186H272.638V96.1186H270.541V95.6186H268.443V96.1186H266.346V95.6186H265.298C265.126 95.6184 264.956 95.6012 264.791 95.568L264.692 96.0582C264.293 95.9782 263.914 95.8202 263.575 95.5934L263.854 95.1781C263.713 95.084 263.581 94.9756 263.46 94.854C263.339 94.7322 263.231 94.5996 263.137 94.4585L262.72 94.7358C262.494 94.3966 262.337 94.0159 262.257 93.6158L262.748 93.5181C262.715 93.3519 262.697 93.1816 262.697 93.0095V91.946Z" stroke="#FFA940" stroke-dasharray="2 2"/>
<path d="M387.593 96.1186H362.423C361.601 96.1177 360.813 95.7898 360.232 95.207C359.651 94.6242 359.324 93.834 359.323 93.0098V63.2213C359.324 62.3971 359.651 61.6069 360.232 61.0241C360.813 60.4413 361.601 60.1135 362.423 60.1125H387.593C388.415 60.1135 389.203 60.4413 389.784 61.0241C390.365 61.6069 390.692 62.3971 390.693 63.2213V93.0099C390.692 93.8341 390.365 94.6242 389.784 95.207C389.203 95.7898 388.415 96.1177 387.593 96.1186Z" fill="#FFA940"/>
<path d="M404.597 100.236H404.097V98.1082H404.597V95.9805H404.097V93.8527H404.597V91.725H404.097V89.5972H404.597V87.4695H404.097V85.3417H404.597V83.214H404.097V81.0862H404.597V78.9585H404.097V76.8307H404.597V74.703H404.097V72.5752H404.597V71.5116C404.598 71.3395 404.615 71.1693 404.648 71.003L404.157 70.9054C404.237 70.5053 404.395 70.1246 404.621 69.7854L405.037 70.0626C405.131 69.9215 405.239 69.789 405.36 69.6672C405.482 69.5456 405.614 69.4372 405.754 69.343L405.476 68.9278C405.814 68.7009 406.193 68.5429 406.592 68.4629L406.691 68.9532C406.856 68.92 407.026 68.9028 407.197 68.9026H408.246V68.4026H410.343V68.9026H412.441V68.4026H414.538V68.9026H416.636V68.4026H418.733V68.9026H420.831V68.4026H422.928V68.9026H425.026V68.4026H427.123V68.9026H429.221V68.4026H431.318V68.9026H432.367C432.538 68.9028 432.708 68.92 432.874 68.9532L432.972 68.4629C433.371 68.5429 433.751 68.7009 434.089 68.9278L433.81 69.343C433.951 69.4372 434.083 69.5456 434.204 69.6672C434.325 69.789 434.434 69.9215 434.528 70.0626L434.944 69.7854C435.17 70.1246 435.327 70.5053 435.407 70.9054L434.917 71.003C434.95 71.1694 434.967 71.3397 434.967 71.5119V72.5752H435.467V74.703H434.967V76.8307H435.467V78.9585H434.967V81.0862H435.467V83.214H434.967V85.3417H435.467V87.4695H434.967V89.5972H435.467V91.725H434.967V93.8528H435.467V95.9805H434.967V98.1083H435.467V100.236H434.967V101.299C434.967 101.472 434.95 101.642 434.917 101.808L435.407 101.906C435.327 102.306 435.17 102.687 434.944 103.026L434.528 102.749C434.434 102.89 434.325 103.022 434.204 103.144C434.083 103.266 433.951 103.374 433.81 103.468L434.089 103.883C433.751 104.11 433.371 104.268 432.972 104.348L432.874 103.858C432.708 103.891 432.538 103.908 432.367 103.909H431.318V104.409H429.221V103.909H427.123V104.409H425.026V103.909H422.928V104.409H420.831V103.909H418.733V104.409H416.636V103.909H414.538V104.409H412.441V103.909H410.343V104.409H408.246V103.909H407.198C407.026 103.908 406.856 103.891 406.691 103.858L406.592 104.348C406.193 104.268 405.814 104.11 405.476 103.883L405.754 103.468C405.614 103.374 405.482 103.266 405.36 103.144C405.239 103.022 405.131 102.89 405.037 102.749L404.621 103.026C404.395 102.687 404.237 102.306 404.157 101.906L404.648 101.808C404.615 101.642 404.598 101.472 404.597 101.3V100.236Z" stroke="#D9D9D9" stroke-dasharray="2 2"/>
<path d="M412.391 157.603H387.221C386.399 157.602 385.611 157.274 385.03 156.691C384.449 156.109 384.122 155.318 384.121 154.494V124.706C384.122 123.881 384.449 123.091 385.03 122.508C385.611 121.926 386.399 121.598 387.221 121.597H412.391C413.213 121.598 414.001 121.926 414.582 122.508C415.163 123.091 415.49 123.881 415.491 124.706V154.494C415.49 155.318 415.163 156.109 414.582 156.691C414.001 157.274 413.213 157.602 412.391 157.603Z" fill="#D9D9D9"/>
<path d="M326.975 146.549H301.805C300.983 146.549 300.195 146.221 299.614 145.638C299.033 145.055 298.706 144.265 298.705 143.441V113.652C298.706 112.828 299.033 112.038 299.614 111.455C300.195 110.872 300.983 110.544 301.805 110.543H326.975C327.797 110.544 328.585 110.872 329.166 111.455C329.747 112.038 330.074 112.828 330.075 113.652V143.441C330.074 144.265 329.747 145.055 329.166 145.638C328.585 146.221 327.797 146.549 326.975 146.549Z" fill="#FFD591"/>
<path d="M246.5 164.833H246V162.706H246.5V160.578H246V158.45H246.5V156.322H246V154.195H246.5V152.067H246V149.939H246.5V147.811H246V145.684H246.5V143.556H246V141.428H246.5V139.3H246V137.173H246.5V136.109C246.5 135.937 246.517 135.767 246.55 135.6L246.06 135.503C246.14 135.103 246.297 134.722 246.523 134.383L246.939 134.66C247.033 134.519 247.142 134.386 247.263 134.265C247.384 134.143 247.516 134.035 247.657 133.94L247.378 133.525C247.716 133.298 248.096 133.14 248.495 133.06L248.593 133.551C248.759 133.517 248.929 133.5 249.1 133.5H250.149V133H252.246V133.5H254.344V133H256.441V133.5H258.539V133H260.636V133.5H262.734V133H264.831V133.5H266.929V133H269.026V133.5H271.124V133H273.221V133.5H274.27C274.441 133.5 274.611 133.517 274.776 133.551L274.875 133.06C275.274 133.14 275.653 133.298 275.991 133.525L275.713 133.94C275.853 134.035 275.985 134.143 276.107 134.265C276.228 134.386 276.336 134.519 276.43 134.66L276.846 134.383C277.072 134.722 277.23 135.103 277.309 135.503L276.819 135.6C276.852 135.767 276.869 135.937 276.87 136.109V137.173H277.37V139.3H276.87V141.428H277.37V143.556H276.87V145.684H277.37V147.811H276.87V149.939H277.37V152.067H276.87V154.195H277.37V156.322H276.87V158.45H277.37V160.578H276.87V162.706H277.37V164.833H276.87V165.897C276.869 166.069 276.852 166.239 276.819 166.406L277.309 166.503C277.23 166.903 277.072 167.284 276.846 167.623L276.43 167.346C276.336 167.487 276.228 167.62 276.107 167.741C275.985 167.863 275.853 167.971 275.713 168.066L275.991 168.481C275.653 168.708 275.274 168.866 274.875 168.946L274.776 168.455C274.611 168.489 274.441 168.506 274.269 168.506H273.221V169.006H271.124V168.506H269.026V169.006H266.929V168.506H264.831V169.006H262.734V168.506H260.636V169.006H258.539V168.506H256.441V169.006H254.344V168.506H252.246V169.006H250.149V168.506H249.1C248.929 168.506 248.759 168.489 248.593 168.455L248.495 168.946C248.096 168.866 247.716 168.708 247.378 168.481L247.657 168.066C247.516 167.971 247.384 167.863 247.263 167.741C247.142 167.62 247.033 167.487 246.939 167.346L246.523 167.623C246.297 167.284 246.14 166.903 246.06 166.503L246.55 166.406C246.517 166.239 246.5 166.069 246.5 165.897V164.833Z" stroke="#D9D9D9" stroke-dasharray="2 2"/>
<path d="M45.2414 165.202H20.0713C19.2495 165.201 18.4616 164.873 17.8805 164.291C17.2993 163.708 16.9725 162.918 16.9716 162.093V132.305C16.9725 131.481 17.2993 130.69 17.8805 130.108C18.4616 129.525 19.2495 129.197 20.0713 129.196H45.2414C46.0632 129.197 46.8511 129.525 47.4322 130.108C48.0134 130.69 48.3402 131.481 48.3411 132.305V162.093C48.3402 162.918 48.0134 163.708 47.4322 164.291C46.8511 164.873 46.0632 165.201 45.2414 165.202Z" fill="#FFD591"/>
<path d="M92.0615 29H35.9385C34.8939 29 33.8922 28.5786 33.1535 27.8284C32.4149 27.0783 32 26.0609 32 25C32 23.9391 32.4149 22.9217 33.1535 22.1716C33.8922 21.4214 34.8939 21 35.9385 21H92.0615C93.1061 21 94.1078 21.4214 94.8465 22.1716C95.5851 22.9217 96 23.9391 96 25C96 26.0609 95.5851 27.0783 94.8465 27.8284C94.1078 28.5786 93.1061 29 92.0615 29Z" fill="#CCD4E6"/>
<path d="M205.062 29H148.938C147.894 29 146.892 28.5786 146.154 27.8284C145.415 27.0783 145 26.0609 145 25C145 23.9391 145.415 22.9217 146.154 22.1716C146.892 21.4214 147.894 21 148.938 21H205.062C206.106 21 207.108 21.4214 207.846 22.1716C208.585 22.9217 209 23.9391 209 25C209 26.0609 208.585 27.0783 207.846 27.8284C207.108 28.5786 206.106 29 205.062 29Z" fill="#C9E6CE"/>
<path d="M316.062 29H259.938C258.894 29 257.892 28.5786 257.154 27.8284C256.415 27.0783 256 26.0609 256 25C256 23.9391 256.415 22.9217 257.154 22.1716C257.892 21.4214 258.894 21 259.938 21H316.062C317.106 21 318.108 21.4214 318.846 22.1716C319.585 22.9217 320 23.9391 320 25C320 26.0609 319.585 27.0783 318.846 27.8284C318.108 28.5786 317.106 29 316.062 29Z" fill="#D5A2A5"/>
<path d="M426.062 29H369.938C368.894 29 367.892 28.5786 367.154 27.8284C366.415 27.0783 366 26.0609 366 25C366 23.9391 366.415 22.9217 367.154 22.1716C367.892 21.4214 368.894 21 369.938 21H426.062C427.106 21 428.108 21.4214 428.846 22.1716C429.585 22.9217 430 23.9391 430 25C430 26.0609 429.585 27.0783 428.846 27.8284C428.108 28.5786 427.106 29 426.062 29Z" fill="#C1B4D8"/>
</svg>
