<svg width="266" height="140" viewBox="0 0 266 140" fill="none" xmlns="http://www.w3.org/2000/svg">
<rect width="266" height="140" fill="#FAFAFA"/>
<g clip-path="url(#clip0_180008_6399)">
<path d="M142.286 62.1388H123.714C123.319 62.1388 123 62.458 123 62.8531V77.1388C123 77.5339 123.319 77.8531 123.714 77.8531H142.286C142.681 77.8531 143 77.5339 143 77.1388V62.8531C143 62.458 142.681 62.1388 142.286 62.1388ZM141.393 76.2459H124.607V75.3553L127.699 71.6879L131.049 75.6611L136.261 69.4825L141.393 75.5674V76.2459ZM141.393 73.3486L136.397 67.4245C136.326 67.3397 136.196 67.3397 136.125 67.4245L131.049 73.4424L127.835 69.6321C127.763 69.5473 127.634 69.5473 127.562 69.6321L124.607 73.1366V63.7459H141.393V73.3486ZM128.357 68.7459C128.615 68.7459 128.871 68.6951 129.109 68.5964C129.347 68.4977 129.564 68.353 129.746 68.1706C129.929 67.9882 130.073 67.7717 130.172 67.5334C130.271 67.295 130.321 67.0396 130.321 66.7817C130.321 66.5237 130.271 66.2683 130.172 66.03C130.073 65.7916 129.929 65.5751 129.746 65.3927C129.564 65.2103 129.347 65.0656 129.109 64.9669C128.871 64.8682 128.615 64.8174 128.357 64.8174C127.836 64.8174 127.337 65.0243 126.968 65.3927C126.6 65.7611 126.393 66.2607 126.393 66.7817C126.393 67.3026 126.6 67.8022 126.968 68.1706C127.337 68.539 127.836 68.7459 128.357 68.7459V68.7459ZM128.357 66.1567C128.703 66.1567 128.982 66.4357 128.982 66.7817C128.982 67.1276 128.703 67.4067 128.357 67.4067C128.011 67.4067 127.732 67.1276 127.732 66.7817C127.732 66.4357 128.011 66.1567 128.357 66.1567Z" fill="#595959"/>
</g>
<defs>
<clipPath id="clip0_180008_6399">
<rect width="20" height="20" fill="white" transform="translate(123 60)"/>
</clipPath>
</defs>
</svg>
