<svg width="28" height="28" viewBox="0 0 28 28" fill="none" xmlns="http://www.w3.org/2000/svg">
<path d="M24.9375 5.25H8.96875C8.84844 5.25 8.75 5.34844 8.75 5.46875V7C8.75 7.12031 8.84844 7.21875 8.96875 7.21875H24.9375C25.0578 7.21875 25.1562 7.12031 25.1562 7V5.46875C25.1562 5.34844 25.0578 5.25 24.9375 5.25ZM24.9375 13.0156H8.96875C8.84844 13.0156 8.75 13.1141 8.75 13.2344V14.7656C8.75 14.8859 8.84844 14.9844 8.96875 14.9844H24.9375C25.0578 14.9844 25.1562 14.8859 25.1562 14.7656V13.2344C25.1562 13.1141 25.0578 13.0156 24.9375 13.0156ZM24.9375 20.7812H8.96875C8.84844 20.7812 8.75 20.8797 8.75 21V22.5312C8.75 22.6516 8.84844 22.75 8.96875 22.75H24.9375C25.0578 22.75 25.1562 22.6516 25.1562 22.5312V21C25.1562 20.8797 25.0578 20.7812 24.9375 20.7812ZM2.84375 6.23438C2.84375 6.43546 2.88336 6.63458 2.96031 6.82036C3.03726 7.00614 3.15005 7.17494 3.29224 7.31713C3.43443 7.45932 3.60324 7.57211 3.78902 7.64907C3.9748 7.72602 4.17391 7.76562 4.375 7.76562C4.57609 7.76562 4.7752 7.72602 4.96098 7.64907C5.14676 7.57211 5.31557 7.45932 5.45776 7.31713C5.59995 7.17494 5.71274 7.00614 5.78969 6.82036C5.86664 6.63458 5.90625 6.43546 5.90625 6.23438C5.90625 6.03329 5.86664 5.83417 5.78969 5.64839C5.71274 5.46261 5.59995 5.29381 5.45776 5.15162C5.31557 5.00943 5.14676 4.89664 4.96098 4.81968C4.7752 4.74273 4.57609 4.70313 4.375 4.70312C4.17391 4.70313 3.9748 4.74273 3.78902 4.81968C3.60324 4.89664 3.43443 5.00943 3.29224 5.15162C3.15005 5.29381 3.03726 5.46261 2.96031 5.64839C2.88336 5.83417 2.84375 6.03329 2.84375 6.23438ZM2.84375 14C2.84375 14.2011 2.88336 14.4002 2.96031 14.586C3.03726 14.7718 3.15005 14.9406 3.29224 15.0828C3.43443 15.2249 3.60324 15.3377 3.78902 15.4147C3.9748 15.4916 4.17391 15.5312 4.375 15.5312C4.57609 15.5312 4.7752 15.4916 4.96098 15.4147C5.14676 15.3377 5.31557 15.2249 5.45776 15.0828C5.59995 14.9406 5.71274 14.7718 5.78969 14.586C5.86664 14.4002 5.90625 14.2011 5.90625 14C5.90625 13.7989 5.86664 13.5998 5.78969 13.414C5.71274 13.2282 5.59995 13.0594 5.45776 12.9172C5.31557 12.7751 5.14676 12.6623 4.96098 12.5853C4.7752 12.5084 4.57609 12.4688 4.375 12.4688C4.17391 12.4688 3.9748 12.5084 3.78902 12.5853C3.60324 12.6623 3.43443 12.7751 3.29224 12.9172C3.15005 13.0594 3.03726 13.2282 2.96031 13.414C2.88336 13.5998 2.84375 13.7989 2.84375 14ZM2.84375 21.7656C2.84375 21.9667 2.88336 22.1658 2.96031 22.3516C3.03726 22.5374 3.15005 22.7062 3.29224 22.8484C3.43443 22.9906 3.60324 23.1034 3.78902 23.1803C3.9748 23.2573 4.17391 23.2969 4.375 23.2969C4.57609 23.2969 4.7752 23.2573 4.96098 23.1803C5.14676 23.1034 5.31557 22.9906 5.45776 22.8484C5.59995 22.7062 5.71274 22.5374 5.78969 22.3516C5.86664 22.1658 5.90625 21.9667 5.90625 21.7656C5.90625 21.5645 5.86664 21.3654 5.78969 21.1796C5.71274 20.9939 5.59995 20.8251 5.45776 20.6829C5.31557 20.5407 5.14676 20.4279 4.96098 20.3509C4.7752 20.274 4.57609 20.2344 4.375 20.2344C4.17391 20.2344 3.9748 20.274 3.78902 20.3509C3.60324 20.4279 3.43443 20.5407 3.29224 20.6829C3.15005 20.8251 3.03726 20.9939 2.96031 21.1796C2.88336 21.3654 2.84375 21.5645 2.84375 21.7656Z" fill="black" fill-opacity="0.85"/>
</svg>
