<svg width="36" height="36" viewBox="0 0 36 36" fill="none" xmlns="http://www.w3.org/2000/svg">
<g clip-path="url(#clip0_179636_172279)">
<path d="M34.7143 3.84979H1.28571C0.574554 3.84979 0 4.42435 0 5.13551V30.8498C0 31.561 0.574554 32.1355 1.28571 32.1355H34.7143C35.4254 32.1355 36 31.561 36 30.8498V5.13551C36 4.42435 35.4254 3.84979 34.7143 3.84979ZM2.89286 6.74265H33.1071V11.5641H2.89286V6.74265ZM33.1071 29.2427H2.89286V15.0998H33.1071V29.2427ZM23.5848 26.6712H30.2143C30.3911 26.6712 30.5357 26.5266 30.5357 26.3498V23.4569C30.5357 23.2802 30.3911 23.1355 30.2143 23.1355H23.5848C23.408 23.1355 23.2634 23.2802 23.2634 23.4569V26.3498C23.2634 26.5266 23.408 26.6712 23.5848 26.6712Z" fill="black" fill-opacity="0.85"/>
</g>
<defs>
<clipPath id="clip0_179636_172279">
<rect width="36" height="36" fill="white"/>
</clipPath>
</defs>
</svg>
