<svg width="295" height="208" viewBox="0 0 295 208" fill="none" xmlns="http://www.w3.org/2000/svg">
<g clip-path="url(#clip0_179553_172525)">
<rect x="39.0901" y="20.8" width="255.91" height="141.44" rx="16" fill="white"/>
<path d="M65.3695 20.8356H46.5567C44.7481 20.8372 43.014 21.5569 41.7351 22.8365C40.4562 24.1162 39.7369 25.8513 39.7353 27.661V48.0691C39.4948 48.0547 39.2543 48.0332 39.0173 48.0045C34.5604 47.5353 30.3231 45.8296 26.7832 43.0797C23.2432 40.3299 20.5415 36.6452 18.9824 32.4412C17.4234 28.2371 17.0691 23.6809 17.9596 19.2861C18.85 14.8914 20.9497 10.8329 24.022 7.56835C27.0943 4.30377 31.0169 1.96289 35.3477 0.809621C39.6784 -0.343643 44.245 -0.263422 48.5326 1.04125C52.8203 2.34591 56.6584 4.82314 59.6142 8.19363C62.5701 11.5641 64.5261 15.6938 65.2618 20.1171C65.3013 20.3542 65.3372 20.5949 65.3695 20.8356Z" fill="#F5F5F5"/>
<path d="M287.46 20.1172H46.5566C44.5576 20.1194 42.6412 20.9149 41.2278 22.3292C39.8143 23.7435 39.0193 25.661 39.0171 27.6611V154.83C39.0193 156.83 39.8143 158.748 41.2278 160.162C42.6412 161.576 44.5576 162.372 46.5566 162.374H287.46C289.459 162.372 291.376 161.576 292.789 160.162C294.203 158.748 294.998 156.83 295 154.83V27.6611C294.998 25.661 294.203 23.7435 292.789 22.3292C291.376 20.9149 289.459 20.1194 287.46 20.1172ZM294.282 154.83C294.28 156.64 293.561 158.375 292.282 159.654C291.003 160.934 289.269 161.654 287.46 161.655H46.5566C44.7479 161.654 43.0138 160.934 41.7349 159.654C40.456 158.375 39.7368 156.64 39.7351 154.83V27.6611C39.7368 25.8514 40.456 24.1163 41.7349 22.8366C43.0138 21.5569 44.7479 20.8373 46.5566 20.8357H287.46C289.269 20.8373 291.003 21.5569 292.282 22.8366C293.561 24.1163 294.28 25.8514 294.282 27.6611V154.83Z" fill="#BFBFBF"/>
<path d="M275.613 40.7263H58.4044C58.3092 40.7263 58.2179 40.6884 58.1506 40.6211C58.0832 40.5537 58.0454 40.4623 58.0454 40.367C58.0454 40.2718 58.0832 40.1804 58.1506 40.113C58.2179 40.0457 58.3092 40.0078 58.4044 40.0078H275.613C275.708 40.0078 275.799 40.0457 275.867 40.113C275.934 40.1804 275.972 40.2718 275.972 40.367C275.972 40.4623 275.934 40.5537 275.867 40.6211C275.799 40.6884 275.708 40.7263 275.613 40.7263Z" fill="#595959"/>
<path d="M119.797 146.927C119.702 146.927 119.611 146.889 119.543 146.822C119.476 146.754 119.438 146.663 119.438 146.568V28.3795C119.438 28.2842 119.476 28.1929 119.543 28.1255C119.611 28.0581 119.702 28.0203 119.797 28.0203C119.892 28.0203 119.984 28.0581 120.051 28.1255C120.118 28.1929 120.156 28.2842 120.156 28.3795V146.568C120.156 146.663 120.118 146.754 120.051 146.822C119.984 146.889 119.892 146.927 119.797 146.927Z" fill="#595959"/>
<path d="M174.009 146.927C173.914 146.927 173.823 146.889 173.756 146.822C173.688 146.754 173.65 146.663 173.65 146.568V28.3795C173.65 28.2842 173.688 28.1929 173.756 28.1255C173.823 28.0581 173.914 28.0203 174.009 28.0203C174.105 28.0203 174.196 28.0581 174.263 28.1255C174.331 28.1929 174.368 28.2842 174.368 28.3795V146.568C174.368 146.663 174.331 146.754 174.263 146.822C174.196 146.889 174.105 146.927 174.009 146.927Z" fill="#595959"/>
<path d="M228.222 146.927C228.127 146.927 228.035 146.889 227.968 146.822C227.901 146.754 227.863 146.663 227.863 146.568V28.3795C227.863 28.2842 227.901 28.1929 227.968 28.1255C228.035 28.0581 228.127 28.0203 228.222 28.0203C228.317 28.0203 228.408 28.0581 228.476 28.1255C228.543 28.1929 228.581 28.2842 228.581 28.3795V146.568C228.581 146.663 228.543 146.754 228.476 146.822C228.408 146.889 228.317 146.927 228.222 146.927Z" fill="#595959"/>
<path d="M84.9418 77.8057H71.8231C71.3948 77.8052 70.9841 77.6347 70.6812 77.3317C70.3784 77.0286 70.208 76.6177 70.2075 76.1891V60.6991C70.208 60.2705 70.3784 59.8596 70.6812 59.5565C70.9841 59.2535 71.3948 59.083 71.8231 59.0825H84.9418C85.3701 59.083 85.7808 59.2535 86.0837 59.5565C86.3865 59.8596 86.5569 60.2705 86.5574 60.6991V76.1891C86.5569 76.6177 86.3865 77.0286 86.0837 77.3317C85.7808 77.6347 85.3701 77.8052 84.9418 77.8057Z" fill="#FFA940"/>
<path d="M103.611 121.991H90.4923C90.064 121.991 89.6533 121.821 89.3504 121.517C89.0476 121.214 88.8772 120.803 88.8767 120.375V104.885C88.8772 104.456 89.0476 104.045 89.3504 103.742C89.6533 103.439 90.064 103.269 90.4923 103.268H103.611C104.039 103.269 104.45 103.439 104.753 103.742C105.056 104.045 105.226 104.456 105.227 104.885V120.375C105.226 120.803 105.056 121.214 104.753 121.517C104.45 121.821 104.039 121.991 103.611 121.991Z" fill="#FFA940"/>
<path d="M145.975 87.1457H132.857C132.428 87.1453 132.018 86.9748 131.715 86.6717C131.412 86.3687 131.242 85.9578 131.241 85.5292V70.0392C131.242 69.6106 131.412 69.1997 131.715 68.8966C132.018 68.5936 132.428 68.4231 132.857 68.4226H145.975C146.404 68.4231 146.814 68.5936 147.117 68.8966C147.42 69.1997 147.591 69.6106 147.591 70.0392V85.5292C147.591 85.9578 147.42 86.3687 147.117 86.6717C146.814 86.9748 146.404 87.1453 145.975 87.1457Z" fill="#FFA940"/>
<path d="M200.906 70.2617H187.787C187.359 70.2612 186.948 70.0908 186.645 69.7877C186.342 69.4846 186.172 69.0737 186.172 68.6452V53.1551C186.172 52.7265 186.342 52.3156 186.645 52.0126C186.948 51.7095 187.359 51.5391 187.787 51.5386H200.906C201.334 51.5391 201.745 51.7095 202.048 52.0126C202.351 52.3156 202.521 52.7265 202.521 53.1551V68.6452C202.521 69.0738 202.351 69.4847 202.048 69.7877C201.745 70.0908 201.334 70.2612 200.906 70.2617Z" fill="#FFA940"/>
<path d="M251.528 70.2617H238.41C237.981 70.2612 237.571 70.0908 237.268 69.7877C236.965 69.4846 236.794 69.0737 236.794 68.6452V53.1551C236.794 52.7265 236.965 52.3156 237.268 52.0126C237.571 51.7095 237.981 51.5391 238.41 51.5386H251.528C251.957 51.5391 252.367 51.7095 252.67 52.0126C252.973 52.3156 253.143 52.7265 253.144 53.1551V68.6452C253.143 69.0738 252.973 69.4847 252.67 69.7877C252.367 70.0908 251.957 70.2612 251.528 70.2617Z" fill="#FFA940"/>
<path d="M274.865 74.5725H261.746C261.318 74.572 260.907 74.4015 260.604 74.0985C260.301 73.7954 260.131 73.3845 260.13 72.956V57.4659C260.131 57.0373 260.301 56.6264 260.604 56.3234C260.907 56.0203 261.318 55.8498 261.746 55.8494H274.865C275.293 55.8498 275.704 56.0203 276.006 56.3234C276.309 56.6264 276.48 57.0373 276.48 57.4659V72.956C276.48 73.3846 276.309 73.7954 276.006 74.0985C275.704 74.4016 275.293 74.572 274.865 74.5725Z" fill="#D9D9D9"/>
<path d="M264.453 102.233H251.334C250.906 102.233 250.495 102.062 250.192 101.759C249.889 101.456 249.719 101.045 249.719 100.617V85.1268C249.719 84.6982 249.889 84.2873 250.192 83.9843C250.495 83.6812 250.906 83.5107 251.334 83.5103H264.453C264.881 83.5107 265.292 83.6812 265.595 83.9843C265.898 84.2873 266.068 84.6982 266.068 85.1268V100.617C266.068 101.045 265.898 101.456 265.595 101.759C265.292 102.062 264.881 102.233 264.453 102.233Z" fill="#D9D9D9"/>
<path d="M219.934 96.4858H206.816C206.387 96.4854 205.977 96.3149 205.674 96.0118C205.371 95.7088 205.2 95.2979 205.2 94.8693V79.3792C205.2 78.9507 205.371 78.5398 205.674 78.2367C205.977 77.9336 206.387 77.7632 206.816 77.7627H219.934C220.363 77.7632 220.773 77.9336 221.076 78.2367C221.379 78.5398 221.549 78.9507 221.55 79.3792V94.8693C221.549 95.2979 221.379 95.7088 221.076 96.0118C220.773 96.3149 220.363 96.4854 219.934 96.4858Z" fill="#FFD591"/>
<path d="M194.443 102.233H181.325C180.896 102.233 180.486 102.062 180.183 101.759C179.88 101.456 179.71 101.045 179.709 100.617V85.1268C179.71 84.6982 179.88 84.2873 180.183 83.9843C180.486 83.6812 180.896 83.5107 181.325 83.5103H194.443C194.872 83.5107 195.282 83.6812 195.585 83.9843C195.888 84.2873 196.059 84.6982 196.059 85.1268V100.617C196.059 101.045 195.888 101.456 195.585 101.759C195.282 102.062 194.872 102.233 194.443 102.233Z" fill="#D9D9D9"/>
<path d="M139.513 126.661H126.394C125.966 126.661 125.555 126.49 125.253 126.187C124.95 125.884 124.779 125.473 124.779 125.045V109.555C124.779 109.126 124.95 108.715 125.253 108.412C125.555 108.109 125.966 107.939 126.394 107.938H139.513C139.941 107.939 140.352 108.109 140.655 108.412C140.958 108.715 141.128 109.126 141.129 109.555V125.045C141.128 125.473 140.958 125.884 140.655 126.187C140.352 126.49 139.941 126.661 139.513 126.661Z" fill="#D9D9D9"/>
<path d="M73.0941 106.185H59.9755C59.5471 106.185 59.1365 106.014 58.8336 105.711C58.5307 105.408 58.3603 104.997 58.3599 104.569V89.0785C58.3603 88.6499 58.5307 88.239 58.8336 87.9359C59.1365 87.6328 59.5471 87.4624 59.9755 87.4619H73.0941C73.5225 87.4624 73.9331 87.6328 74.236 87.9359C74.5389 88.239 74.7093 88.6499 74.7097 89.0785V104.569C74.7093 104.997 74.5389 105.408 74.236 105.711C73.9331 106.014 73.5225 106.185 73.0941 106.185Z" fill="#FFD591"/>
<path d="M110.073 77.8057H96.9547C96.5264 77.8052 96.1157 77.6347 95.8128 77.3317C95.51 77.0286 95.3396 76.6177 95.3391 76.1891V60.6991C95.3396 60.2705 95.51 59.8596 95.8128 59.5565C96.1157 59.2535 96.5264 59.083 96.9547 59.0825H110.073C110.502 59.083 110.912 59.2535 111.215 59.5565C111.518 59.8596 111.689 60.2705 111.689 60.6991V76.1891C111.689 76.6177 111.518 77.0286 111.215 77.3317C110.912 77.6347 110.502 77.8052 110.073 77.8057Z" fill="#D9D9D9"/>
<path d="M99.333 34.8458H78.8687C78.4878 34.8458 78.1226 34.6944 77.8532 34.4249C77.5839 34.1555 77.4326 33.79 77.4326 33.4089C77.4326 33.0278 77.5839 32.6623 77.8532 32.3928C78.1226 32.1233 78.4878 31.9719 78.8687 31.9719H99.333C99.7138 31.9719 100.079 32.1233 100.348 32.3928C100.618 32.6623 100.769 33.0278 100.769 33.4089C100.769 33.79 100.618 34.1555 100.348 34.4249C100.079 34.6944 99.7138 34.8458 99.333 34.8458Z" fill="#D9D9D9"/>
<path d="M157.135 34.8458H136.671C136.29 34.8458 135.925 34.6944 135.656 34.4249C135.386 34.1555 135.235 33.79 135.235 33.4089C135.235 33.0278 135.386 32.6623 135.656 32.3928C135.925 32.1233 136.29 31.9719 136.671 31.9719H157.135C157.516 31.9719 157.882 32.1233 158.151 32.3928C158.42 32.6623 158.572 33.0278 158.572 33.4089C158.572 33.79 158.42 34.1555 158.151 34.4249C157.882 34.6944 157.516 34.8458 157.135 34.8458Z" fill="#D9D9D9"/>
<path d="M211.348 34.8458H190.884C190.503 34.8458 190.137 34.6944 189.868 34.4249C189.599 34.1555 189.448 33.79 189.448 33.4089C189.448 33.0278 189.599 32.6623 189.868 32.3928C190.137 32.1233 190.503 31.9719 190.884 31.9719H211.348C211.729 31.9719 212.094 32.1233 212.363 32.3928C212.633 32.6623 212.784 33.0278 212.784 33.4089C212.784 33.79 212.633 34.1555 212.363 34.4249C212.094 34.6944 211.729 34.8458 211.348 34.8458Z" fill="#D9D9D9"/>
<path d="M261.97 34.8458H241.506C241.125 34.8458 240.76 34.6944 240.49 34.4249C240.221 34.1555 240.07 33.79 240.07 33.4089C240.07 33.0278 240.221 32.6623 240.49 32.3928C240.76 32.1233 241.125 31.9719 241.506 31.9719H261.97C262.351 31.9719 262.716 32.1233 262.985 32.3928C263.255 32.6623 263.406 33.0278 263.406 33.4089C263.406 33.79 263.255 34.1555 262.985 34.4249C262.716 34.6944 262.351 34.8458 261.97 34.8458Z" fill="#D9D9D9"/>
<path d="M53.4977 140.062C52.9724 140.011 52.4648 139.845 52.0106 139.576C51.5564 139.307 51.1667 138.941 50.8689 138.505C50.5711 138.069 50.3725 137.573 50.287 137.052C50.2015 136.531 50.2313 135.997 50.3742 135.489L41.1714 126.917L46.0371 125.682L55.0866 133.026C55.9242 133.323 56.6239 133.917 57.0531 134.696C57.4823 135.474 57.6112 136.383 57.4154 137.25C57.2195 138.118 56.7126 138.883 55.9905 139.401C55.2684 139.919 54.3815 140.155 53.4977 140.062Z" fill="#FFCCC7"/>
<path d="M66.2051 203.417H70.6067L72.7005 186.43H66.2043L66.2051 203.417Z" fill="#FFCCC7"/>
<path d="M79.0954 207.506L65.2621 207.507L65.2618 202.159L73.7505 202.159C75.168 202.159 76.5275 202.722 77.5299 203.725C78.5322 204.728 79.0954 206.088 79.0954 207.506Z" fill="#262626"/>
<path d="M36.0261 200.237L40.2798 201.37L46.6708 185.494L40.3933 183.822L36.0261 200.237Z" fill="#FFCCC7"/>
<path d="M47.4314 207.508L34.0635 203.947L35.4383 198.78L43.6413 200.964C45.0111 201.329 46.18 202.224 46.8908 203.451C47.6015 204.678 47.796 206.137 47.4314 207.508Z" fill="#262626"/>
<path d="M71.7905 200.201H65.0741C64.6499 200.203 64.2405 200.045 63.9265 199.76C63.6124 199.474 63.4166 199.082 63.3774 198.659L59.3002 156.294C59.2703 155.983 59.1334 155.692 58.9129 155.471C58.6925 155.251 58.4021 155.113 58.0916 155.083C57.7811 155.053 57.4697 155.131 57.2107 155.305C56.9517 155.479 56.7612 155.738 56.6718 156.037L44.8336 195.624C44.7084 196.045 44.4256 196.401 44.0444 196.619C43.6631 196.836 43.2127 196.897 42.7872 196.79L36.5391 195.227C36.321 195.173 36.1158 195.076 35.9354 194.941C35.755 194.807 35.603 194.639 35.4879 194.445C35.3729 194.252 35.2972 194.038 35.2652 193.816C35.2332 193.593 35.2455 193.366 35.3014 193.148C35.4034 192.749 45.5015 153.263 45.5896 152.857C47.8776 135.985 50.6149 131.464 52.0854 129.035C52.2072 128.834 52.319 128.649 52.4197 128.474C52.5458 128.256 53.3218 126.087 53.814 124.679C53.8779 124.45 53.9886 124.237 54.1391 124.053C54.2896 123.869 54.4766 123.718 54.6883 123.61C60.8673 120.448 68.0968 122.636 70.1654 123.383C70.5083 123.503 70.8029 123.732 71.0048 124.035C77.2104 133.4 74.165 187.796 73.4915 198.605C73.4635 199.037 73.2721 199.443 72.9562 199.739C72.6403 200.036 72.2235 200.201 71.7905 200.201Z" fill="#262626"/>
<path d="M54.4581 92.8927C59.3281 92.8927 63.276 88.9424 63.276 84.0695C63.276 79.1966 59.3281 75.2463 54.4581 75.2463C49.5881 75.2463 45.6401 79.1966 45.6401 84.0695C45.6401 88.9424 49.5881 92.8927 54.4581 92.8927Z" fill="#FFCCC7"/>
<path d="M53.5237 126.392L53.4603 126.331C53.3414 126.216 41.5926 114.699 43.1131 104.049C43.7634 99.4945 47.4466 96.5842 53.7644 95.6324C56.0855 95.2875 58.453 95.7924 60.4317 97.0543C62.4104 98.3163 63.8675 100.25 64.535 102.501L70.782 123.87L53.5237 126.392Z" fill="#D9D9D9"/>
<path d="M47.5104 134.584L39.1386 126.26C38.5661 125.688 38.1505 124.977 37.9317 124.198C37.7129 123.418 37.6983 122.595 37.8893 121.809L41.9421 105.313C42.0635 104.819 42.285 104.354 42.5929 103.949C42.9008 103.544 43.2885 103.206 43.7321 102.957C44.1756 102.708 44.6656 102.553 45.1716 102.5C45.6777 102.448 46.189 102.501 46.674 102.654C47.5984 102.953 48.3705 103.599 48.8268 104.457C49.2831 105.315 49.3878 106.317 49.1186 107.25L44.8518 121.762L51.7516 129.176L47.5104 134.584Z" fill="#D9D9D9"/>
<path d="M92.4138 106.176C92.1924 106.655 91.8687 107.08 91.4654 107.421C91.0622 107.762 90.5891 108.01 90.0797 108.148C89.5702 108.286 89.0367 108.31 88.5167 108.22C87.9968 108.129 87.503 107.925 87.0702 107.623L75.894 113.419L76.388 108.496L86.2959 102.36C86.8516 101.667 87.6423 101.201 88.5182 101.051C89.3942 100.902 90.2945 101.079 91.0486 101.549C91.8027 102.02 92.3582 102.75 92.6098 103.603C92.8614 104.456 92.7917 105.371 92.4138 106.176Z" fill="#FFCCC7"/>
<path d="M85.8499 109.841L74.9549 114.552C74.2298 114.863 73.4368 114.982 72.6523 114.898C71.8678 114.814 71.1181 114.529 70.4754 114.071L56.6211 104.139C56.2076 103.842 55.8594 103.464 55.5978 103.027C55.3363 102.591 55.1671 102.105 55.1007 101.601C55.0343 101.096 55.072 100.583 55.2117 100.094C55.3514 99.6041 55.5899 99.1486 55.9126 98.7551C56.5327 98.0071 57.4194 97.5299 58.385 97.4248C59.3506 97.3197 60.3192 97.5948 61.0856 98.1919L72.9651 107.547L82.4074 103.892L85.8499 109.841Z" fill="#D9D9D9"/>
<path d="M55.9198 86.8967C57.0076 85.5329 59.04 85.4595 60.5343 84.5599C62.4916 83.3815 63.3008 80.7482 62.67 78.5514C62.0393 76.3546 60.1791 74.6425 58.0464 73.8237C55.9137 73.0049 53.5409 72.9948 51.2911 73.3906C47.9413 73.98 44.6434 75.5443 42.6004 78.2651C40.5574 80.9858 40.0375 84.9705 41.889 87.8252C42.74 89.1372 44.0536 90.2202 44.3934 91.747C44.8394 93.7513 43.4343 95.6845 41.929 97.0801C40.214 98.6702 38.2465 100.002 36.744 101.794C35.2415 103.587 34.2396 106.036 34.9252 108.272C35.4996 110.146 37.1712 111.527 39.0042 112.218C40.8372 112.909 42.8335 113.009 44.7921 113.048C46.6939 113.085 48.7139 113.039 50.316 112.012C52.0311 110.914 52.9468 108.83 53.0145 106.794C53.0821 104.757 52.402 102.762 51.4906 100.94C50.9473 99.8543 50.3156 98.802 49.9546 97.6425C49.5936 96.483 49.5311 95.1673 50.1092 94.0994C50.7169 92.977 51.9464 92.3 53.1983 92.0539C53.2633 92.0411 53.3321 92.0297 53.4041 92.0195C53.7603 91.9733 54.1034 91.8552 54.4127 91.6725C54.722 91.4898 54.9911 91.2463 55.2036 90.9565C55.4162 90.6668 55.5678 90.337 55.6493 89.987C55.7308 89.637 55.7405 89.274 55.6779 88.9202C55.5353 88.1247 55.5476 87.3633 55.9198 86.8967Z" fill="#262626"/>
<path d="M173.49 203.793H169.088L166.995 186.806L173.491 186.806L173.49 203.793Z" fill="#AD6800"/>
<path d="M165.944 202.535H174.433V207.883H160.6C160.6 207.181 160.738 206.485 161.006 205.836C161.275 205.188 161.669 204.598 162.165 204.101C162.661 203.605 163.251 203.211 163.899 202.942C164.547 202.673 165.242 202.535 165.944 202.535Z" fill="#262626"/>
<path d="M205.427 198.805L201.423 200.634L192.464 186.054L198.374 183.353L205.427 198.805Z" fill="#AD6800"/>
<path d="M198.041 200.797L205.762 197.268L207.983 202.133L195.4 207.883C195.108 207.244 194.945 206.554 194.92 205.853C194.895 205.151 195.008 204.451 195.254 203.793C195.499 203.135 195.871 202.532 196.349 202.017C196.828 201.503 197.402 201.089 198.041 200.797Z" fill="#262626"/>
<path d="M192.609 146.516C193.031 146.199 193.378 145.792 193.625 145.326C193.873 144.86 194.016 144.345 194.043 143.817C194.071 143.29 193.982 142.763 193.784 142.274C193.586 141.784 193.283 141.344 192.896 140.984L198.07 129.238L191.497 130.352L187.592 141.336C187.031 142.026 186.742 142.898 186.781 143.786C186.82 144.674 187.182 145.518 187.801 146.156C188.419 146.794 189.25 147.184 190.136 147.25C191.023 147.317 191.902 147.055 192.609 146.516Z" fill="#AD6800"/>
<path d="M173.209 199.314H169.004C168.597 199.313 168.204 199.158 167.906 198.88C167.607 198.602 167.424 198.222 167.393 197.815L165.1 136.544C165.083 136.31 165.117 136.074 165.201 135.854C165.284 135.634 165.415 135.435 165.583 135.27C165.752 135.106 165.954 134.98 166.176 134.902C166.398 134.824 166.634 134.796 166.868 134.818L191.187 137.403C191.581 137.441 191.947 137.623 192.216 137.914C192.485 138.205 192.637 138.585 192.645 138.981L193.155 166.008C193.157 166.155 193.186 166.3 193.239 166.437L203.214 192.32C203.291 192.52 203.328 192.734 203.322 192.948C203.316 193.162 203.267 193.373 203.179 193.568C203.09 193.764 202.964 193.939 202.807 194.085C202.65 194.231 202.466 194.345 202.265 194.419L198.004 195.99C197.634 196.126 197.227 196.122 196.859 195.979C196.492 195.836 196.189 195.563 196.009 195.212L183.755 171.37C183.688 171.241 183.639 171.102 183.609 170.96L181.516 160.867C181.455 160.575 181.292 160.313 181.057 160.13C180.821 159.947 180.527 159.853 180.229 159.867C179.93 159.88 179.647 160 179.428 160.204C179.21 160.408 179.071 160.683 179.037 160.98L174.814 197.882C174.769 198.276 174.581 198.64 174.285 198.904C173.989 199.168 173.606 199.314 173.209 199.314Z" fill="#262626"/>
<path d="M175.303 88.637C180.173 88.637 184.121 84.6868 184.121 79.8139C184.121 74.941 180.173 70.9907 175.303 70.9907C170.433 70.9907 166.485 74.941 166.485 79.8139C166.485 84.6868 170.433 88.637 175.303 88.637Z" fill="#AD6800"/>
<path d="M181.35 142.147C175.371 142.081 169.533 140.312 164.522 137.046L164.436 136.987L164.445 136.883L167.818 97.5772C167.934 96.2437 168.529 94.9974 169.493 94.0688C170.456 93.1402 171.723 92.592 173.059 92.5258C177.431 92.3248 183.303 92.5782 186.446 94.9206C191.196 98.4607 193.486 103.791 192.727 109.546C191.155 121.479 192.936 137.577 193.144 139.373L193.159 139.502L193.041 139.557C189.379 141.261 185.389 142.145 181.35 142.147Z" fill="#FFA940"/>
<path d="M193.104 139.439C192.855 139.439 192.609 139.387 192.382 139.287C192.154 139.186 191.95 139.04 191.782 138.857L189.853 136.751C189.645 136.522 189.499 136.244 189.429 135.942C189.359 135.64 189.368 135.326 189.455 135.029L193.853 120.133L187.161 106.072C186.849 105.413 186.772 104.668 186.945 103.96C187.096 103.338 187.433 102.777 187.91 102.351C188.387 101.925 188.982 101.653 189.616 101.572C190.25 101.491 190.894 101.604 191.463 101.897C192.031 102.189 192.498 102.648 192.801 103.211L201.883 117.955C202.252 118.553 202.468 119.232 202.513 119.934C202.558 120.635 202.43 121.337 202.141 121.977L194.742 138.382C194.62 138.653 194.432 138.89 194.196 139.07C193.96 139.251 193.683 139.37 193.39 139.416C193.295 139.432 193.199 139.439 193.104 139.439Z" fill="#FFA940"/>
<path d="M130.949 110.986C131.372 111.302 131.86 111.52 132.377 111.626C132.894 111.733 133.428 111.724 133.941 111.602C134.455 111.479 134.935 111.245 135.348 110.917C135.762 110.589 136.098 110.174 136.334 109.701L149.057 111.352L146.133 105.357L134.499 104.708C133.68 104.365 132.762 104.334 131.922 104.622C131.081 104.909 130.375 105.496 129.937 106.27C129.5 107.043 129.361 107.951 129.547 108.82C129.734 109.69 130.233 110.46 130.949 110.986Z" fill="#AD6800"/>
<path d="M158.993 114.26C158.771 114.26 158.55 114.245 158.331 114.215L138.315 111.437C137.988 111.392 137.677 111.266 137.41 111.071C137.144 110.876 136.93 110.618 136.789 110.319C136.743 110.223 136.705 110.124 136.674 110.021C136.597 109.756 136.575 109.478 136.611 109.204C136.646 108.93 136.738 108.666 136.881 108.429L138.537 105.682C138.715 105.388 138.966 105.145 139.265 104.976C139.564 104.807 139.901 104.718 140.245 104.717H140.247L157.694 104.737L170.725 93.0555C171.331 92.5133 172.105 92.1963 172.917 92.1576C173.63 92.1245 174.337 92.3085 174.943 92.6853C175.55 93.0621 176.028 93.614 176.315 94.2682C176.601 94.9224 176.683 95.6481 176.549 96.3497C176.415 97.0514 176.072 97.6959 175.564 98.1983L162.562 112.668C162.112 113.169 161.562 113.57 160.947 113.844C160.332 114.119 159.666 114.26 158.993 114.26Z" fill="#FFA940"/>
<path d="M176.306 87.6631C177.111 85.797 177.793 83.3118 176.248 81.9925C175.351 81.2272 174.06 81.2256 172.885 81.1304C169.576 80.8622 166.17 79.3387 164.552 76.4376C162.935 73.5365 163.838 69.2226 166.889 67.9137C168.946 67.0314 171.305 67.6324 173.458 68.2433L179.922 70.0775C181.843 70.6225 183.86 71.2236 185.242 72.6646C187.448 74.9627 187.283 78.8476 185.531 81.5082C183.78 84.1688 181.142 86.9437 178.122 87.9539L176.306 87.6631Z" fill="#262626"/>
<path d="M265.491 208H0.427501C0.371259 208 0.31554 207.989 0.263532 207.968C0.211524 207.946 0.164255 207.915 0.124428 207.875C0.0846014 207.835 0.0530012 207.788 0.0314406 207.736C0.00987997 207.684 -0.0012207 207.629 -0.0012207 207.572C-0.0012207 207.516 0.00987997 207.46 0.0314406 207.408C0.0530012 207.356 0.0846014 207.309 0.124428 207.269C0.164255 207.23 0.211524 207.198 0.263532 207.177C0.31554 207.155 0.371259 207.144 0.427501 207.145H265.491C265.548 207.144 265.603 207.155 265.655 207.177C265.707 207.198 265.755 207.23 265.795 207.269C265.834 207.309 265.866 207.356 265.888 207.408C265.909 207.46 265.92 207.516 265.92 207.572C265.92 207.629 265.909 207.684 265.888 207.736C265.866 207.788 265.834 207.835 265.795 207.875C265.755 207.915 265.707 207.946 265.655 207.968C265.603 207.989 265.548 208 265.491 208Z" fill="#BFBFBF"/>
</g>
<defs>
<clipPath id="clip0_179553_172525">
<rect width="295" height="208" fill="white"/>
</clipPath>
</defs>
</svg>
