<svg width="183" height="24" viewBox="0 0 183 24" fill="none" xmlns="http://www.w3.org/2000/svg">
<path d="M14.3969 5.03685C14.3969 6.19989 13.8876 7.24384 13.08 7.95736C12.3227 8.55513 10.2674 11.2024 9.57989 14.3791C8.89239 17.5558 9.14041 20.203 12.1029 20.203C15.0654 20.203 15.9428 17.0263 12.8509 12.7566C11.9265 11.48 15.794 12.8782 16.0924 13.0811C17.8976 14.3083 18.6856 15.6088 18.6856 17.5558C18.6856 21.7914 14.8288 23.3797 12.5268 23.3797C8.31291 23.3797 6.06415 20.7837 5.74001 17.2142C5.41586 13.6447 8.2381 8.60637 7.93423 7.95736C7.12669 7.24384 6.61737 6.19989 6.61737 5.03685C6.61737 2.88624 8.35888 1.14282 10.5071 1.14282C12.6554 1.14282 14.3969 2.88624 14.3969 5.03685Z" fill="#262626"/>
<path d="M12.3489 4.84893C12.3489 5.87235 11.5192 6.702 10.4958 6.702C9.47235 6.702 8.6427 5.87235 8.6427 4.84893C8.6427 3.8255 9.47235 2.99585 10.4958 2.99585C11.5192 2.99585 12.3489 3.8255 12.3489 4.84893Z" fill="white"/>
<path d="M30 22.5V1.5H34.676V10.824H39.352V1.5H44V22.5H39.352V13.176H34.676V22.5H30Z" fill="#262626"/>
<path d="M54.4718 1.5H59.1478C60.4171 1.5 61.5091 1.96667 62.4238 2.9C63.3384 3.81467 63.7958 4.90667 63.7958 6.176V17.824C63.7958 19.0933 63.3384 20.1947 62.4238 21.128C61.5091 22.0427 60.4171 22.5 59.1478 22.5H54.4718C53.2024 22.5 52.1011 22.0427 51.1678 21.128C50.2531 20.2133 49.7958 19.112 49.7958 17.824V6.176C49.7958 4.888 50.2531 3.78667 51.1678 2.872C52.1011 1.95733 53.2024 1.5 54.4718 1.5ZM54.4718 6.176V17.824C54.4718 18.4587 54.6958 19.0093 55.1438 19.476C55.6104 19.9427 56.1611 20.176 56.7958 20.176C57.4491 20.176 57.9998 19.9427 58.4478 19.476C58.9144 19.0093 59.1478 18.4587 59.1478 17.824V6.176C59.1478 5.52267 58.9144 4.972 58.4478 4.524C57.9998 4.05733 57.4491 3.824 56.7958 3.824C56.1611 3.824 55.6104 4.05733 55.1438 4.524C54.6958 4.972 54.4718 5.52267 54.4718 6.176Z" fill="#262626"/>
<path d="M74.2676 1.5H78.9436C80.2129 1.5 81.3049 1.96667 82.2196 2.9C83.1342 3.81467 83.5916 4.90667 83.5916 6.176V17.824C83.5916 19.0933 83.1342 20.1947 82.2196 21.128C81.3049 22.0427 80.2129 22.5 78.9436 22.5H74.2676C72.9982 22.5 71.8969 22.0427 70.9636 21.128C70.0489 20.2133 69.5916 19.112 69.5916 17.824V6.176C69.5916 4.888 70.0489 3.78667 70.9636 2.872C71.8969 1.95733 72.9982 1.5 74.2676 1.5ZM74.2676 6.176V17.824C74.2676 18.4587 74.4916 19.0093 74.9396 19.476C75.4062 19.9427 75.9569 20.176 76.5916 20.176C77.2449 20.176 77.7956 19.9427 78.2436 19.476C78.7102 19.0093 78.9436 18.4587 78.9436 17.824V6.176C78.9436 5.52267 78.7102 4.972 78.2436 4.524C77.7956 4.05733 77.2449 3.824 76.5916 3.824C75.9569 3.824 75.4062 4.05733 74.9396 4.524C74.4916 4.972 74.2676 5.52267 74.2676 6.176Z" fill="#262626"/>
<path d="M89.3873 22.5V1.5H94.0633V10.068L101.623 1.5H105.739L96.3873 12L105.739 22.5H101.063L94.0633 14.324V22.5H89.3873Z" fill="#262626"/>
<path d="M111.507 22.5V1.5H116.183V20.176H123.183V22.5H111.507Z" fill="#262626"/>
<path d="M133.628 1.5H138.304C139.573 1.5 140.665 1.96667 141.58 2.9C142.494 3.81467 142.952 4.90667 142.952 6.176V17.824C142.952 19.0933 142.494 20.1947 141.58 21.128C140.665 22.0427 139.573 22.5 138.304 22.5H133.628C132.358 22.5 131.257 22.0427 130.324 21.128C129.409 20.2133 128.952 19.112 128.952 17.824V6.176C128.952 4.888 129.409 3.78667 130.324 2.872C131.257 1.95733 132.358 1.5 133.628 1.5ZM133.628 6.176V17.824C133.628 18.4587 133.852 19.0093 134.3 19.476C134.766 19.9427 135.317 20.176 135.952 20.176C136.605 20.176 137.156 19.9427 137.604 19.476C138.07 19.0093 138.304 18.4587 138.304 17.824V6.176C138.304 5.52267 138.07 4.972 137.604 4.524C137.156 4.05733 136.605 3.824 135.952 3.824C135.317 3.824 134.766 4.05733 134.3 4.524C133.852 4.972 133.628 5.52267 133.628 6.176Z" fill="#262626"/>
<path d="M153.423 1.5H158.099C159.369 1.5 160.461 1.96667 161.375 2.9C162.29 3.81467 162.747 4.90667 162.747 6.176V17.824C162.747 19.0933 162.29 20.1947 161.375 21.128C160.461 22.0427 159.369 22.5 158.099 22.5H153.423C152.154 22.5 151.053 22.0427 150.119 21.128C149.205 20.2133 148.747 19.112 148.747 17.824V6.176C148.747 4.888 149.205 3.78667 150.119 2.872C151.053 1.95733 152.154 1.5 153.423 1.5ZM153.423 6.176V17.824C153.423 18.4587 153.647 19.0093 154.095 19.476C154.562 19.9427 155.113 20.176 155.747 20.176C156.401 20.176 156.951 19.9427 157.399 19.476C157.866 19.0093 158.099 18.4587 158.099 17.824V6.176C158.099 5.52267 157.866 4.972 157.399 4.524C156.951 4.05733 156.401 3.824 155.747 3.824C155.113 3.824 154.562 4.05733 154.095 4.524C153.647 4.972 153.423 5.52267 153.423 6.176Z" fill="#262626"/>
<path d="M168.543 22.5V1.5H177.895C179.164 1.5 180.256 1.96667 181.171 2.9C182.086 3.81467 182.543 4.90667 182.543 6.176V8.5C182.543 9.76934 182.086 10.8707 181.171 11.804C180.256 12.7187 179.164 13.176 177.895 13.176H173.219V22.5H168.543ZM173.219 10.824H175.543C176.196 10.824 176.747 10.6 177.195 10.152C177.662 9.68533 177.895 9.13467 177.895 8.5V6.176C177.895 5.52267 177.662 4.972 177.195 4.524C176.747 4.05733 176.196 3.824 175.543 3.824H173.219V10.824Z" fill="#262626"/>
</svg>
