<svg viewBox="0 0 295 204" fill="none" xmlns="http://www.w3.org/2000/svg">
<g clip-path="url(#clip0_179553_172381)">
<path d="M175.047 6.25839C196.283 -6.20294 223.237 0.329893 237.528 22.4255L237.041 22.804C222.927 0.981117 196.303 -5.46947 175.327 6.83529C173.545 7.88093 171.825 9.04866 170.177 10.3315C148.607 27.1092 143.505 60.0034 158.804 83.6584L158.317 84.0369C142.828 60.0878 147.994 26.7842 169.832 9.79808C171.501 8.49952 173.242 7.31729 175.047 6.25839Z" fill="#D9D9D9"/>
<path d="M287.551 59.5228L217.701 53.5635C216.616 53.4696 215.61 52.9079 214.903 52.0016C214.196 51.0953 213.846 49.9184 213.929 48.7291L216.957 11.511C217.042 10.3219 217.555 9.21863 218.381 8.44315C219.208 7.66767 220.281 7.28335 221.365 7.37451L291.216 13.3338C292.3 13.4277 293.306 13.9894 294.013 14.8957C294.72 15.802 295.071 16.9789 294.988 18.1682L291.959 55.3862C291.874 56.5754 291.362 57.6787 290.535 58.4542C289.709 59.2296 288.636 59.614 287.551 59.5228Z" fill="#D9D9D9"/>
<path d="M271.051 51.1147C270.521 51.1147 269.989 51.0919 269.455 51.0465L224.313 47.1952C223.411 47.1182 222.531 46.847 221.724 46.3971C220.917 45.9472 220.198 45.3273 219.61 44.573C219.021 43.8186 218.574 42.9445 218.293 42.0005C218.013 41.0565 217.904 40.0612 217.975 39.0714L219.004 24.5603C219.148 22.562 220.009 20.7079 221.397 19.4047C222.786 18.1015 224.59 17.4556 226.412 17.6088L284.786 22.589C286.608 22.7468 288.299 23.6907 289.487 25.2137C290.675 26.7367 291.264 28.7144 291.125 30.713C290.731 36.2586 288.446 41.4379 284.726 45.2189C281.006 48.9999 276.124 51.105 271.051 51.1147Z" fill="white"/>
<path d="M283.39 34.1248L226.165 29.2427C226.046 29.2325 225.93 29.1967 225.823 29.1373C225.717 29.0779 225.622 28.996 225.544 28.8963C225.466 28.7967 225.407 28.6812 225.37 28.5566C225.333 28.4319 225.319 28.3004 225.328 28.1697C225.337 28.0389 225.37 27.9115 225.424 27.7946C225.479 27.6777 225.553 27.5736 225.644 27.4884C225.735 27.4031 225.84 27.3383 225.954 27.2977C226.068 27.2571 226.187 27.2414 226.307 27.2515L283.531 32.1336C283.65 32.1438 283.766 32.1796 283.873 32.239C283.979 32.2985 284.074 32.3804 284.152 32.48C284.23 32.5796 284.289 32.6951 284.326 32.8198C284.363 32.9445 284.377 33.0759 284.368 33.2067C284.359 33.3374 284.326 33.4649 284.272 33.5818C284.218 33.6986 284.143 33.8027 284.052 33.888C283.961 33.9732 283.856 34.038 283.742 34.0786C283.629 34.1193 283.509 34.135 283.39 34.1248Z" fill="#D9D9D9"/>
<path d="M259.629 36.0553L225.886 33.1766C225.646 33.1559 225.422 33.0312 225.265 32.83C225.109 32.6288 225.031 32.3675 225.05 32.1036C225.068 31.8396 225.182 31.5946 225.365 31.4224C225.549 31.2502 225.787 31.165 226.028 31.1853L259.77 34.0641C259.889 34.0742 260.005 34.1099 260.112 34.1693C260.219 34.2287 260.314 34.3106 260.391 34.4103C260.469 34.5099 260.528 34.6254 260.565 34.7502C260.603 34.8749 260.617 35.0064 260.608 35.1372C260.598 35.268 260.566 35.3955 260.511 35.5125C260.457 35.6294 260.382 35.7335 260.292 35.8187C260.201 35.904 260.095 35.9688 259.981 36.0094C259.868 36.05 259.748 36.0656 259.629 36.0553Z" fill="#D9D9D9"/>
<path d="M267.061 40.6474L225.607 37.1108C225.488 37.1007 225.372 37.0649 225.265 37.0055C225.158 36.9461 225.063 36.8642 224.985 36.7646C224.908 36.6649 224.849 36.5494 224.811 36.4247C224.774 36.3 224.76 36.1684 224.769 36.0376C224.779 35.9068 224.811 35.7793 224.866 35.6624C224.92 35.5454 224.994 35.4414 225.085 35.3561C225.176 35.2709 225.282 35.2061 225.395 35.1655C225.509 35.1249 225.629 35.1093 225.748 35.1195L267.203 38.6562C267.443 38.6769 267.667 38.8015 267.824 39.0027C267.98 39.204 268.058 39.4653 268.039 39.7292C268.021 39.9932 267.907 40.2382 267.724 40.4104C267.54 40.5825 267.302 40.6678 267.061 40.6474Z" fill="#D9D9D9"/>
<path d="M282.877 110.046L213.027 104.086C211.942 103.993 210.936 103.431 210.229 102.525C209.522 101.618 209.172 100.441 209.255 99.252L212.283 62.034C212.368 60.8449 212.881 59.7416 213.707 58.9661C214.533 58.1906 215.607 57.8063 216.691 57.8975L286.542 63.8568C287.626 63.9506 288.632 64.5123 289.339 65.4186C290.046 66.3249 290.397 67.5019 290.313 68.6912L287.285 105.909C287.2 107.098 286.688 108.202 285.861 108.977C285.035 109.753 283.961 110.137 282.877 110.046Z" fill="#D9D9D9"/>
<path d="M266.359 101.637C265.837 101.637 265.311 101.614 264.781 101.569L219.639 97.7181C218.737 97.6411 217.857 97.3699 217.05 96.92C216.243 96.4701 215.524 95.8503 214.936 95.0959C214.347 94.3415 213.9 93.4674 213.619 92.5234C213.339 91.5795 213.23 90.5841 213.301 89.5943L214.33 75.0834C214.4 74.0935 214.647 73.1285 215.058 72.2434C215.468 71.3583 216.033 70.5706 216.721 69.925C217.409 69.2795 218.206 68.7889 219.067 68.4813C219.928 68.1736 220.836 68.0549 221.738 68.1319L280.112 73.1121C281.014 73.1891 281.894 73.4603 282.701 73.9102C283.509 74.3602 284.227 74.98 284.815 75.7344C285.404 76.4888 285.851 77.3629 286.132 78.3069C286.412 79.2509 286.521 80.2462 286.451 81.2361C286.051 86.7825 283.762 91.9608 280.039 95.7409C276.317 99.5209 271.433 101.626 266.359 101.637Z" fill="white"/>
<path d="M278.715 84.6477L221.491 79.7656C221.372 79.7555 221.256 79.7197 221.149 79.6602C221.042 79.6008 220.948 79.5189 220.87 79.4193C220.792 79.3196 220.733 79.2042 220.696 79.0795C220.659 78.9548 220.645 78.8234 220.654 78.6926C220.663 78.5619 220.696 78.4344 220.75 78.3175C220.804 78.2006 220.879 78.0966 220.97 78.0113C221.061 77.9261 221.166 77.8613 221.28 77.8206C221.393 77.78 221.513 77.7643 221.632 77.7745L278.856 82.6566C278.976 82.6667 279.092 82.7026 279.198 82.762C279.305 82.8214 279.4 82.9033 279.478 83.0029C279.555 83.1026 279.614 83.218 279.652 83.3427C279.689 83.4674 279.703 83.5989 279.694 83.7296C279.684 83.8603 279.652 83.9878 279.597 84.1047C279.543 84.2216 279.469 84.3257 279.378 84.4109C279.287 84.4962 279.182 84.561 279.068 84.6016C278.954 84.6422 278.834 84.6579 278.715 84.6477Z" fill="#D9D9D9"/>
<path d="M254.954 86.5784L221.212 83.6996C221.093 83.6895 220.977 83.6538 220.87 83.5944C220.763 83.535 220.668 83.4531 220.59 83.3534C220.513 83.2538 220.454 83.1383 220.416 83.0135C220.379 82.8888 220.365 82.7573 220.374 82.6265C220.384 82.4957 220.416 82.3682 220.471 82.2513C220.525 82.1343 220.599 82.0302 220.69 81.945C220.781 81.8597 220.887 81.7949 221 81.7543C221.114 81.7137 221.234 81.6981 221.353 81.7084L255.096 84.5871C255.336 84.6078 255.56 84.7324 255.717 84.9337C255.873 85.1349 255.951 85.3962 255.932 85.6601C255.914 85.9241 255.8 86.1691 255.617 86.3413C255.433 86.5135 255.195 86.5987 254.954 86.5784Z" fill="#D9D9D9"/>
<path d="M262.387 91.1703L220.933 87.6337C220.692 87.6131 220.469 87.4885 220.312 87.2873C220.155 87.086 220.077 86.8246 220.096 86.5606C220.114 86.2965 220.228 86.0514 220.412 85.8793C220.595 85.7071 220.833 85.6219 221.074 85.6424L262.528 89.1791C262.769 89.1996 262.993 89.3242 263.15 89.5255C263.307 89.7267 263.384 89.9881 263.366 90.2522C263.347 90.5162 263.233 90.7613 263.05 90.9335C262.866 91.1057 262.628 91.1909 262.387 91.1703Z" fill="#D9D9D9"/>
<path d="M105.198 90.6002C104.311 88.3967 103.829 86.0232 103.779 83.6153C103.728 81.2074 104.111 78.8122 104.905 76.5665C105.699 74.3209 106.888 72.2686 108.405 70.527C109.922 68.7855 111.737 67.3886 113.747 66.4163C115.756 65.4439 117.92 64.9151 120.116 64.86C122.312 64.8049 124.496 65.2247 126.543 66.0952C128.591 66.9658 130.462 68.2702 132.051 69.9339C133.639 71.5976 134.912 73.588 135.799 75.7915L135.253 76.0557C134.398 73.9308 133.17 72.0113 131.639 70.407C130.107 68.8026 128.302 67.5448 126.328 66.7052C124.353 65.8657 122.247 65.4609 120.13 65.514C118.012 65.5672 115.925 66.0771 113.987 67.0148C112.05 67.9524 110.3 69.2994 108.837 70.9789C107.374 72.6583 106.227 74.6374 105.461 76.8029C104.696 78.9685 104.327 81.2783 104.375 83.6003C104.423 85.9223 104.888 88.2111 105.743 90.336L105.198 90.6002Z" fill="#D9D9D9"/>
<path d="M278.55 192.883C285.379 189.334 290.465 182.194 289.672 174.348C283.546 179.789 275.205 182.826 266.595 182.754C263.241 182.725 259.486 182.351 257.049 184.415C255.532 185.699 254.848 187.738 254.762 189.77C254.675 191.802 255.125 193.859 255.571 195.889L255.435 196.37C263.453 196.929 271.722 196.431 278.55 192.883Z" fill="#F0F0F0"/>
<path d="M289.504 174.329C286.863 179.98 282.284 184.691 276.593 187.448C275.346 188.086 274.019 188.513 272.655 188.716C271.267 188.876 269.864 188.675 268.559 188.129C267.323 187.643 266.104 187.009 264.792 186.816C264.15 186.718 263.496 186.762 262.87 186.948C262.244 187.133 261.658 187.454 261.148 187.893C259.936 188.927 259.213 190.357 258.558 191.784C257.831 193.369 257.102 195.027 255.678 196.107C255.505 196.238 255.745 196.51 255.918 196.379C258.396 194.501 258.753 191.104 260.722 188.829C261.186 188.255 261.761 187.803 262.406 187.507C263.051 187.211 263.749 187.08 264.447 187.122C265.786 187.23 267.044 187.882 268.292 188.385C269.562 188.935 270.924 189.18 272.288 189.104C273.662 188.972 275.008 188.596 276.274 187.993C279.025 186.737 281.572 184.999 283.815 182.847C286.293 180.497 288.339 177.649 289.842 174.456C289.933 174.261 289.594 174.135 289.504 174.329Z" fill="white"/>
<path d="M278.499 186.652C279.218 187.582 280.184 188.243 281.261 188.544C282.339 188.844 283.475 188.769 284.511 188.328C284.71 188.236 284.548 187.917 284.349 188.009C283.384 188.421 282.326 188.491 281.324 188.209C280.321 187.928 279.424 187.308 278.759 186.438C278.619 186.252 278.361 186.466 278.499 186.652Z" fill="white"/>
<path d="M269.16 188.454C269.292 187.351 269.636 186.29 270.169 185.342C270.702 184.395 271.412 183.582 272.252 182.957C272.424 182.825 272.184 182.553 272.012 182.684C271.139 183.337 270.402 184.184 269.85 185.172C269.297 186.159 268.942 187.264 268.807 188.413C268.782 188.632 269.136 188.672 269.16 188.454Z" fill="white"/>
<path d="M285.888 180.257C285.559 179.98 285.301 179.616 285.137 179.199C284.973 178.782 284.909 178.326 284.95 177.874C284.978 177.655 284.624 177.615 284.597 177.832C284.553 178.331 284.624 178.835 284.805 179.296C284.985 179.757 285.268 180.161 285.628 180.47C285.661 180.505 285.703 180.527 285.748 180.532C285.794 180.538 285.839 180.526 285.878 180.499C285.895 180.485 285.908 180.467 285.918 180.447C285.928 180.426 285.933 180.404 285.934 180.38C285.935 180.357 285.931 180.334 285.923 180.313C285.915 180.292 285.903 180.272 285.888 180.257Z" fill="white"/>
<path d="M267.142 157.759C267.121 157.895 267.1 158.03 267.077 158.167C266.784 159.984 266.338 161.767 265.743 163.494C265.699 163.628 265.653 163.763 265.605 163.896C264.101 168.075 261.814 171.861 258.891 175.01C257.7 176.296 256.416 177.474 255.051 178.532C253.148 180.009 250.952 181.451 249.748 183.441C249.62 183.646 249.506 183.861 249.406 184.083L254.831 196.121C254.857 196.144 254.88 196.167 254.906 196.19L255.101 196.678C255.176 196.628 255.253 196.575 255.329 196.525C255.372 196.496 255.415 196.465 255.459 196.436C255.488 196.416 255.517 196.396 255.544 196.379C255.554 196.373 255.563 196.366 255.57 196.36C255.598 196.344 255.621 196.326 255.646 196.31C256.077 196.012 256.507 195.711 256.935 195.406C256.937 195.405 256.937 195.405 256.939 195.401C260.193 193.068 263.253 190.431 265.768 187.388C265.844 187.297 265.922 187.204 265.995 187.107C267.113 185.74 268.114 184.263 268.986 182.696C269.455 181.843 269.88 180.962 270.257 180.055C271.224 177.714 271.797 175.2 271.948 172.635C272.254 167.497 270.865 162.184 267.409 158.071C267.321 157.966 267.234 157.863 267.142 157.759Z" fill="#F0F0F0"/>
<path d="M267.004 157.841C268.515 164.196 267.994 170.899 265.435 176.602C264.903 177.869 264.17 179.021 263.27 180.006C262.307 180.975 261.122 181.64 259.841 181.93C258.615 182.249 257.311 182.432 256.21 183.044C255.67 183.34 255.201 183.773 254.843 184.306C254.484 184.84 254.246 185.458 254.147 186.112C253.878 187.705 254.219 189.346 254.61 190.943C255.043 192.717 255.521 194.555 255.121 196.313C255.073 196.526 255.421 196.615 255.469 196.402C256.165 193.344 254.336 190.251 254.406 187.157C254.438 185.714 254.918 184.307 256.141 183.507C257.21 182.807 258.554 182.617 259.799 182.305C261.058 182.037 262.237 181.436 263.235 180.553C264.185 179.623 264.965 178.503 265.533 177.253C266.835 174.5 267.671 171.51 268.002 168.43C268.4 164.856 268.173 161.231 267.335 157.75C267.283 157.53 266.952 157.623 267.004 157.841Z" fill="white"/>
<path d="M266.371 174.799C268.603 175.566 270.971 174.649 271.906 172.666C271.998 172.471 271.68 172.296 271.588 172.492C270.711 174.349 268.52 175.182 266.434 174.465C266.214 174.39 266.153 174.724 266.371 174.799Z" fill="white"/>
<path d="M260.492 181.851C259.92 180.905 259.53 179.842 259.345 178.727C259.159 177.611 259.183 176.465 259.413 175.359C259.461 175.146 259.113 175.057 259.065 175.27C258.828 176.422 258.806 177.614 259.001 178.775C259.197 179.936 259.605 181.042 260.202 182.024C260.319 182.224 260.608 182.05 260.492 181.851Z" fill="white"/>
<path d="M267.955 165.008C267.517 164.953 267.095 164.794 266.72 164.54C266.344 164.286 266.024 163.945 265.783 163.54C265.668 163.339 265.379 163.514 265.493 163.714C265.761 164.16 266.115 164.536 266.529 164.818C266.944 165.099 267.409 165.278 267.893 165.342C267.989 165.355 268.078 165.318 268.098 165.219C268.103 165.171 268.091 165.122 268.065 165.082C268.038 165.043 267.999 165.016 267.955 165.008Z" fill="white"/>
<path d="M278.659 107.411L274.509 83.1812L266.361 71.4204L260.323 75.7497C261.176 80.8247 267.63 90.2987 267.63 90.2987L273.351 109.038C273.328 109.135 273.307 109.234 273.292 109.335C273.201 109.927 273.251 110.536 273.437 111.101C273.624 111.667 273.94 112.17 274.355 112.562C274.771 112.954 275.272 113.222 275.809 113.34C276.347 113.458 276.903 113.422 277.424 113.235C277.945 113.048 278.413 112.717 278.784 112.274C279.154 111.831 279.414 111.291 279.538 110.705C279.662 110.12 279.647 109.509 279.493 108.932C279.339 108.355 279.052 107.831 278.659 107.411Z" fill="#FFD8BF"/>
<path d="M260.485 78.3098L267.321 72.2251L267.334 72.1929C268.613 69.0156 265.774 63.5675 263.167 59.5566C262.307 58.2349 261.021 57.3208 259.569 56.9991C258.118 56.6774 256.609 56.9721 255.348 57.8236C254.422 58.4587 253.676 59.3652 253.195 60.4408C252.713 61.5164 252.516 62.7182 252.625 63.9102L253.2 69.9802L260.485 78.3098Z" fill="#595959"/>
<path d="M236.325 198.894L231.777 198.893L229.613 179.654L236.326 179.654L236.325 198.894Z" fill="#FFD8BF"/>
<path d="M237.485 197.265L236.205 197.265L231.207 195.036L228.528 197.265H228.528C227.014 197.265 225.562 197.924 224.491 199.098C223.421 200.272 222.819 201.865 222.819 203.525V203.728L237.485 203.729L237.485 197.265Z" fill="#262626"/>
<path d="M256.507 198.894L251.959 198.893L249.795 179.654L256.508 179.654L256.507 198.894Z" fill="#FFD8BF"/>
<path d="M257.668 197.265L256.388 197.265L251.389 195.036L248.71 197.265H248.71C247.196 197.265 245.744 197.924 244.674 199.098C243.603 200.272 243.002 201.865 243.001 203.525V203.728L257.668 203.729L257.668 197.265Z" fill="#262626"/>
<path d="M263.443 116.021C263.443 116.021 263.974 123.011 262.646 129.709C261.318 136.407 261.318 155.271 261.318 155.271L258.397 192.031L249.634 191.157L247.244 129.709L238.746 150.386L239.543 153.298L238.482 154.026C238.482 154.026 239.277 159.705 238.746 159.705C238.215 159.705 236.887 160.579 236.887 160.579L237.949 190.575L228.921 190.284L225.734 148.056L229.186 123.885L229.452 119.225L230.647 119.279L231.255 117.332L232.373 113.983L263.443 116.021Z" fill="#262626"/>
<path d="M263.902 117.49L263.949 117.417C266.477 113.536 262.675 104.21 262.102 102.858L264.517 101.999L263.973 96.9292L263.715 94.6691L265.561 92.6449L265.566 92.5944L266.629 82.4016L268.173 75.6316C268.755 73.0723 268.705 70.3893 268.029 67.858C267.353 65.3266 266.075 63.0382 264.326 61.2276L260.756 57.5362L256.418 50.4961H249.421L247.022 55.4654C244.696 56.0549 242.633 57.5205 241.191 59.607C239.749 61.6934 239.021 64.2684 239.132 66.8834L239.676 79.9164L237.547 96.1436L237.546 99.0803L235.151 102L235.674 104.868L233.851 105.724L233.046 109.844C232.713 110.326 230.514 113.541 230.514 114.42C230.514 114.552 230.603 114.679 230.793 114.821C232.292 115.933 240.574 118.202 244.239 116.593C248.144 114.881 263.665 117.45 263.821 117.476L263.902 117.49Z" fill="#595959"/>
<path d="M203.059 203.611C203.059 203.714 203.096 203.813 203.162 203.886C203.228 203.959 203.318 204 203.412 204H286.993C287.087 204 287.177 203.959 287.244 203.886C287.311 203.813 287.348 203.714 287.348 203.611C287.348 203.508 287.311 203.409 287.244 203.336C287.177 203.263 287.087 203.222 286.993 203.222H203.414C203.32 203.221 203.23 203.262 203.164 203.335C203.097 203.407 203.06 203.506 203.059 203.609V203.611Z" fill="#BFBFBF"/>
<path d="M252.016 48.2234C257.133 48.2234 261.282 43.6739 261.282 38.0618C261.282 32.4497 257.133 27.9001 252.016 27.9001C246.898 27.9001 242.75 32.4497 242.75 38.0618C242.75 43.6739 246.898 48.2234 252.016 48.2234Z" fill="#FFD8BF"/>
<path d="M251.128 48.3879C252.563 48.3719 253.994 48.2214 255.406 47.9382C256.803 47.5851 259.887 44.9703 260.727 43.4256C261.351 42.2779 261.726 40.5027 261.931 39.2157C262.207 37.5124 262.154 35.7644 261.775 34.0851C261.395 32.4058 260.699 30.8325 259.73 29.4671C259.357 28.8951 258.849 28.4444 258.262 28.1627C258.21 28.1421 258.156 28.124 258.102 28.1088C257.25 27.8885 256.478 27.3941 255.884 26.6888C255.768 26.546 255.644 26.4125 255.511 26.2893C254.845 25.7043 254.062 25.3005 253.226 25.1109C251.875 24.7553 249.944 25.201 247.485 26.4367C246.249 27.0575 244.878 26.8843 243.821 26.664C243.762 26.6532 243.701 26.6596 243.645 26.6826C243.588 26.7055 243.539 26.7442 243.5 26.7949C243.064 27.2679 242.48 27.5423 241.867 27.5629C241.492 27.5916 241.111 28.1732 240.652 28.9305C240.548 29.1025 240.427 29.3031 240.338 29.4255L240.321 29.1956L240.114 29.4585C239.79 29.8717 239.566 30.3683 239.464 30.902C239.361 31.4356 239.384 31.989 239.529 32.5107C239.674 33.0323 239.937 33.5051 240.294 33.8852C240.65 34.2653 241.089 34.5402 241.568 34.6843C241.949 34.7839 242.338 34.8406 242.729 34.8536C242.966 34.8702 243.211 34.8874 243.446 34.9254C244.203 35.073 244.911 35.4332 245.503 35.9709C246.094 36.5085 246.549 37.2051 246.821 37.9927C246.886 38.1748 246.987 38.3381 247.118 38.4702C247.25 38.6023 247.407 38.6996 247.577 38.7546C247.748 38.8095 247.928 38.8207 248.104 38.7872C248.279 38.7538 248.445 38.6766 248.589 38.5615C248.828 38.3461 249.112 38.1973 249.415 38.1279C249.718 38.0584 250.032 38.0704 250.329 38.1628C250.589 38.3113 250.793 38.553 250.909 38.8474C251.049 39.175 251.275 39.4494 251.558 39.6356C252.523 40.1469 252.645 42.5298 252.349 44.5274C252.065 46.4529 251.446 47.8575 250.844 47.9431C250.381 48.009 250.329 48.0466 250.297 48.1377L250.269 48.2191L250.323 48.2931C250.582 48.3878 250.857 48.4202 251.128 48.3879Z" fill="#262626"/>
<path d="M149.295 100.765C159.471 100.765 167.72 91.7191 167.72 80.5599C167.72 69.4006 159.471 60.3542 149.295 60.3542C139.119 60.3542 130.87 69.4006 130.87 80.5599C130.87 91.7191 139.119 100.765 149.295 100.765Z" fill="#FA8C16"/>
<path d="M248.994 77.5529L242.916 73.2905C239.046 76.2261 233.816 86.568 233.816 86.568L220.579 99.9792C220.027 100.083 219.51 100.344 219.08 100.737C218.65 101.129 218.322 101.639 218.128 102.215C217.935 102.79 217.883 103.412 217.979 104.017C218.074 104.621 218.313 105.188 218.671 105.659C219.029 106.13 219.495 106.489 220.02 106.701C220.545 106.912 221.112 106.968 221.663 106.863C222.214 106.758 222.731 106.495 223.16 106.102C223.589 105.708 223.916 105.197 224.109 104.621L242.557 90.527L248.994 77.5529Z" fill="#FFD8BF"/>
<path d="M248.414 79.2826L252.462 68.6287L250.998 62.7411C250.707 61.5864 250.127 60.5441 249.324 59.7319C248.521 58.9197 247.526 58.37 246.453 58.1449C244.997 57.8506 243.493 58.1737 242.246 59.049C240.998 59.9243 240.1 61.2864 239.733 62.8599C238.625 67.6329 237.773 73.8379 240.013 76.2936L240.035 76.3184L248.414 79.2826Z" fill="#595959"/>
<path d="M12.6903 197.835C4.7669 193.375 -0.981731 184.757 0.220137 175.546C7.25166 182.206 16.9736 186.126 27.1192 186.393C31.0708 186.497 35.508 186.21 38.3086 188.741C40.0512 190.316 40.7875 192.746 40.8202 195.143C40.8527 197.54 40.2535 199.945 39.6582 202.318L39.8018 202.89C30.3378 203.221 20.6138 202.295 12.6903 197.835Z" fill="#F0F0F0"/>
<path d="M0.418767 175.53C3.33753 182.296 8.57123 188.032 15.181 191.513C16.6281 192.316 18.1775 192.874 19.7767 193.169C21.4069 193.414 23.0667 193.234 24.622 192.645C26.0954 192.123 27.5532 191.426 29.1049 191.253C29.8648 191.163 30.6333 191.243 31.3645 191.486C32.0957 191.73 32.7746 192.133 33.3605 192.671C34.7531 193.938 35.556 195.653 36.2792 197.361C37.0821 199.257 37.8842 201.241 39.5253 202.571C39.7241 202.732 39.4317 203.043 39.2332 202.882C36.378 200.568 36.0724 196.551 33.8302 193.791C32.784 192.502 31.3079 191.543 29.5004 191.626C27.9198 191.699 26.4161 192.416 24.9279 192.958C23.4134 193.554 21.8001 193.787 20.1966 193.641C18.582 193.428 17.0092 192.931 15.5391 192.169C12.3406 190.576 9.39934 188.425 6.83031 185.798C3.99113 182.928 1.67823 179.489 0.0160437 175.667C-0.0847794 175.433 0.3186 175.298 0.418767 175.53Z" fill="white"/>
<path d="M12.9626 190.497C11.2257 192.669 8.16857 193.404 5.82369 192.225C5.59269 192.109 5.79475 191.739 6.02606 191.855C7.14814 192.38 8.39202 192.506 9.58277 192.216C10.7735 191.925 11.8513 191.232 12.6644 190.235C12.8353 190.021 13.1325 190.284 12.9626 190.497Z" fill="white"/>
<path d="M23.9035 193.004C23.7852 191.698 23.4162 190.434 22.8206 189.296C22.225 188.158 21.4163 187.171 20.4479 186.4C20.2497 186.239 20.542 185.928 20.74 186.09C21.7462 186.894 22.5855 187.923 23.2028 189.108C23.82 190.294 24.2011 191.61 24.3209 192.969C24.3422 193.228 23.9247 193.261 23.9035 193.004Z" fill="white"/>
<path d="M4.47697 182.661C4.87323 182.349 5.1901 181.93 5.39754 181.446C5.60498 180.961 5.6961 180.426 5.66226 179.892C5.63755 179.634 6.05512 179.601 6.07968 179.858C6.11464 180.448 6.01344 181.038 5.78544 181.574C5.55745 182.109 5.21 182.573 4.7752 182.923C4.73574 182.963 4.68511 182.987 4.63152 182.992C4.57793 182.996 4.52454 182.981 4.48004 182.948C4.46082 182.93 4.44528 182.908 4.43452 182.884C4.42376 182.859 4.41803 182.832 4.41774 182.805C4.41744 182.778 4.42259 182.751 4.43283 182.726C4.44306 182.701 4.45812 182.679 4.47697 182.661Z" fill="white"/>
<path d="M27.3254 156.926C27.3456 157.087 27.3658 157.247 27.3891 157.409C27.6714 159.562 28.1366 161.681 28.7785 163.739C28.8255 163.899 28.8756 164.06 28.9273 164.218C30.557 169.203 33.1228 173.757 36.4586 177.586C37.8174 179.15 39.2901 180.59 40.8622 181.892C43.0535 183.71 45.5915 185.499 46.9423 187.892C47.0858 188.139 47.2131 188.397 47.3235 188.663L40.5225 202.622C40.4913 202.647 40.4631 202.674 40.4317 202.7L40.1855 203.267C40.0983 203.205 40.0095 203.139 39.9223 203.077C39.8716 203.041 39.8224 203.003 39.7717 202.967C39.7384 202.942 39.7051 202.917 39.6734 202.897C39.6623 202.889 39.6512 202.88 39.6432 202.873C39.6116 202.853 39.5846 202.83 39.5561 202.811C39.0582 202.443 38.5624 202.07 38.0686 201.693C38.0654 201.692 38.0654 201.692 38.0638 201.687C34.3097 198.805 30.7941 195.574 27.9355 191.887C27.8495 191.776 27.7603 191.664 27.6774 191.546C26.4073 189.89 25.2784 188.109 24.3048 186.227C23.7805 185.203 23.3106 184.147 22.8975 183.064C21.838 180.266 21.2486 177.281 21.1577 174.254C20.9717 168.188 22.7899 161.986 27.0003 157.283C27.1081 157.163 27.2145 157.045 27.3254 156.926Z" fill="#F0F0F0"/>
<path d="M27.4862 157.029C25.4896 164.453 25.8747 172.37 28.6947 179.193C29.2784 180.707 30.1027 182.095 31.1292 183.293C32.2317 184.473 33.6049 185.305 35.1033 185.699C36.5371 186.125 38.067 186.394 39.3432 187.16C39.9695 187.531 40.5067 188.06 40.9109 188.703C41.3152 189.346 41.5749 190.085 41.6689 190.859C41.932 192.747 41.4737 194.665 40.9595 196.531C40.3886 198.603 39.7625 200.749 40.1737 202.836C40.2235 203.089 39.8107 203.179 39.7609 202.927C39.0454 199.295 41.3054 195.727 41.3285 192.08C41.3392 190.377 40.8221 188.7 39.4092 187.708C38.1738 186.84 36.5965 186.561 35.1399 186.143C33.6667 185.776 32.2979 185.019 31.1529 183.938C30.0652 182.804 29.1845 181.453 28.558 179.957C27.1181 176.66 26.2343 173.104 25.9491 169.461C25.6028 165.234 25.9928 160.974 27.0984 156.907C27.1674 156.65 27.5547 156.774 27.4862 157.029Z" fill="white"/>
<path d="M27.654 177.032C24.9987 177.844 22.2408 176.666 21.2059 174.292C21.1039 174.058 21.4853 173.865 21.5874 174.1C22.5569 176.323 25.1096 177.394 27.5917 176.635C27.8529 176.556 27.9137 176.952 27.654 177.032Z" fill="white"/>
<path d="M34.3398 185.579C35.0451 184.489 35.541 183.253 35.7974 181.946C36.0538 180.639 36.0654 179.288 35.8314 177.976C35.7825 177.723 36.1953 177.633 36.2441 177.886C36.4849 179.252 36.4701 180.658 36.2004 182.017C35.9308 183.377 35.4121 184.662 34.6757 185.796C34.5312 186.027 34.196 185.809 34.3398 185.579Z" fill="white"/>
<path d="M26.1211 165.432C26.6392 165.386 27.1416 165.215 27.5927 164.932C28.0437 164.648 28.4322 164.259 28.7305 163.792C28.872 163.56 29.207 163.777 29.0664 164.008C28.7348 164.523 28.3053 164.952 27.8075 165.266C27.3096 165.581 26.7555 165.772 26.1834 165.828C26.0698 165.839 25.9655 165.792 25.9459 165.675C25.9412 165.618 25.9568 165.561 25.9894 165.515C26.022 165.47 26.0691 165.44 26.1211 165.432Z" fill="white"/>
<path d="M51.2957 86.9675L51.8926 93.0385L51.5414 100.999L67.6202 98.9043L69.1311 86.9675L67.206 86.9881L51.2957 86.9675Z" fill="#FFD8BF"/>
<path d="M42.9561 197.188H46.4714L48.1445 182.318H42.9561V197.188Z" fill="#FFD8BF"/>
<path d="M41.8087 194.548L47.4249 194.18V196.819L52.7644 200.863C53.0281 201.062 53.2267 201.349 53.3312 201.682C53.4358 202.014 53.4407 202.374 53.3453 202.71C53.2499 203.045 53.0592 203.339 52.8011 203.547C52.5429 203.755 52.2308 203.867 51.9103 203.867H45.224L44.0716 201.257L43.6216 203.867H41.1006L41.8087 194.548Z" fill="#262626"/>
<path d="M62.7021 197.188H66.2175L67.8903 182.318H62.7021V197.188Z" fill="#FFD8BF"/>
<path d="M61.5548 194.548L67.171 194.18V196.819L72.5105 200.863C72.7742 201.062 72.9729 201.349 73.0774 201.682C73.1819 202.014 73.1868 202.374 73.0914 202.71C72.996 203.045 72.8054 203.339 72.5472 203.547C72.289 203.755 71.9769 203.867 71.6564 203.867H64.9701L63.8176 201.257L63.3677 203.867H60.8467L61.5548 194.548Z" fill="#262626"/>
<path d="M41.4392 184.365H41.4774L42.1535 160.187C41.716 159.262 41.494 158.232 41.5072 157.19C41.5204 156.147 41.7684 155.125 42.2292 154.213L42.3259 154.021L42.075 152.745C41.7526 151.106 41.9006 149.398 42.4984 147.854L43.1291 125.301C40.8759 109.287 51.6142 98.8425 51.6142 98.8425H67.7004L71.154 111.855C73.437 136.248 73.0228 160.019 69.3999 183.048L69.4986 183.103C69.8543 183.238 70.0068 183.778 69.8394 184.31C69.672 184.842 69.248 185.164 68.8924 185.029L60.397 184.705C60.0414 184.57 59.8888 184.03 60.0562 183.498C60.2236 182.966 60.6476 182.644 61.0033 182.779L61.5809 183.099L60.349 159.769L60.4857 155.507L60.2041 150.673L58.9019 128.927L53.9729 155.668L48.9383 184.634C49.0771 184.772 49.1746 184.953 49.2178 185.153C49.261 185.353 49.2479 185.562 49.1803 185.754C49.1126 185.945 48.9936 186.11 48.8389 186.226C48.6842 186.342 48.5011 186.403 48.3137 186.403H41.4392C41.3171 186.403 41.1961 186.377 41.0832 186.326C40.9703 186.275 40.8677 186.2 40.7812 186.105C40.6948 186.01 40.6262 185.898 40.5794 185.774C40.5326 185.65 40.5085 185.518 40.5085 185.384C40.5085 185.25 40.5326 185.117 40.5794 184.993C40.6262 184.87 40.6948 184.757 40.7812 184.663C40.8677 184.568 40.9703 184.493 41.0832 184.442C41.1961 184.391 41.3171 184.365 41.4392 184.365Z" fill="#262626"/>
<path d="M54.1035 55.9016C58.8687 55.9016 62.7317 51.6652 62.7317 46.4394C62.7317 41.2136 58.8687 36.9773 54.1035 36.9773C49.3383 36.9773 45.4753 41.2136 45.4753 46.4394C45.4753 51.6652 49.3383 55.9016 54.1035 55.9016Z" fill="#FFD8BF"/>
<path d="M16.2952 90.1538C17.5078 87.0666 19.173 84.2178 21.2248 81.7204C19.4873 84.757 18.4944 88.2342 18.3421 91.8151C18.9711 92.2461 19.6293 92.6236 20.3108 92.9444C22.359 93.8865 24.5427 94.4245 26.7615 94.5336C27.9574 90.1643 30.0215 86.1399 32.8054 82.7501C30.7991 86.2587 29.7902 90.3427 29.9071 94.4822C32.3819 94.2475 34.8202 93.6744 37.1653 92.7762C40.6865 91.4479 44.1043 89.4639 46.5394 86.3782C49.1748 83.0384 50.4737 78.6312 50.8931 74.2377C51.3125 69.8476 50.9181 65.4163 50.5206 61.0228C50.3328 58.9291 51.9228 56.5195 51.735 54.4257H51.6098C50.7741 53.1694 49.9228 51.8823 49.5128 50.3926C49.1059 48.9064 49.2123 47.1524 50.1482 45.9819C50.6725 45.3704 51.3341 44.9206 52.0668 44.6776C52.1357 44.5815 52.2108 44.4888 52.289 44.3961C53.7062 42.7453 55.3742 41.3772 57.2186 40.3527C55.8884 41.4545 54.9995 42.7005 54.5864 43.9877C55.7382 43.7097 56.89 43.4328 58.0418 43.157C58.4267 42.7092 58.832 42.2831 59.2562 41.8802C59.8728 41.2932 60.0762 41.2486 60.8117 40.696C60.2179 41.2689 59.7576 41.9891 59.469 42.7966C60.9495 42.3882 62.4299 41.7738 63.1999 40.3768C64.4769 38.0667 62.9588 34.9501 60.8399 33.5703C59.2985 32.6154 57.5225 32.2159 55.7628 32.4284C54.0031 32.6409 52.3489 33.4546 51.0339 34.7545C47.9698 32.2796 43.6067 32.3208 40.1982 34.1709C37.948 35.447 36.0096 37.2961 34.5456 39.5633C35.3948 39.4438 36.2497 39.3784 37.1059 39.3676C35.9007 39.5611 34.753 40.0593 33.7537 40.823C33.3116 41.5758 32.9063 42.3537 32.5393 43.1536C32.2983 43.6788 32.0709 44.2108 31.857 44.7497C30.5456 48.0242 29.6911 51.5116 28.8054 54.9577C27.7725 58.9736 26.6645 63.017 24.7302 66.6108C21.7645 72.0753 17.0861 76.1689 11.569 78.1266C11.1089 82.6677 13.1308 87.1093 16.2952 90.1538Z" fill="#262626"/>
<path d="M62.7923 62.2292L61.1177 61.5396L59.006 57.7952L51.4842 58.4692L49.656 62.4841L45.2517 66.1727L47.1778 77.297L50.1702 90.8096L70.2015 88.0637L70.1804 77.8916C70.1804 77.8916 73.8001 69.855 67.953 66.8436L62.7923 62.2292Z" fill="#FA8C16"/>
<path d="M93.6686 97.5134C93.2798 97.6846 92.8614 97.7602 92.443 97.7349C92.0246 97.7096 91.6164 97.584 91.2471 97.367C90.8777 97.1499 90.5563 96.8467 90.3054 96.4787C90.0545 96.1107 89.8802 95.6868 89.7948 95.2369L67.46 80.4159L71.5424 75.2505L92.2131 91.4433C92.9118 91.3361 93.622 91.5137 94.2093 91.9424C94.7965 92.3711 95.22 93.0211 95.3994 93.7694C95.5788 94.5176 95.5017 95.312 95.1827 96.002C94.8637 96.6921 94.325 97.2299 93.6686 97.5134Z" fill="#FFD8BF"/>
<path d="M60.0176 73.3878C60.0176 73.3878 58.9502 74.5655 61.6285 76.5021C63.7726 78.0525 73.3364 85.7141 76.7266 86.9259C76.6842 87.472 76.8086 88.0181 77.0804 88.4781C77.3521 88.9381 77.7556 89.2859 78.2274 89.4667L81.2971 82.0691C80.6326 80.3779 79.5698 80.7695 79.0106 81.1529L75.3033 78.0954L66.1997 68.1262L60.7754 72.5214L60.0176 73.3878Z" fill="#FA8C16"/>
<path d="M51.0886 35.012C50.0515 36.6902 49.3815 38.6083 49.1308 40.6169C48.8801 42.6254 49.0553 44.6704 49.643 46.5926" fill="#FF7A45"/>
<path d="M7.31494 203.611C7.3148 203.662 7.32389 203.713 7.34167 203.76C7.35946 203.807 7.38559 203.85 7.41857 203.887C7.45155 203.923 7.49073 203.951 7.53384 203.971C7.57696 203.99 7.62317 204 7.6698 204H91.2487C91.3429 204 91.4331 203.959 91.4997 203.886C91.5662 203.813 91.6036 203.714 91.6036 203.611C91.6036 203.508 91.5662 203.409 91.4997 203.336C91.4331 203.263 91.3429 203.222 91.2487 203.222H7.6698C7.62317 203.222 7.57696 203.231 7.53385 203.251C7.49073 203.27 7.45155 203.299 7.41857 203.335C7.38559 203.372 7.35946 203.414 7.34167 203.462C7.32389 203.509 7.31481 203.56 7.31494 203.611Z" fill="#BFBFBF"/>
<path d="M39.1584 115.164C38.9502 115.244 38.7795 115.412 38.6839 115.63C38.5882 115.848 38.5754 116.099 38.6482 116.328L50.2926 153.133C50.3659 153.361 50.5189 153.549 50.7179 153.653C50.917 153.758 51.1458 153.772 51.3543 153.692L119.108 127.623C119.317 127.542 119.487 127.374 119.583 127.156C119.679 126.938 119.691 126.687 119.619 126.458L107.974 89.6532C107.901 89.4247 107.748 89.2376 107.549 89.1327C107.35 89.0278 107.121 89.0138 106.912 89.0937L39.1584 115.164Z" fill="#D9D9D9"/>
<path d="M56.308 148.381C54.9747 148.38 53.6741 147.927 52.5851 147.083C51.4961 146.239 50.6721 145.046 50.2262 143.668L43.8315 123.827C43.2619 122.06 43.3558 120.117 44.0925 118.425C44.8292 116.734 46.1484 115.433 47.7598 114.808L82.0034 101.535C88.4136 99.0596 95.4575 99.4734 101.59 102.686C107.722 105.899 112.442 111.648 114.714 118.672C115.284 120.439 115.19 122.382 114.453 124.073C113.716 125.764 112.397 127.065 110.786 127.69L58.4494 147.976C57.7617 148.243 57.0376 148.38 56.308 148.381Z" fill="white"/>
<path d="M101.719 109.268L71.0568 121.066C70.6248 121.232 70.0894 120.788 69.8609 120.074C69.6324 119.36 69.7974 118.646 70.2294 118.48L100.892 106.682C101.324 106.516 101.859 106.96 102.087 107.674C102.316 108.388 102.151 109.103 101.719 109.268Z" fill="#D9D9D9"/>
<path d="M104.09 116.681L73.4284 128.479C72.9964 128.646 72.4609 128.201 72.2325 127.487C72.004 126.773 72.169 126.059 72.601 125.893L103.263 114.095C103.695 113.929 104.231 114.373 104.459 115.087C104.688 115.802 104.522 116.515 104.09 116.681Z" fill="#D9D9D9"/>
<path d="M66.908 125.099C67.2372 126.117 67.3972 127.191 67.3802 128.27C67.3738 128.764 67.3292 129.257 67.2471 129.743C66.9858 131.312 66.3512 132.778 65.4075 133.992C64.4639 135.206 63.2446 136.125 61.8731 136.657C60.5015 137.189 59.0263 137.314 57.5965 137.019C56.1668 136.725 54.8332 136.022 53.7306 134.982C53.6193 134.877 53.5109 134.769 53.4054 134.658C52.505 133.712 51.8116 132.554 51.3774 131.272C50.9432 129.99 50.7793 128.616 50.8982 127.255C51.0171 125.893 51.4155 124.579 52.0637 123.411C52.7119 122.242 53.5929 121.25 54.6407 120.508C55.6886 119.766 56.876 119.294 58.1139 119.128C59.3518 118.961 60.608 119.104 61.7883 119.546C62.9687 119.987 64.0425 120.717 64.9291 121.678C65.8158 122.64 66.4923 123.81 66.908 125.099Z" fill="#F0F0F0"/>
<path d="M59.4642 129.501C60.3363 129.501 61.0432 128.726 61.0432 127.77C61.0432 126.813 60.3363 126.038 59.4642 126.038C58.5922 126.038 57.8853 126.813 57.8853 127.77C57.8853 128.726 58.5922 129.501 59.4642 129.501Z" fill="#FF7A45"/>
<path d="M53.4055 134.658C53.8109 133.627 54.29 132.052 55.3998 132.625C55.9481 132.886 56.93 133.678 57.3287 132.757L60.4506 125.59C60.5098 125.457 60.5927 125.337 60.6945 125.239C60.7964 125.141 60.915 125.067 61.0436 125.02C61.1721 124.973 61.3079 124.954 61.4429 124.966C61.578 124.977 61.7097 125.018 61.8302 125.086L67.3803 128.27C67.3738 128.764 67.3293 129.257 67.2472 129.743L53.7307 134.982L53.4055 134.658Z" fill="#595959"/>
<path d="M55.0166 113.493C54.6261 113.327 54.2736 113.068 53.984 112.736C53.6943 112.404 53.4746 112.007 53.3403 111.571C53.206 111.136 53.1603 110.674 53.2065 110.217C53.2528 109.76 53.3897 109.32 53.6078 108.928L46.542 81.3679L52.7413 80.6575L57.7374 107.972C58.3142 108.417 58.722 109.079 58.8835 109.832C59.0449 110.585 58.9489 111.377 58.6135 112.058C58.2781 112.738 57.7267 113.26 57.0638 113.525C56.4009 113.79 55.6725 113.778 55.0166 113.493Z" fill="#FFD8BF"/>
<path d="M45.4968 66.239C45.4968 66.239 43.9836 66.2986 44.7316 69.7197C45.3304 72.4586 47.5295 89.6401 49.2488 93.0659C48.8775 93.4327 48.628 93.9246 48.5396 94.4641C48.4513 95.0035 48.5291 95.5599 48.7608 96.0455L55.6121 92.9465C56.1811 91.214 55.7405 89.6411 55.0933 89.5018L54.2929 84.491L53.1132 67.6813L46.5899 66.1746L45.4968 66.239Z" fill="#FA8C16"/>
<path d="M107.215 138.753L97.7401 139.183C97.5377 139.193 97.3359 139.152 97.1499 139.064C96.9639 138.976 96.7984 138.843 96.666 138.675C96.5353 138.511 96.4401 138.317 96.3876 138.107C96.3351 137.897 96.3266 137.677 96.3628 137.463C97.0899 133.114 96.878 128.64 95.744 124.398C95.6565 124.073 95.6742 123.726 95.7943 123.414C95.9144 123.102 96.1293 122.846 96.4024 122.689C100.283 120.477 103.92 120.365 107.21 122.355C107.383 122.458 107.533 122.6 107.65 122.773C107.767 122.946 107.848 123.145 107.888 123.356C108.744 127.985 108.95 132.73 108.497 137.428C108.465 137.781 108.318 138.11 108.083 138.354C107.847 138.597 107.539 138.739 107.215 138.753Z" fill="#FA8C16"/>
<path d="M106.814 131.952L99.5695 132.282C99.4802 132.286 99.3911 132.271 99.3071 132.237C99.2232 132.203 99.1461 132.152 99.0804 132.085C99.0146 132.019 98.9614 131.939 98.9237 131.85C98.8861 131.761 98.8649 131.665 98.8612 131.567C98.8575 131.469 98.8714 131.371 98.9022 131.279C98.933 131.187 98.98 131.103 99.0405 131.031C99.1011 130.958 99.174 130.9 99.2551 130.859C99.3362 130.818 99.4239 130.795 99.5132 130.791L106.758 130.461C106.847 130.457 106.937 130.473 107.02 130.506C107.104 130.54 107.181 130.592 107.247 130.658C107.313 130.724 107.366 130.804 107.403 130.893C107.441 130.982 107.462 131.078 107.466 131.176C107.47 131.274 107.456 131.372 107.425 131.464C107.394 131.556 107.347 131.64 107.287 131.712C107.226 131.784 107.153 131.843 107.072 131.884C106.991 131.925 106.904 131.948 106.814 131.952Z" fill="white"/>
<path d="M106.716 129.338L99.4708 129.668C99.2905 129.676 99.1147 129.605 98.982 129.471C98.8493 129.337 98.7705 129.151 98.763 128.953C98.7556 128.755 98.82 128.562 98.9422 128.417C99.0644 128.271 99.2343 128.185 99.4145 128.176L106.659 127.847C106.84 127.839 107.016 127.91 107.148 128.044C107.281 128.178 107.36 128.364 107.367 128.562C107.375 128.76 107.31 128.953 107.188 129.098C107.066 129.244 106.896 129.33 106.716 129.338Z" fill="white"/>
<path d="M280.509 57.4673L271.106 56.1148C270.905 56.0864 270.713 56.0084 270.543 55.8868C270.374 55.7652 270.231 55.603 270.127 55.4125C270.024 55.2266 269.96 55.0174 269.941 54.8007C269.922 54.584 269.948 54.3654 270.017 54.1613C271.412 50.0135 271.9 45.5651 271.444 41.1728C271.409 40.8367 271.48 40.4975 271.647 40.2129C271.814 39.9283 272.066 39.716 272.36 39.6122C276.528 38.1611 280.129 38.7325 283.06 41.3098C283.214 41.4434 283.34 41.6122 283.428 41.8044C283.517 41.9966 283.566 42.2076 283.572 42.4227C283.694 47.1443 283.157 51.8585 281.978 56.4017C281.892 56.7441 281.696 57.0407 281.426 57.2366C281.156 57.4325 280.83 57.5145 280.509 57.4673Z" fill="#FA8C16"/>
<path d="M281.174 50.6913L273.985 49.6572C273.896 49.6444 273.811 49.6127 273.733 49.5638C273.656 49.5148 273.588 49.4496 273.534 49.372C273.479 49.2943 273.439 49.2056 273.416 49.111C273.393 49.0164 273.387 48.9177 273.399 48.8206C273.41 48.7234 273.439 48.6298 273.484 48.5449C273.529 48.4601 273.588 48.3857 273.659 48.326C273.73 48.2663 273.811 48.2225 273.897 48.1971C273.983 48.1717 274.073 48.1652 274.162 48.178L281.351 49.2121C281.53 49.2378 281.692 49.3404 281.802 49.4973C281.912 49.6542 281.961 49.8525 281.937 50.0487C281.914 50.2449 281.82 50.4228 281.677 50.5433C281.534 50.6638 281.353 50.717 281.174 50.6913Z" fill="white"/>
<path d="M281.485 48.0975L274.295 47.0634C274.206 47.0508 274.121 47.0192 274.043 46.9703C273.966 46.9214 273.898 46.8563 273.843 46.7785C273.789 46.7008 273.748 46.6121 273.725 46.5173C273.702 46.4226 273.696 46.3238 273.708 46.2266C273.719 46.1293 273.748 46.0355 273.793 45.9506C273.838 45.8657 273.897 45.7912 273.968 45.7316C274.039 45.6719 274.12 45.6282 274.207 45.6029C274.293 45.5776 274.383 45.5712 274.472 45.5842L281.661 46.6183C281.75 46.6308 281.836 46.6625 281.913 46.7113C281.991 46.7602 282.059 46.8254 282.113 46.9031C282.168 46.9808 282.208 47.0696 282.231 47.1643C282.254 47.259 282.26 47.3578 282.249 47.4551C282.237 47.5523 282.208 47.6461 282.163 47.731C282.119 47.816 282.059 47.8904 281.988 47.9501C281.917 48.0098 281.836 48.0535 281.75 48.0788C281.663 48.1041 281.573 48.1104 281.485 48.0975Z" fill="white"/>
<path d="M155.259 77.4533H152.128V74.0197C152.128 73.1958 151.829 72.4056 151.298 71.823C150.767 71.2404 150.046 70.9131 149.295 70.9131C148.544 70.9131 147.823 71.2404 147.292 71.823C146.761 72.4056 146.462 73.1958 146.462 74.0197V77.4533H143.331C142.58 77.4533 141.859 77.7806 141.328 78.3632C140.797 78.9458 140.498 79.7359 140.498 80.5599C140.498 81.3838 140.797 82.1739 141.328 82.7565C141.859 83.3391 142.58 83.6664 143.331 83.6664H146.462V87.1C146.462 87.924 146.761 88.7141 147.292 89.2967C147.823 89.8793 148.544 90.2066 149.295 90.2066C150.046 90.2066 150.767 89.8793 151.298 89.2967C151.829 88.7141 152.128 87.924 152.128 87.1V83.6664H155.259C156.01 83.6664 156.73 83.3391 157.262 82.7565C157.793 82.1739 158.091 81.3838 158.091 80.5599C158.091 79.7359 157.793 78.9458 157.262 78.3632C156.73 77.7806 156.01 77.4533 155.259 77.4533Z" fill="white"/>
<path d="M256.653 13.9092C258.302 13.9092 259.638 12.4435 259.638 10.6354C259.638 8.82732 258.302 7.36157 256.653 7.36157C255.004 7.36157 253.667 8.82732 253.667 10.6354C253.667 12.4435 255.004 13.9092 256.653 13.9092Z" fill="#595959"/>
<path d="M73.2675 106.453C74.9162 106.453 76.2528 104.987 76.2528 103.179C76.2528 101.371 74.9162 99.9053 73.2675 99.9053C71.6188 99.9053 70.2822 101.371 70.2822 103.179C70.2822 104.987 71.6188 106.453 73.2675 106.453Z" fill="#595959"/>
</g>
<defs>
<clipPath id="clip0_179553_172381">
<rect width="295" height="204" fill="white"/>
</clipPath>
</defs>
</svg>
