<svg width="12" height="12" viewBox="0 0 12 12" fill="none" xmlns="http://www.w3.org/2000/svg">
<path d="M6 7.5C6.41667 7.5 6.77083 7.35417 7.0625 7.0625C7.35417 6.77083 7.5 6.41667 7.5 6C7.5 5.58333 7.35417 5.22917 7.0625 4.9375C6.77083 4.64583 6.41667 4.5 6 4.5C5.58333 4.5 5.22917 4.64583 4.9375 4.9375C4.64583 5.22917 4.5 5.58333 4.5 6C4.5 6.41667 4.64583 6.77083 4.9375 7.0625C5.22917 7.35417 5.58333 7.5 6 7.5ZM6 8.5C5.30833 8.5 4.71867 8.25617 4.231 7.7685C3.74333 7.28083 3.49967 6.69133 3.5 6C3.5 5.30833 3.74383 4.71867 4.2315 4.231C4.71917 3.74333 5.30867 3.49967 6 3.5C6.69167 3.5 7.28133 3.74383 7.769 4.2315C8.25667 4.71917 8.50033 5.30867 8.5 6C8.5 6.69167 8.25617 7.28133 7.7685 7.769C7.28083 8.25667 6.69133 8.50033 6 8.5ZM0.5 6.5V5.5H2.5V6.5H0.5ZM9.5 6.5V5.5H11.5V6.5H9.5ZM5.5 2.5V0.5H6.5V2.5H5.5ZM5.5 11.5V9.5H6.5V11.5H5.5ZM3.175 3.875L1.9375 2.6375L2.6375 1.9375L3.875 3.175L3.175 3.875ZM9.3625 10.0625L8.125 8.825L8.825 8.125L10.0625 9.3625L9.3625 10.0625ZM8.825 3.875L8.125 3.175L9.3625 1.9375L10.0625 2.6375L8.825 3.875ZM2.6375 10.0625L1.9375 9.3625L3.175 8.125L3.875 8.825L2.6375 10.0625Z" fill="white"/>
</svg>
