<svg width="475" height="302" viewBox="0 0 475 302" fill="none" xmlns="http://www.w3.org/2000/svg">
<g clip-path="url(#clip0_903_643)">
<path d="M474.798 0H0V20.0181H474.798V0Z" fill="#FFA940"/>
<path d="M14.7386 13.4205C16.8034 13.4205 18.4772 11.7594 18.4772 9.7102C18.4772 7.6611 16.8034 6 14.7386 6C12.6739 6 11 7.6611 11 9.7102C11 11.7594 12.6739 13.4205 14.7386 13.4205Z" fill="white" fill-opacity="0.8"/>
<path d="M28.9291 13.4205C30.9939 13.4205 32.6677 11.7594 32.6677 9.7102C32.6677 7.6611 30.9939 6 28.9291 6C26.8644 6 25.1906 7.6611 25.1906 9.7102C25.1906 11.7594 26.8644 13.4205 28.9291 13.4205Z" fill="white" fill-opacity="0.8"/>
<path d="M43.1203 13.4205C45.1851 13.4205 46.8589 11.7594 46.8589 9.7102C46.8589 7.6611 45.1851 6 43.1203 6C41.0555 6 39.3817 7.6611 39.3817 9.7102C39.3817 11.7594 41.0555 13.4205 43.1203 13.4205Z" fill="white" fill-opacity="0.8"/>
<path d="M73.8067 82.1589H19.7305V87.2483H73.8067V82.1589Z" fill="#F0F0F0" fill-opacity="0.6"/>
<path d="M96.2681 82.6589H150.729C151.557 82.6589 152.229 83.3304 152.229 84.1589V115.058C152.229 115.887 151.557 116.558 150.729 116.558H96.2681C95.4396 116.558 94.7681 115.887 94.7681 115.058V84.1589C94.7681 83.3304 95.4396 82.6589 96.2681 82.6589Z" stroke="#D9D9D9" stroke-opacity="0.4"/>
<path d="M96.2681 157.547H150.729C151.557 157.547 152.229 158.219 152.229 159.047V189.946C152.229 190.775 151.557 191.446 150.729 191.446H96.2681C95.4396 191.446 94.7681 190.775 94.7681 189.946V159.047C94.7681 158.219 95.4396 157.547 96.2681 157.547Z" stroke="#D9D9D9" stroke-opacity="0.4"/>
<path d="M169.344 82.6589H223.805C224.633 82.6589 225.305 83.3304 225.305 84.1589V115.058C225.305 115.887 224.633 116.558 223.805 116.558H169.344C168.516 116.558 167.844 115.887 167.844 115.058V84.1589C167.844 83.3304 168.516 82.6589 169.344 82.6589Z" stroke="#D9D9D9" stroke-opacity="0.4"/>
<path d="M169.344 157.547H223.805C224.633 157.547 225.305 158.219 225.305 159.047V189.946C225.305 190.775 224.633 191.446 223.805 191.446H169.344C168.516 191.446 167.844 190.775 167.844 189.946V159.047C167.844 158.219 168.516 157.547 169.344 157.547Z" stroke="#D9D9D9" stroke-opacity="0.4"/>
<path d="M96.2681 220.802H150.729C151.557 220.802 152.229 221.474 152.229 222.302V253.202C152.229 254.03 151.557 254.702 150.729 254.702H96.2681C95.4396 254.702 94.7681 254.03 94.7681 253.202V222.302C94.7681 221.474 95.4396 220.802 96.2681 220.802Z" stroke="#D9D9D9" stroke-opacity="0.4"/>
<path d="M242.42 157.547H296.881C297.709 157.547 298.381 158.219 298.381 159.047V189.946C298.381 190.775 297.709 191.446 296.881 191.446H242.42C241.592 191.446 240.92 190.775 240.92 189.946V159.047C240.92 158.219 241.592 157.547 242.42 157.547Z" stroke="#D9D9D9" stroke-opacity="0.4"/>
<path d="M242.42 82.6589H296.881C297.709 82.6589 298.381 83.3304 298.381 84.1589V115.058C298.381 115.887 297.709 116.558 296.881 116.558H242.42C241.592 116.558 240.92 115.887 240.92 115.058V84.1589C240.92 83.3304 241.592 82.6589 242.42 82.6589Z" stroke="#D9D9D9" stroke-opacity="0.4"/>
<path d="M325.727 50.6675H380.188C381.016 50.6675 381.688 51.3391 381.688 52.1675V62.7089C381.688 63.5373 381.016 64.2089 380.188 64.2089H325.727C324.898 64.2089 324.227 63.5373 324.227 62.7089V52.1675C324.227 51.3391 324.898 50.6675 325.727 50.6675Z" stroke="#D9D9D9" stroke-opacity="0.4"/>
<path d="M392.957 50.6675H447.418C448.246 50.6675 448.918 51.3391 448.918 52.1675V62.7089C448.918 63.5373 448.246 64.2089 447.418 64.2089H392.957C392.128 64.2089 391.457 63.5373 391.457 62.7089V52.1675C391.457 51.3391 392.128 50.6675 392.957 50.6675Z" stroke="#D9D9D9" stroke-opacity="0.4"/>
<path d="M73.8067 93.0647H19.7305V98.1541H73.8067V93.0647Z" fill="#F0F0F0" fill-opacity="0.6"/>
<path d="M80.1528 43.6243V287.92" stroke="#F0F0F0" stroke-opacity="0.6"/>
<path d="M14 44L455 44" stroke="#F0F0F0" stroke-opacity="0.6"/>
<path d="M13.8844 72.2073H79.6528" stroke="#F0F0F0" stroke-opacity="0.6"/>
<path d="M315.496 157.547H369.957C370.785 157.547 371.457 158.219 371.457 159.047V189.946C371.457 190.775 370.785 191.446 369.957 191.446H315.496C314.668 191.446 313.996 190.775 313.996 189.946V159.047C313.996 158.219 314.668 157.547 315.496 157.547Z" stroke="#D9D9D9" stroke-opacity="0.4"/>
<path d="M341.996 179.586V175.224H337.611V173.77H341.996V169.407H343.457V173.77H347.842V175.224H343.457V179.586H341.996Z" fill="#D9D9D9" fill-opacity="0.4"/>
<path d="M169.344 220.802H223.805C224.633 220.802 225.305 221.474 225.305 222.302V253.202C225.305 254.03 224.633 254.702 223.805 254.702H169.344C168.516 254.702 167.844 254.03 167.844 253.202V222.302C167.844 221.474 168.516 220.802 169.344 220.802Z" stroke="#D9D9D9" stroke-opacity="0.4"/>
<path d="M195.844 242.841V238.479H191.459V237.025H195.844V232.662H197.305V237.025H201.69V238.479H197.305V242.841H195.844Z" fill="#D9D9D9" fill-opacity="0.4"/>
<path d="M257.26 97.8186C257.26 106.426 253.491 114.153 247.515 119.433C241.91 123.858 226.699 143.45 221.611 166.96C216.523 190.47 218.358 210.061 240.283 210.061C262.208 210.061 268.702 186.552 245.82 154.951C238.978 145.504 267.601 155.851 269.809 157.354C283.169 166.436 289 176.061 289 190.469C289 221.818 260.457 233.573 243.421 233.573C212.234 233.573 195.591 214.36 193.192 187.943C190.794 161.524 211.68 124.237 209.432 119.433C203.456 114.153 199.685 106.426 199.685 97.8186C199.685 81.9032 212.575 69 228.473 69C244.372 69 257.26 81.9032 257.26 97.8186Z" fill="#F0F0F0"/>
<path d="M246.774 120.057C246.341 120.442 245.868 120.895 245.36 121.412L245.003 121.062C244.573 121.499 244.119 121.982 243.646 122.507L244.017 122.842C243.602 123.303 243.171 123.797 242.726 124.324L242.344 124.001C241.938 124.481 241.521 124.988 241.095 125.521L241.486 125.833C241.091 126.326 240.688 126.842 240.278 127.379L239.881 127.075C239.492 127.585 239.098 128.113 238.7 128.659L239.104 128.954C238.728 129.468 238.349 129.998 237.967 130.544L237.557 130.258C237.189 130.784 236.818 131.325 236.445 131.88L236.86 132.159C236.501 132.692 236.142 133.237 235.781 133.795L235.361 133.524C235.01 134.067 234.659 134.621 234.308 135.187L234.732 135.451C234.392 135.999 234.052 136.557 233.713 137.125L233.283 136.869C232.951 137.426 232.619 137.992 232.289 138.568L232.723 138.817C232.401 139.377 232.081 139.947 231.762 140.525L231.324 140.284C231.011 140.853 230.699 141.431 230.39 142.016L230.832 142.25C230.529 142.822 230.229 143.403 229.932 143.99L229.486 143.765C229.192 144.346 228.901 144.934 228.613 145.529L229.063 145.746C228.781 146.331 228.501 146.921 228.226 147.518L227.772 147.309C227.499 147.901 227.229 148.499 226.964 149.104L227.421 149.305C227.16 149.9 226.903 150.5 226.65 151.106L226.189 150.914C225.937 151.517 225.69 152.125 225.448 152.739L225.913 152.922C225.675 153.528 225.441 154.138 225.212 154.753L224.743 154.578C224.515 155.192 224.293 155.809 224.075 156.432L224.547 156.597C224.333 157.211 224.124 157.831 223.921 158.454L223.445 158.299C223.243 158.921 223.046 159.548 222.855 160.179L223.334 160.323C223.146 160.947 222.963 161.574 222.788 162.204L222.306 162.07C222.131 162.702 221.962 163.336 221.8 163.975L222.284 164.098C222.124 164.729 221.97 165.364 221.824 166.002L221.337 165.891C221.264 166.211 221.192 166.532 221.122 166.854C221.051 167.182 220.982 167.51 220.913 167.837L221.403 167.939C221.266 168.594 221.134 169.246 221.009 169.894L220.518 169.799C220.39 170.459 220.268 171.115 220.153 171.767L220.645 171.855C220.528 172.514 220.418 173.17 220.315 173.821L219.821 173.742C219.715 174.407 219.617 175.068 219.526 175.724L220.021 175.793C219.928 176.457 219.844 177.116 219.767 177.77L219.27 177.712C219.192 178.383 219.121 179.048 219.06 179.707L219.558 179.753C219.495 180.423 219.442 181.085 219.398 181.741L218.899 181.708C218.854 182.384 218.819 183.053 218.794 183.715L219.294 183.733C219.269 184.407 219.255 185.072 219.252 185.728L218.752 185.726C218.75 186.407 218.759 187.079 218.782 187.741L219.282 187.724C219.304 188.399 219.341 189.063 219.391 189.717L218.892 189.755C218.945 190.437 219.012 191.107 219.096 191.764L219.592 191.702C219.677 192.372 219.779 193.029 219.897 193.672L219.406 193.763C219.531 194.437 219.674 195.097 219.838 195.74L220.322 195.617C220.489 196.273 220.676 196.911 220.885 197.53L220.411 197.69C220.631 198.344 220.875 198.979 221.144 199.593L221.602 199.393C221.873 200.01 222.168 200.604 222.49 201.176L222.055 201.421C222.393 202.022 222.761 202.598 223.158 203.148L223.563 202.855C223.954 203.396 224.375 203.911 224.825 204.397L224.459 204.737C224.924 205.239 225.42 205.712 225.949 206.154L226.27 205.771C226.774 206.192 227.308 206.585 227.874 206.949L227.603 207.37C228.17 207.734 228.766 208.069 229.394 208.374L229.612 207.924C230.198 208.208 230.812 208.466 231.455 208.696L231.287 209.167C231.91 209.39 232.559 209.587 233.234 209.758L233.357 209.273C233.982 209.431 234.632 209.566 235.306 209.678L235.224 210.171C235.874 210.278 236.544 210.364 237.237 210.427L237.282 209.929C237.925 209.988 238.589 210.028 239.272 210.047L239.258 210.547C239.595 210.557 239.937 210.561 240.283 210.561C240.622 210.561 240.958 210.556 241.29 210.545L241.273 210.045C241.939 210.023 242.59 209.979 243.225 209.912L243.277 210.409C243.952 210.339 244.611 210.244 245.252 210.125L245.161 209.633C245.815 209.512 246.451 209.365 247.067 209.194L247.201 209.675C247.856 209.493 248.49 209.283 249.103 209.047L248.923 208.58C249.541 208.342 250.135 208.076 250.707 207.783L250.935 208.227C251.539 207.917 252.118 207.578 252.67 207.209L252.393 206.793C252.94 206.428 253.461 206.035 253.954 205.613L254.279 205.993C254.791 205.555 255.275 205.088 255.729 204.592L255.36 204.254C255.8 203.775 256.21 203.268 256.592 202.735L256.999 203.026C257.387 202.483 257.745 201.915 258.074 201.321L257.636 201.079C257.948 200.516 258.232 199.928 258.487 199.318L258.948 199.511C259.203 198.904 259.429 198.275 259.627 197.625L259.149 197.479C259.336 196.867 259.497 196.236 259.633 195.585L260.122 195.687C260.256 195.047 260.364 194.39 260.447 193.717L259.951 193.656C260.03 193.021 260.085 192.371 260.118 191.706L260.618 191.731C260.65 191.081 260.66 190.418 260.648 189.741L260.148 189.75C260.137 189.11 260.106 188.458 260.055 187.794L260.554 187.756C260.504 187.108 260.435 186.449 260.346 185.78L259.85 185.846C259.766 185.21 259.665 184.563 259.545 183.907L260.037 183.818C259.921 183.181 259.788 182.535 259.638 181.881L259.151 181.992C259.008 181.37 258.85 180.739 258.676 180.1L259.159 179.969C258.989 179.345 258.804 178.713 258.604 178.075L258.127 178.224C257.934 177.61 257.728 176.99 257.508 176.363L257.979 176.197C257.764 175.584 257.534 174.965 257.292 174.34L256.826 174.521C256.594 173.925 256.35 173.324 256.093 172.717L256.554 172.523C256.301 171.926 256.037 171.324 255.76 170.718L255.305 170.925C255.036 170.336 254.755 169.743 254.463 169.144L254.912 168.925C254.63 168.347 254.336 167.765 254.032 167.179L253.588 167.409C253.291 166.837 252.983 166.261 252.665 165.681L253.103 165.44C252.79 164.871 252.467 164.298 252.134 163.721L251.701 163.971C251.38 163.416 251.049 162.857 250.708 162.295L251.136 162.036C250.797 161.478 250.45 160.917 250.092 160.353L249.67 160.62C249.327 160.079 248.975 159.535 248.614 158.987L249.031 158.712C248.673 158.169 248.306 157.624 247.93 157.076L247.518 157.359C247.153 156.828 246.78 156.294 246.398 155.757L246.806 155.468C246.614 155.198 246.421 154.928 246.225 154.658L245.836 154.94L246.225 154.658C246.003 154.352 245.824 154.073 245.683 153.819L245.246 154.062C244.763 153.191 244.661 152.536 244.865 152.061L245.325 152.258C245.445 151.977 245.823 151.706 246.69 151.584L246.62 151.089C247.212 151.005 247.924 150.999 248.728 151.056L248.692 151.554C249.318 151.598 250.005 151.682 250.739 151.8L250.818 151.306C251.476 151.411 252.168 151.543 252.882 151.695L252.778 152.184C253.438 152.325 254.119 152.484 254.811 152.658L254.932 152.173C255.604 152.341 256.285 152.522 256.968 152.713L256.834 153.195C257.504 153.382 258.177 153.579 258.844 153.781L258.989 153.303C259.667 153.509 260.34 153.721 260.997 153.934L260.843 154.41C261.523 154.631 262.187 154.854 262.827 155.075L262.99 154.602C263.685 154.842 264.351 155.08 264.977 155.31L264.804 155.779C265.514 156.04 266.171 156.291 266.758 156.523L266.943 156.058C267.726 156.369 268.389 156.648 268.89 156.878L268.682 157.332C269.121 157.533 269.401 157.681 269.528 157.767L269.528 157.767C269.806 157.957 270.081 158.146 270.353 158.335L270.639 157.925C271.195 158.314 271.738 158.703 272.267 159.094L271.97 159.496C272.513 159.898 273.042 160.301 273.557 160.705L273.866 160.312C274.399 160.732 274.917 161.154 275.421 161.578L275.098 161.96C275.614 162.394 276.113 162.831 276.596 163.27L276.933 162.9C277.434 163.356 277.92 163.815 278.388 164.278L278.037 164.634C278.515 165.106 278.975 165.582 279.417 166.062L279.785 165.722C280.244 166.22 280.685 166.722 281.108 167.23L280.724 167.55C281.151 168.062 281.56 168.58 281.95 169.104L282.351 168.805C282.754 169.346 283.139 169.894 283.504 170.448L283.086 170.723C283.45 171.277 283.795 171.838 284.121 172.406L284.555 172.157C284.889 172.739 285.204 173.329 285.499 173.928L285.05 174.149C285.341 174.739 285.613 175.339 285.866 175.947L286.328 175.755C286.584 176.371 286.821 176.996 287.039 177.631L286.566 177.793C286.779 178.413 286.974 179.042 287.151 179.681L287.633 179.548C287.81 180.187 287.969 180.837 288.111 181.497L287.622 181.602C287.76 182.24 287.88 182.888 287.985 183.547L288.479 183.469C288.582 184.122 288.67 184.785 288.743 185.459L288.246 185.513C288.315 186.161 288.37 186.819 288.411 187.489L288.91 187.458C288.951 188.116 288.977 188.784 288.99 189.463L288.49 189.473C288.497 189.803 288.5 190.135 288.5 190.469C288.5 190.815 288.496 191.158 288.49 191.499L288.989 191.509C288.975 192.201 288.947 192.882 288.905 193.553L288.406 193.522C288.364 194.209 288.307 194.886 288.236 195.552L288.733 195.605C288.659 196.296 288.571 196.977 288.469 197.646L287.974 197.571C287.871 198.248 287.752 198.914 287.62 199.569L288.11 199.668C287.973 200.346 287.821 201.012 287.654 201.667L287.17 201.543C287.001 202.206 286.818 202.856 286.621 203.495L287.098 203.642C286.894 204.305 286.674 204.955 286.44 205.592L285.97 205.42C285.735 206.061 285.484 206.689 285.22 207.305L285.68 207.502C285.407 208.137 285.12 208.759 284.819 209.368L284.371 209.146C284.07 209.757 283.754 210.354 283.424 210.938L283.86 211.184C283.522 211.784 283.169 212.371 282.804 212.945L282.382 212.677C282.017 213.25 281.639 213.81 281.248 214.356L281.655 214.647C281.255 215.207 280.842 215.753 280.417 216.286L280.026 215.974C279.602 216.505 279.167 217.022 278.72 217.525L279.094 217.857C278.637 218.372 278.17 218.873 277.691 219.36L277.335 219.009C276.859 219.494 276.372 219.965 275.876 220.422L276.215 220.79C275.71 221.256 275.195 221.708 274.671 222.146L274.35 221.762C273.829 222.198 273.3 222.621 272.762 223.029L273.065 223.427C272.518 223.843 271.963 224.245 271.401 224.633L271.117 224.222C270.558 224.609 269.991 224.982 269.419 225.341L269.685 225.765C269.103 226.13 268.515 226.482 267.923 226.82L267.675 226.386C267.083 226.724 266.487 227.047 265.887 227.357L266.117 227.802C265.505 228.118 264.89 228.42 264.273 228.708L264.061 228.255C263.443 228.544 262.822 228.818 262.2 229.08L262.394 229.541C261.758 229.807 261.121 230.06 260.483 230.299L260.308 229.831C259.668 230.071 259.028 230.296 258.388 230.508L258.545 230.983C257.89 231.2 257.235 231.403 256.583 231.592L256.444 231.112C255.785 231.302 255.13 231.478 254.478 231.64L254.598 232.125C253.926 232.292 253.257 232.444 252.595 232.581L252.493 232.092C251.82 232.231 251.154 232.355 250.494 232.464L250.575 232.957C249.89 233.07 249.212 233.167 248.544 233.249L248.484 232.752C247.797 232.836 247.122 232.903 246.459 232.954L246.497 233.452C245.797 233.506 245.111 233.541 244.441 233.559L244.427 233.059C244.088 233.068 243.752 233.073 243.421 233.073C243.087 233.073 242.754 233.07 242.423 233.066L242.416 233.566C241.749 233.557 241.089 233.539 240.435 233.512L240.455 233.013C239.788 232.986 239.129 232.949 238.476 232.904L238.442 233.403C237.773 233.356 237.111 233.3 236.457 233.234L236.506 232.737C235.846 232.671 235.193 232.595 234.548 232.51L234.483 233.006C233.82 232.918 233.165 232.821 232.519 232.714L232.6 232.221C231.943 232.112 231.295 231.993 230.655 231.864L230.556 232.354C229.899 232.222 229.251 232.08 228.611 231.927L228.727 231.441C228.082 231.287 227.447 231.122 226.82 230.947L226.686 231.429C226.042 231.249 225.408 231.059 224.782 230.858L224.935 230.382C224.305 230.18 223.684 229.967 223.073 229.743L222.901 230.212C222.272 229.982 221.653 229.74 221.045 229.488L221.236 229.026C220.625 228.773 220.024 228.508 219.433 228.233L219.222 228.686C218.617 228.404 218.022 228.111 217.437 227.806L217.668 227.363C217.083 227.058 216.509 226.742 215.945 226.415L215.694 226.847C215.118 226.513 214.552 226.167 213.997 225.809L214.268 225.389C213.714 225.033 213.172 224.665 212.641 224.287L212.35 224.694C211.808 224.308 211.277 223.91 210.758 223.501L211.067 223.108C210.55 222.702 210.045 222.284 209.551 221.856L209.223 222.234C208.721 221.798 208.23 221.352 207.751 220.895L208.096 220.533C207.621 220.08 207.158 219.616 206.706 219.142L206.344 219.487C205.886 219.006 205.44 218.515 205.006 218.014L205.384 217.687C204.955 217.191 204.537 216.686 204.131 216.171L203.739 216.48C203.329 215.96 202.93 215.429 202.543 214.889L202.95 214.598C202.569 214.066 202.199 213.524 201.841 212.973L201.422 213.246C201.061 212.691 200.712 212.127 200.374 211.554L200.805 211.3C200.472 210.736 200.151 210.164 199.841 209.583L199.4 209.818C199.089 209.234 198.789 208.642 198.5 208.042L198.95 207.825C198.667 207.236 198.394 206.638 198.132 206.032L197.673 206.231C197.411 205.625 197.159 205.011 196.919 204.39L197.385 204.21C197.149 203.6 196.923 202.983 196.708 202.359L196.235 202.522C196.02 201.898 195.815 201.268 195.621 200.63L196.099 200.484C195.908 199.859 195.728 199.226 195.557 198.588L195.074 198.717C194.904 198.079 194.743 197.435 194.593 196.785L195.08 196.672C194.932 196.034 194.794 195.391 194.666 194.741L194.176 194.838C194.048 194.19 193.929 193.537 193.82 192.878L194.314 192.796C194.207 192.151 194.11 191.501 194.022 190.845L193.526 190.912C193.438 190.258 193.359 189.6 193.29 188.937L193.787 188.885C193.752 188.557 193.72 188.228 193.69 187.897C193.661 187.577 193.635 187.255 193.613 186.931L193.114 186.966C193.07 186.314 193.038 185.656 193.02 184.993L193.52 184.979C193.502 184.333 193.496 183.681 193.502 183.023L193.002 183.019C193.009 182.367 193.026 181.711 193.054 181.051L193.554 181.072C193.582 180.425 193.62 179.774 193.668 179.119L193.169 179.083C193.217 178.43 193.275 177.774 193.342 177.115L193.84 177.166C193.905 176.519 193.98 175.87 194.063 175.218L193.567 175.155C193.65 174.506 193.74 173.856 193.839 173.204L194.333 173.278C194.431 172.634 194.535 171.988 194.647 171.341L194.155 171.256C194.266 170.61 194.385 169.962 194.51 169.314L195.001 169.409C195.125 168.768 195.255 168.127 195.391 167.486L194.902 167.382C195.038 166.74 195.18 166.098 195.327 165.456L195.815 165.568C195.961 164.93 196.112 164.292 196.269 163.655L195.783 163.536C195.94 162.898 196.102 162.26 196.267 161.624L196.751 161.75C196.917 161.116 197.086 160.482 197.26 159.851L196.778 159.718C196.952 159.083 197.13 158.45 197.312 157.819L197.792 157.957C197.974 157.327 198.159 156.698 198.346 156.072L197.867 155.928C198.057 155.296 198.25 154.666 198.444 154.04L198.922 154.188C199.117 153.559 199.316 152.933 199.516 152.311L199.04 152.158C199.241 151.53 199.445 150.905 199.651 150.285L200.125 150.442C200.332 149.815 200.541 149.193 200.751 148.576L200.277 148.415C200.491 147.787 200.705 147.163 200.919 146.546L201.392 146.71C201.609 146.084 201.826 145.465 202.044 144.851L201.572 144.684C201.793 144.059 202.014 143.441 202.234 142.83L202.705 142.999C202.93 142.375 203.154 141.758 203.376 141.148L202.906 140.977C203.135 140.349 203.363 139.73 203.588 139.12L204.057 139.293C204.288 138.666 204.516 138.049 204.742 137.441L204.273 137.268C204.487 136.689 204.699 136.12 204.907 135.562C204.925 135.514 204.942 135.466 204.96 135.418L205.429 135.593C205.663 134.963 205.892 134.347 206.115 133.744L205.646 133.57C205.881 132.938 206.108 132.322 206.328 131.721L206.798 131.893C207.032 131.256 207.257 130.636 207.473 130.036L207.002 129.867C207.233 129.223 207.453 128.602 207.66 128.005L208.133 128.168C208.36 127.511 208.572 126.883 208.766 126.285L208.29 126.131C208.507 125.463 208.701 124.835 208.869 124.249L209.35 124.387C209.553 123.679 209.72 123.027 209.845 122.438L209.355 122.335C209.52 121.558 209.606 120.902 209.601 120.378L210.101 120.374C210.097 119.947 210.038 119.55 209.884 119.221L209.84 119.127L209.763 119.058C209.513 118.837 209.266 118.612 209.024 118.383L208.68 118.745C208.188 118.278 207.712 117.794 207.253 117.293L207.622 116.956C207.171 116.464 206.738 115.956 206.323 115.434L205.931 115.745C205.509 115.214 205.106 114.668 204.721 114.107L205.134 113.825C204.757 113.275 204.399 112.712 204.061 112.135L203.63 112.388C203.287 111.804 202.965 111.207 202.663 110.597L203.111 110.375C202.816 109.779 202.541 109.171 202.288 108.552L201.825 108.741C201.569 108.115 201.334 107.478 201.121 106.831L201.596 106.675C201.389 106.044 201.203 105.403 201.039 104.753L200.555 104.875C200.39 104.22 200.248 103.556 200.129 102.884L200.621 102.797C200.505 102.144 200.412 101.483 200.342 100.816L199.844 100.868C199.774 100.198 199.727 99.5204 199.703 98.8371L200.203 98.8197C200.191 98.4875 200.185 98.1537 200.185 97.8186C200.185 97.4797 200.191 97.1421 200.203 96.8061L199.703 96.7886C199.727 96.0988 199.776 95.4151 199.848 94.7385L200.345 94.7913C200.417 94.1167 200.512 93.4493 200.63 92.7898L200.138 92.7017C200.259 92.0236 200.404 91.3537 200.572 90.6929L201.057 90.8161C201.223 90.1601 201.413 89.5132 201.624 88.8764L201.15 88.7187C201.367 88.0659 201.606 87.4234 201.868 86.7922L202.33 86.9835C202.588 86.3593 202.868 85.7463 203.169 85.1455L202.722 84.9216C203.03 84.3073 203.359 83.7055 203.708 83.1172L204.138 83.3724C204.482 82.7922 204.847 82.2253 205.231 81.6727L204.82 81.3875C205.212 80.8238 205.623 80.2748 206.052 79.7414L206.442 80.055C206.865 79.5301 207.306 79.0205 207.765 78.5273L207.398 78.1868C207.865 77.6847 208.35 77.1993 208.851 76.7316L209.192 77.0972C209.685 76.6378 210.194 76.1958 210.718 75.7721L210.404 75.3832C210.936 74.9526 211.485 74.5407 212.048 74.1484L212.334 74.5586C212.886 74.174 213.452 73.8086 214.032 73.4634L213.776 73.0338C214.364 72.6837 214.965 72.354 215.579 72.0456L215.804 72.4924C216.404 72.1907 217.017 71.9099 217.641 71.6507L217.449 71.189C218.08 70.9269 218.722 70.6867 219.375 70.4692L219.533 70.9435C220.169 70.7314 220.816 70.5413 221.472 70.3741L221.348 69.8896C222.009 69.7212 222.679 69.5756 223.357 69.4539L223.445 69.946C224.104 69.8276 224.772 69.732 225.446 69.6602L225.393 69.163C226.07 69.091 226.754 69.0424 227.443 69.0181L227.461 69.5178C227.797 69.506 228.135 69.5 228.473 69.5C228.812 69.5 229.15 69.506 229.486 69.5178L229.503 69.0181C230.193 69.0424 230.877 69.091 231.553 69.163L231.5 69.6602C232.175 69.732 232.842 69.8276 233.502 69.946L233.59 69.4539C234.268 69.5756 234.938 69.7212 235.598 69.8896L235.475 70.3741C236.131 70.5412 236.777 70.7314 237.414 70.9435L237.572 70.4692C238.225 70.6867 238.867 70.9269 239.498 71.189L239.306 71.6507C239.93 71.9098 240.543 72.1907 241.143 72.4923L241.367 72.0456C241.981 72.354 242.583 72.6837 243.17 73.0338L242.915 73.4634C243.494 73.8086 244.061 74.1741 244.613 74.5587L244.898 74.1484C245.462 74.5407 246.01 74.9527 246.543 75.3832L246.228 75.7721C246.753 76.1958 247.261 76.6379 247.754 77.0973L248.095 76.7317C248.596 77.1994 249.081 77.6848 249.548 78.1869L249.182 78.5274C249.64 79.0206 250.081 79.5302 250.504 80.0551L250.894 79.7415C251.323 80.2749 251.735 80.8239 252.126 81.3877L251.715 81.6729C252.099 82.2254 252.464 82.7923 252.808 83.3725L253.238 83.1173C253.587 83.7056 253.916 84.3074 254.224 84.9218L253.777 85.1456C254.077 85.7464 254.358 86.3594 254.616 86.9836L255.078 86.7924C255.339 87.4236 255.579 88.066 255.796 88.7189L255.321 88.8765C255.533 89.5133 255.722 90.1602 255.889 90.8162L256.374 90.693C256.541 91.3538 256.687 92.0237 256.808 92.7018L256.316 92.7899C256.434 93.4494 256.529 94.1168 256.601 94.7913L257.098 94.7385C257.17 95.4152 257.218 96.0988 257.242 96.7886L256.743 96.8062C256.754 97.1422 256.76 97.4797 256.76 97.8186C256.76 98.1537 256.754 98.4874 256.743 98.8197L257.243 98.837C257.219 99.5203 257.171 100.198 257.101 100.868L256.604 100.816C256.534 101.483 256.44 102.144 256.325 102.797L256.817 102.884C256.698 103.556 256.556 104.22 256.391 104.875L255.906 104.753C255.743 105.403 255.557 106.044 255.35 106.675L255.825 106.831C255.612 107.478 255.377 108.115 255.121 108.741L254.658 108.552C254.405 109.171 254.13 109.779 253.835 110.375L254.283 110.597C253.982 111.206 253.659 111.804 253.316 112.388L252.885 112.135C252.547 112.712 252.189 113.275 251.813 113.825L252.225 114.107C251.841 114.668 251.437 115.214 251.015 115.745L250.624 115.434C250.209 115.956 249.775 116.464 249.325 116.956L249.694 117.293C249.235 117.794 248.759 118.278 248.266 118.745L247.922 118.383C247.684 118.609 247.441 118.831 247.194 119.049C246.958 119.237 246.706 119.448 246.442 119.683L246.774 120.057Z" stroke="black" stroke-opacity="0.6" stroke-dasharray="2 2"/>
<path d="M242.103 96.43C242.103 104.004 235.963 110.144 228.389 110.144C220.814 110.144 214.674 104.004 214.674 96.43C214.674 88.8549 220.814 82.7148 228.389 82.7148C235.963 82.7148 242.103 88.8549 242.103 96.43Z" fill="#D9D9D9" fill-opacity="0.4"/>
<path d="M241.727 93.227C241.892 93.9169 242.005 94.627 242.061 95.3529L241.562 95.3917C241.589 95.7342 241.603 96.0805 241.603 96.43C241.603 96.7796 241.589 97.1258 241.562 97.4683L242.061 97.5071C242.005 98.233 241.892 98.943 241.727 99.6328L241.24 99.5165C241.078 100.195 240.863 100.854 240.6 101.488L241.062 101.679C240.785 102.347 240.457 102.987 240.083 103.596L239.657 103.335C239.294 103.926 238.886 104.487 238.437 105.012L238.817 105.336C238.35 105.883 237.841 106.391 237.295 106.858L236.97 106.478C236.445 106.927 235.885 107.335 235.293 107.699L235.555 108.125C234.946 108.499 234.305 108.827 233.638 109.103L233.447 108.641C232.813 108.904 232.154 109.119 231.475 109.282L231.592 109.768C230.902 109.933 230.192 110.046 229.466 110.102L229.427 109.604C229.085 109.63 228.738 109.644 228.389 109.644C228.039 109.644 227.693 109.63 227.35 109.604L227.312 110.102C226.586 110.046 225.876 109.933 225.186 109.768L225.302 109.282C224.623 109.119 223.964 108.904 223.33 108.641L223.139 109.103C222.472 108.827 221.831 108.499 221.222 108.125L221.484 107.699C220.892 107.336 220.332 106.927 219.806 106.479L219.482 106.859C218.935 106.392 218.426 105.883 217.96 105.337L218.34 105.012C217.891 104.487 217.482 103.926 217.119 103.335L216.693 103.597C216.319 102.987 215.991 102.347 215.714 101.68L216.176 101.488C215.913 100.854 215.698 100.196 215.536 99.5166L215.05 99.633C214.885 98.9432 214.772 98.2331 214.715 97.5071L215.214 97.4684C215.187 97.1259 215.174 96.7796 215.174 96.43C215.174 96.0805 215.187 95.7341 215.214 95.3916L214.715 95.3529C214.772 94.6269 214.885 93.9167 215.05 93.2269L215.536 93.3432C215.698 92.6641 215.913 92.0053 216.176 91.3715L215.714 91.1799C215.991 90.5127 216.319 89.8721 216.693 89.2629L217.119 89.5245C217.482 88.9332 217.89 88.3725 218.339 87.8474L217.959 87.5225C218.426 86.9764 218.935 86.4674 219.481 86.0005L219.806 86.3806C220.331 85.9316 220.892 85.5232 221.483 85.1601L221.222 84.734C221.831 84.3599 222.471 84.0321 223.139 83.7555L223.33 84.2173C223.964 83.9545 224.623 83.7396 225.302 83.5771L225.186 83.0909C225.875 82.9258 226.586 82.8129 227.312 82.7565L227.35 83.255C227.693 83.2284 228.039 83.2148 228.389 83.2148C228.738 83.2148 229.085 83.2284 229.427 83.255L229.466 82.7565C230.192 82.8129 230.902 82.9259 231.592 83.0909L231.475 83.5772C232.154 83.7397 232.813 83.9546 233.447 84.2175L233.638 83.7556C234.306 84.0323 234.946 84.3602 235.555 84.7343L235.294 85.1603C235.885 85.5235 236.446 85.9319 236.971 86.3809L237.296 86.0008C237.842 86.4677 238.351 86.9767 238.817 87.5228L238.437 87.8477C238.886 88.3728 239.295 88.9335 239.658 89.5249L240.084 89.2632C240.458 89.8724 240.785 90.513 241.062 91.1802L240.6 91.3717C240.863 92.0056 241.078 92.6643 241.24 93.3434L241.727 93.227Z" stroke="black" stroke-opacity="0.6" stroke-dasharray="2 2"/>
<path d="M475 20H0V302H475V20Z" fill="#D9D9D9" fill-opacity="0.2"/>
</g>
<defs>
<clipPath id="clip0_903_643">
<rect width="475" height="302" fill="white"/>
</clipPath>
</defs>
</svg>
